<svg width="272" height="250" viewBox="0 0 272 250" fill="none" xmlns="http://www.w3.org/2000/svg">
<rect width="272" height="250" rx="15" fill="white"/>
<path d="M114.352 109H97.8281L87.1641 69.9766L76.5 109H59.9766L41.168 50.4062H56.4023L68.0625 93.2969L80.7773 50.4062H93.6094L106.266 93.3555L117.984 50.4062H133.219L114.352 109ZM194.625 102.203C187.32 107.516 179.332 110.172 170.66 110.172C164.371 110.172 158.727 108.805 153.727 106.07C148.727 103.336 144.762 99.6055 141.832 94.8789C138.941 90.1523 137.496 84.8008 137.496 78.8242C137.496 73.1602 138.805 68.1016 141.422 63.6484C144.078 59.1953 147.691 55.6797 152.262 53.1016C156.871 50.5234 162.066 49.2344 167.848 49.2344C173.863 49.2344 179.137 50.6602 183.668 53.5117C188.238 56.3242 191.793 60.25 194.332 65.2891C196.871 70.2891 198.141 76.1094 198.141 82.75V84.625H153.023C153.727 87.2812 154.957 89.625 156.715 91.6562C158.512 93.6875 160.738 95.2695 163.395 96.4023C166.051 97.5352 169.039 98.1016 172.359 98.1016C178.609 98.1016 184.391 96.0703 189.703 92.0078L194.625 102.203ZM152.438 76.1875H184.781C184.469 73.2578 183.57 70.6992 182.086 68.5117C180.641 66.3242 178.746 64.625 176.402 63.4141C174.098 62.1641 171.5 61.5391 168.609 61.5391C165.68 61.5391 163.062 62.1641 160.758 63.4141C158.453 64.6641 156.578 66.4023 155.133 68.6289C153.688 70.8164 152.789 73.3359 152.438 76.1875Z" fill="#344CB7"/>
<path d="M116.109 179.469C110.68 179.469 105.836 178.16 101.578 175.543C97.3203 172.926 93.9609 169.352 91.5 164.82C89.0391 160.25 87.8086 155.094 87.8086 149.352C87.8086 143.57 89.0391 138.414 91.5 133.883C93.9609 129.352 97.3203 125.777 101.578 123.16C105.836 120.543 110.68 119.234 116.109 119.234C120.367 119.234 124.293 120.055 127.887 121.695C131.48 123.336 134.527 125.621 137.027 128.551L137.73 120.406H150.387V177.418C150.387 183.902 149 189.547 146.227 194.352C143.492 199.156 139.625 202.867 134.625 205.484C129.625 208.141 123.707 209.469 116.871 209.469C107.379 209.469 98.8828 206.441 91.3828 200.387L97.3008 188.609C102.535 193.883 108.746 196.52 115.934 196.52C119.996 196.52 123.512 195.699 126.48 194.059C129.488 192.457 131.812 190.172 133.453 187.203C135.133 184.273 135.973 180.836 135.973 176.891V171.266C133.473 173.844 130.523 175.855 127.125 177.301C123.727 178.746 120.055 179.469 116.109 179.469ZM119.273 166.637C122.359 166.637 125.152 165.953 127.652 164.586C130.191 163.18 132.203 161.266 133.688 158.844C135.211 156.422 135.973 153.668 135.973 150.582V148.004C135.973 144.918 135.211 142.184 133.688 139.801C132.203 137.418 130.191 135.543 127.652 134.176C125.113 132.77 122.32 132.066 119.273 132.066C116.07 132.066 113.199 132.828 110.66 134.352C108.121 135.836 106.109 137.887 104.625 140.504C103.18 143.121 102.457 146.07 102.457 149.352C102.457 152.633 103.18 155.582 104.625 158.199C106.109 160.816 108.121 162.887 110.66 164.41C113.199 165.895 116.07 166.637 119.273 166.637ZM192.574 180.172C186.637 180.172 181.305 178.844 176.578 176.188C171.891 173.531 168.18 169.918 165.445 165.348C162.75 160.738 161.402 155.523 161.402 149.703C161.402 143.883 162.75 138.688 165.445 134.117C168.18 129.508 171.891 125.875 176.578 123.219C181.305 120.562 186.637 119.234 192.574 119.234C198.551 119.234 203.883 120.562 208.57 123.219C213.258 125.875 216.93 129.508 219.586 134.117C222.281 138.688 223.629 143.883 223.629 149.703C223.629 155.523 222.281 160.738 219.586 165.348C216.93 169.918 213.258 173.531 208.57 176.188C203.883 178.844 198.551 180.172 192.574 180.172ZM192.516 167.223C195.641 167.223 198.434 166.461 200.895 164.938C203.355 163.414 205.289 161.324 206.695 158.668C208.141 156.012 208.863 153.004 208.863 149.645C208.863 146.324 208.141 143.355 206.695 140.738C205.289 138.082 203.355 135.992 200.895 134.469C198.434 132.945 195.641 132.184 192.516 132.184C189.43 132.184 186.637 132.945 184.137 134.469C181.676 135.992 179.723 138.082 178.277 140.738C176.871 143.355 176.168 146.324 176.168 149.645C176.168 153.004 176.871 156.012 178.277 158.668C179.723 161.324 181.676 163.414 184.137 164.938C186.637 166.461 189.43 167.223 192.516 167.223Z" fill="#2C3538"/>
</svg>
