<svg width="1536" height="730" viewBox="0 0 1536 730" fill="none" xmlns="http://www.w3.org/2000/svg">
<g clip-path="url(#clip0_1_8)">
<rect width="1536" height="729.6" fill="#2A2E30"/>
<mask id="path-1-outside-1_1_8" maskUnits="userSpaceOnUse" x="-510" y="-97" width="2386" height="161" fill="black">
<rect fill="white" x="-510" y="-97" width="2386" height="161"/>
<path d="M-345.598 57H-369.035L-401.164 -46.5156L-433.293 57H-456.73L-504.387 -89.4844H-477.336L-445.109 14.5195L-412.883 -89.4844H-389.445L-357.316 14.2266L-325.188 -89.4844H-298.137L-345.598 57ZM-201.75 45.6719C-213.924 54.526 -227.238 58.9531 -241.691 58.9531C-252.173 58.9531 -261.581 56.6745 -269.914 52.1172C-278.247 47.5599 -284.855 41.3424 -289.738 33.4648C-294.556 25.5872 -296.965 16.668 -296.965 6.70703C-296.965 -2.73307 -294.784 -11.1641 -290.422 -18.5859C-285.995 -26.0078 -279.973 -31.8672 -272.355 -36.1641C-264.673 -40.4609 -256.014 -42.6094 -246.379 -42.6094C-236.353 -42.6094 -227.564 -40.2331 -220.012 -35.4805C-212.395 -30.793 -206.47 -24.25 -202.238 -15.8516C-198.007 -7.51823 -195.891 2.18229 -195.891 13.25V16.375H-271.086C-269.914 20.8021 -267.863 24.7083 -264.934 28.0938C-261.939 31.4792 -258.228 34.1159 -253.801 36.0039C-249.374 37.8919 -244.393 38.8359 -238.859 38.8359C-228.443 38.8359 -218.807 35.4505 -209.953 28.6797L-201.75 45.6719ZM-272.062 2.3125H-218.156C-218.677 -2.57031 -220.174 -6.83464 -222.648 -10.4805C-225.057 -14.1263 -228.215 -16.9583 -232.121 -18.9766C-235.962 -21.0599 -240.292 -22.1016 -245.109 -22.1016C-249.992 -22.1016 -254.354 -21.0599 -258.195 -18.9766C-262.036 -16.8932 -265.161 -13.9961 -267.57 -10.2852C-269.979 -6.63932 -271.477 -2.4401 -272.062 2.3125ZM-68.9375 -55.4023C-73.5599 -60.0247 -79.0938 -63.5729 -85.5391 -66.0469C-91.9193 -68.5208 -98.7227 -69.7578 -105.949 -69.7578C-113.306 -69.7578 -120.044 -68.4883 -126.164 -65.9492C-132.219 -63.4102 -137.46 -59.7643 -141.887 -55.0117C-146.314 -50.3242 -149.732 -44.7253 -152.141 -38.2148C-154.549 -31.7695 -155.754 -24.6081 -155.754 -16.7305C-155.754 -8.78776 -154.549 -1.49609 -152.141 5.14453C-149.667 11.7201 -146.216 17.4167 -141.789 22.2344C-137.297 27.0521 -131.991 30.763 -125.871 33.3672C-119.751 35.9714 -113.013 37.2734 -105.656 37.2734C-99.276 37.2734 -93.4167 36.2969 -88.0781 34.3438C-82.7396 32.3255 -78.0521 29.4609 -74.0156 25.75C-69.9141 21.974 -66.5612 17.4492 -63.957 12.1758C-61.3529 6.90234 -59.6276 1.04297 -58.7812 -5.40234H-105.07V-25.3242H-36.0273L-35.3438 -15.5586C-35.3438 -4.42578 -37.069 5.76302 -40.5195 15.0078C-43.9049 24.1875 -48.7552 32.1628 -55.0703 38.9336C-61.3854 45.6393 -68.8724 50.8151 -77.5312 54.4609C-86.1901 58.1068 -95.7604 59.9297 -106.242 59.9297C-117.049 59.9297 -127.076 58.0091 -136.32 54.168C-145.5 50.3268 -153.54 44.9883 -160.441 38.1523C-167.277 31.2513 -172.616 23.1784 -176.457 13.9336C-180.233 4.6888 -182.121 -5.36979 -182.121 -16.2422C-182.121 -27.0495 -180.233 -37.0755 -176.457 -46.3203C-172.616 -55.6302 -167.31 -63.7357 -160.539 -70.6367C-153.703 -77.5378 -145.695 -82.8763 -136.516 -86.6523C-127.271 -90.4935 -117.277 -92.4141 -106.535 -92.4141C-96.3138 -92.4141 -86.5482 -90.6562 -77.2383 -87.1406C-67.8633 -83.625 -59.4974 -78.5794 -52.1406 -72.0039L-68.9375 -55.4023ZM30.3789 58.9531C20.4831 58.9531 11.5964 56.7396 3.71875 52.3125C-4.09375 47.8854 -10.2786 41.8633 -14.8359 34.2461C-19.3281 26.5638 -21.5742 17.8724 -21.5742 8.17188C-21.5742 -1.52865 -19.3281 -10.1875 -14.8359 -17.8047C-10.2786 -25.487 -4.09375 -31.5417 3.71875 -35.9688C11.5964 -40.3958 20.4831 -42.6094 30.3789 -42.6094C40.3398 -42.6094 49.2266 -40.3958 57.0391 -35.9688C64.8516 -31.5417 70.9714 -25.487 75.3984 -17.8047C79.8906 -10.1875 82.1367 -1.52865 82.1367 8.17188C82.1367 17.8724 79.8906 26.5638 75.3984 34.2461C70.9714 41.8633 64.8516 47.8854 57.0391 52.3125C49.2266 56.7396 40.3398 58.9531 30.3789 58.9531ZM30.2812 37.3711C35.4896 37.3711 40.1445 36.1016 44.2461 33.5625C48.3477 31.0234 51.5703 27.5404 53.9141 23.1133C56.3229 18.6862 57.5273 13.6732 57.5273 8.07422C57.5273 2.54036 56.3229 -2.40755 53.9141 -6.76953C51.5703 -11.1966 48.3477 -14.6797 44.2461 -17.2188C40.1445 -19.7578 35.4896 -21.0273 30.2812 -21.0273C25.138 -21.0273 20.4831 -19.7578 16.3164 -17.2188C12.2148 -14.6797 8.95964 -11.1966 6.55078 -6.76953C4.20703 -2.40755 3.03516 2.54036 3.03516 8.07422C3.03516 13.6732 4.20703 18.6862 6.55078 23.1133C8.95964 27.5404 12.2148 31.0234 16.3164 33.5625C20.4831 36.1016 25.138 37.3711 30.2812 37.3711ZM250.887 57H227.449L195.32 -46.5156L163.191 57H139.754L92.0977 -89.4844H119.148L151.375 14.5195L183.602 -89.4844H207.039L239.168 14.2266L271.297 -89.4844H298.348L250.887 57ZM394.734 45.6719C382.56 54.526 369.246 58.9531 354.793 58.9531C344.311 58.9531 334.904 56.6745 326.57 52.1172C318.237 47.5599 311.629 41.3424 306.746 33.4648C301.928 25.5872 299.52 16.668 299.52 6.70703C299.52 -2.73307 301.701 -11.1641 306.062 -18.5859C310.49 -26.0078 316.512 -31.8672 324.129 -36.1641C331.811 -40.4609 340.47 -42.6094 350.105 -42.6094C360.132 -42.6094 368.921 -40.2331 376.473 -35.4805C384.09 -30.793 390.014 -24.25 394.246 -15.8516C398.478 -7.51823 400.594 2.18229 400.594 13.25V16.375H325.398C326.57 20.8021 328.621 24.7083 331.551 28.0938C334.546 31.4792 338.257 34.1159 342.684 36.0039C347.111 37.8919 352.091 38.8359 357.625 38.8359C368.042 38.8359 377.677 35.4505 386.531 28.6797L394.734 45.6719ZM324.422 2.3125H378.328C377.807 -2.57031 376.31 -6.83464 373.836 -10.4805C371.427 -14.1263 368.27 -16.9583 364.363 -18.9766C360.522 -21.0599 356.193 -22.1016 351.375 -22.1016C346.492 -22.1016 342.13 -21.0599 338.289 -18.9766C334.448 -16.8932 331.323 -13.9961 328.914 -10.2852C326.505 -6.63932 325.008 -2.4401 324.422 2.3125ZM527.547 -55.4023C522.924 -60.0247 517.391 -63.5729 510.945 -66.0469C504.565 -68.5208 497.762 -69.7578 490.535 -69.7578C483.178 -69.7578 476.44 -68.4883 470.32 -65.9492C464.266 -63.4102 459.025 -59.7643 454.598 -55.0117C450.171 -50.3242 446.753 -44.7253 444.344 -38.2148C441.935 -31.7695 440.73 -24.6081 440.73 -16.7305C440.73 -8.78776 441.935 -1.49609 444.344 5.14453C446.818 11.7201 450.268 17.4167 454.695 22.2344C459.188 27.0521 464.493 30.763 470.613 33.3672C476.733 35.9714 483.471 37.2734 490.828 37.2734C497.208 37.2734 503.068 36.2969 508.406 34.3438C513.745 32.3255 518.432 29.4609 522.469 25.75C526.57 21.974 529.923 17.4492 532.527 12.1758C535.132 6.90234 536.857 1.04297 537.703 -5.40234H491.414V-25.3242H560.457L561.141 -15.5586C561.141 -4.42578 559.415 5.76302 555.965 15.0078C552.579 24.1875 547.729 32.1628 541.414 38.9336C535.099 45.6393 527.612 50.8151 518.953 54.4609C510.294 58.1068 500.724 59.9297 490.242 59.9297C479.435 59.9297 469.409 58.0091 460.164 54.168C450.984 50.3268 442.944 44.9883 436.043 38.1523C429.207 31.2513 423.868 23.1784 420.027 13.9336C416.251 4.6888 414.363 -5.36979 414.363 -16.2422C414.363 -27.0495 416.251 -37.0755 420.027 -46.3203C423.868 -55.6302 429.174 -63.7357 435.945 -70.6367C442.781 -77.5378 450.789 -82.8763 459.969 -86.6523C469.214 -90.4935 479.207 -92.4141 489.949 -92.4141C500.171 -92.4141 509.936 -90.6562 519.246 -87.1406C528.621 -83.625 536.987 -78.5794 544.344 -72.0039L527.547 -55.4023ZM626.863 58.9531C616.967 58.9531 608.081 56.7396 600.203 52.3125C592.391 47.8854 586.206 41.8633 581.648 34.2461C577.156 26.5638 574.91 17.8724 574.91 8.17188C574.91 -1.52865 577.156 -10.1875 581.648 -17.8047C586.206 -25.487 592.391 -31.5417 600.203 -35.9688C608.081 -40.3958 616.967 -42.6094 626.863 -42.6094C636.824 -42.6094 645.711 -40.3958 653.523 -35.9688C661.336 -31.5417 667.456 -25.487 671.883 -17.8047C676.375 -10.1875 678.621 -1.52865 678.621 8.17188C678.621 17.8724 676.375 26.5638 671.883 34.2461C667.456 41.8633 661.336 47.8854 653.523 52.3125C645.711 56.7396 636.824 58.9531 626.863 58.9531ZM626.766 37.3711C631.974 37.3711 636.629 36.1016 640.73 33.5625C644.832 31.0234 648.055 27.5404 650.398 23.1133C652.807 18.6862 654.012 13.6732 654.012 8.07422C654.012 2.54036 652.807 -2.40755 650.398 -6.76953C648.055 -11.1966 644.832 -14.6797 640.73 -17.2188C636.629 -19.7578 631.974 -21.0273 626.766 -21.0273C621.622 -21.0273 616.967 -19.7578 612.801 -17.2188C608.699 -14.6797 605.444 -11.1966 603.035 -6.76953C600.691 -2.40755 599.52 2.54036 599.52 8.07422C599.52 13.6732 600.691 18.6862 603.035 23.1133C605.444 27.5404 608.699 31.0234 612.801 33.5625C616.967 36.1016 621.622 37.3711 626.766 37.3711ZM847.371 57H823.934L791.805 -46.5156L759.676 57H736.238L688.582 -89.4844H715.633L747.859 14.5195L780.086 -89.4844H803.523L835.652 14.2266L867.781 -89.4844H894.832L847.371 57ZM991.219 45.6719C979.044 54.526 965.73 58.9531 951.277 58.9531C940.796 58.9531 931.388 56.6745 923.055 52.1172C914.721 47.5599 908.113 41.3424 903.23 33.4648C898.413 25.5872 896.004 16.668 896.004 6.70703C896.004 -2.73307 898.185 -11.1641 902.547 -18.5859C906.974 -26.0078 912.996 -31.8672 920.613 -36.1641C928.296 -40.4609 936.954 -42.6094 946.59 -42.6094C956.616 -42.6094 965.405 -40.2331 972.957 -35.4805C980.574 -30.793 986.499 -24.25 990.73 -15.8516C994.962 -7.51823 997.078 2.18229 997.078 13.25V16.375H921.883C923.055 20.8021 925.105 24.7083 928.035 28.0938C931.03 31.4792 934.741 34.1159 939.168 36.0039C943.595 37.8919 948.576 38.8359 954.109 38.8359C964.526 38.8359 974.161 35.4505 983.016 28.6797L991.219 45.6719ZM920.906 2.3125H974.812C974.292 -2.57031 972.794 -6.83464 970.32 -10.4805C967.911 -14.1263 964.754 -16.9583 960.848 -18.9766C957.007 -21.0599 952.677 -22.1016 947.859 -22.1016C942.977 -22.1016 938.615 -21.0599 934.773 -18.9766C930.932 -16.8932 927.807 -13.9961 925.398 -10.2852C922.99 -6.63932 921.492 -2.4401 920.906 2.3125ZM1124.03 -55.4023C1119.41 -60.0247 1113.88 -63.5729 1107.43 -66.0469C1101.05 -68.5208 1094.25 -69.7578 1087.02 -69.7578C1079.66 -69.7578 1072.92 -68.4883 1066.8 -65.9492C1060.75 -63.4102 1055.51 -59.7643 1051.08 -55.0117C1046.65 -50.3242 1043.24 -44.7253 1040.83 -38.2148C1038.42 -31.7695 1037.21 -24.6081 1037.21 -16.7305C1037.21 -8.78776 1038.42 -1.49609 1040.83 5.14453C1043.3 11.7201 1046.75 17.4167 1051.18 22.2344C1055.67 27.0521 1060.98 30.763 1067.1 33.3672C1073.22 35.9714 1079.96 37.2734 1087.31 37.2734C1093.69 37.2734 1099.55 36.2969 1104.89 34.3438C1110.23 32.3255 1114.92 29.4609 1118.95 25.75C1123.05 21.974 1126.41 17.4492 1129.01 12.1758C1131.62 6.90234 1133.34 1.04297 1134.19 -5.40234H1087.9V-25.3242H1156.94L1157.62 -15.5586C1157.62 -4.42578 1155.9 5.76302 1152.45 15.0078C1149.06 24.1875 1144.21 32.1628 1137.9 38.9336C1131.58 45.6393 1124.1 50.8151 1115.44 54.4609C1106.78 58.1068 1097.21 59.9297 1086.73 59.9297C1075.92 59.9297 1065.89 58.0091 1056.65 54.168C1047.47 50.3268 1039.43 44.9883 1032.53 38.1523C1025.69 31.2513 1020.35 23.1784 1016.51 13.9336C1012.74 4.6888 1010.85 -5.36979 1010.85 -16.2422C1010.85 -27.0495 1012.74 -37.0755 1016.51 -46.3203C1020.35 -55.6302 1025.66 -63.7357 1032.43 -70.6367C1039.27 -77.5378 1047.27 -82.8763 1056.45 -86.6523C1065.7 -90.4935 1075.69 -92.4141 1086.43 -92.4141C1096.65 -92.4141 1106.42 -90.6562 1115.73 -87.1406C1125.11 -83.625 1133.47 -78.5794 1140.83 -72.0039L1124.03 -55.4023ZM1223.35 58.9531C1213.45 58.9531 1204.57 56.7396 1196.69 52.3125C1188.88 47.8854 1182.69 41.8633 1178.13 34.2461C1173.64 26.5638 1171.39 17.8724 1171.39 8.17188C1171.39 -1.52865 1173.64 -10.1875 1178.13 -17.8047C1182.69 -25.487 1188.88 -31.5417 1196.69 -35.9688C1204.57 -40.3958 1213.45 -42.6094 1223.35 -42.6094C1233.31 -42.6094 1242.2 -40.3958 1250.01 -35.9688C1257.82 -31.5417 1263.94 -25.487 1268.37 -17.8047C1272.86 -10.1875 1275.11 -1.52865 1275.11 8.17188C1275.11 17.8724 1272.86 26.5638 1268.37 34.2461C1263.94 41.8633 1257.82 47.8854 1250.01 52.3125C1242.2 56.7396 1233.31 58.9531 1223.35 58.9531ZM1223.25 37.3711C1228.46 37.3711 1233.11 36.1016 1237.21 33.5625C1241.32 31.0234 1244.54 27.5404 1246.88 23.1133C1249.29 18.6862 1250.5 13.6732 1250.5 8.07422C1250.5 2.54036 1249.29 -2.40755 1246.88 -6.76953C1244.54 -11.1966 1241.32 -14.6797 1237.21 -17.2188C1233.11 -19.7578 1228.46 -21.0273 1223.25 -21.0273C1218.11 -21.0273 1213.45 -19.7578 1209.29 -17.2188C1205.18 -14.6797 1201.93 -11.1966 1199.52 -6.76953C1197.18 -2.40755 1196 2.54036 1196 8.07422C1196 13.6732 1197.18 18.6862 1199.52 23.1133C1201.93 27.5404 1205.18 31.0234 1209.29 33.5625C1213.45 36.1016 1218.11 37.3711 1223.25 37.3711ZM1443.86 57H1420.42L1388.29 -46.5156L1356.16 57H1332.72L1285.07 -89.4844H1312.12L1344.34 14.5195L1376.57 -89.4844H1400.01L1432.14 14.2266L1464.27 -89.4844H1491.32L1443.86 57ZM1587.7 45.6719C1575.53 54.526 1562.21 58.9531 1547.76 58.9531C1537.28 58.9531 1527.87 56.6745 1519.54 52.1172C1511.21 47.5599 1504.6 41.3424 1499.71 33.4648C1494.9 25.5872 1492.49 16.668 1492.49 6.70703C1492.49 -2.73307 1494.67 -11.1641 1499.03 -18.5859C1503.46 -26.0078 1509.48 -31.8672 1517.1 -36.1641C1524.78 -40.4609 1533.44 -42.6094 1543.07 -42.6094C1553.1 -42.6094 1561.89 -40.2331 1569.44 -35.4805C1577.06 -30.793 1582.98 -24.25 1587.21 -15.8516C1591.45 -7.51823 1593.56 2.18229 1593.56 13.25V16.375H1518.37C1519.54 20.8021 1521.59 24.7083 1524.52 28.0938C1527.51 31.4792 1531.23 34.1159 1535.65 36.0039C1540.08 37.8919 1545.06 38.8359 1550.59 38.8359C1561.01 38.8359 1570.65 35.4505 1579.5 28.6797L1587.7 45.6719ZM1517.39 2.3125H1571.3C1570.78 -2.57031 1569.28 -6.83464 1566.8 -10.4805C1564.4 -14.1263 1561.24 -16.9583 1557.33 -18.9766C1553.49 -21.0599 1549.16 -22.1016 1544.34 -22.1016C1539.46 -22.1016 1535.1 -21.0599 1531.26 -18.9766C1527.42 -16.8932 1524.29 -13.9961 1521.88 -10.2852C1519.47 -6.63932 1517.98 -2.4401 1517.39 2.3125ZM1720.52 -55.4023C1715.89 -60.0247 1710.36 -63.5729 1703.91 -66.0469C1697.53 -68.5208 1690.73 -69.7578 1683.5 -69.7578C1676.15 -69.7578 1669.41 -68.4883 1663.29 -65.9492C1657.23 -63.4102 1651.99 -59.7643 1647.57 -55.0117C1643.14 -50.3242 1639.72 -44.7253 1637.31 -38.2148C1634.9 -31.7695 1633.7 -24.6081 1633.7 -16.7305C1633.7 -8.78776 1634.9 -1.49609 1637.31 5.14453C1639.79 11.7201 1643.24 17.4167 1647.66 22.2344C1652.16 27.0521 1657.46 30.763 1663.58 33.3672C1669.7 35.9714 1676.44 37.2734 1683.8 37.2734C1690.18 37.2734 1696.04 36.2969 1701.38 34.3438C1706.71 32.3255 1711.4 29.4609 1715.44 25.75C1719.54 21.974 1722.89 17.4492 1725.5 12.1758C1728.1 6.90234 1729.83 1.04297 1730.67 -5.40234H1684.38V-25.3242H1753.43L1754.11 -15.5586C1754.11 -4.42578 1752.38 5.76302 1748.93 15.0078C1745.55 24.1875 1740.7 32.1628 1734.38 38.9336C1728.07 45.6393 1720.58 50.8151 1711.92 54.4609C1703.26 58.1068 1693.69 59.9297 1683.21 59.9297C1672.4 59.9297 1662.38 58.0091 1653.13 54.168C1643.95 50.3268 1635.91 44.9883 1629.01 38.1523C1622.18 31.2513 1616.84 23.1784 1613 13.9336C1609.22 4.6888 1607.33 -5.36979 1607.33 -16.2422C1607.33 -27.0495 1609.22 -37.0755 1613 -46.3203C1616.84 -55.6302 1622.14 -63.7357 1628.91 -70.6367C1635.75 -77.5378 1643.76 -82.8763 1652.94 -86.6523C1662.18 -90.4935 1672.18 -92.4141 1682.92 -92.4141C1693.14 -92.4141 1702.9 -90.6562 1712.21 -87.1406C1721.59 -83.625 1729.96 -78.5794 1737.31 -72.0039L1720.52 -55.4023ZM1819.83 58.9531C1809.94 58.9531 1801.05 56.7396 1793.17 52.3125C1785.36 47.8854 1779.17 41.8633 1774.62 34.2461C1770.12 26.5638 1767.88 17.8724 1767.88 8.17188C1767.88 -1.52865 1770.12 -10.1875 1774.62 -17.8047C1779.17 -25.487 1785.36 -31.5417 1793.17 -35.9688C1801.05 -40.3958 1809.94 -42.6094 1819.83 -42.6094C1829.79 -42.6094 1838.68 -40.3958 1846.49 -35.9688C1854.3 -31.5417 1860.42 -25.487 1864.85 -17.8047C1869.34 -10.1875 1871.59 -1.52865 1871.59 8.17188C1871.59 17.8724 1869.34 26.5638 1864.85 34.2461C1860.42 41.8633 1854.3 47.8854 1846.49 52.3125C1838.68 56.7396 1829.79 58.9531 1819.83 58.9531ZM1819.73 37.3711C1824.94 37.3711 1829.6 36.1016 1833.7 33.5625C1837.8 31.0234 1841.02 27.5404 1843.37 23.1133C1845.78 18.6862 1846.98 13.6732 1846.98 8.07422C1846.98 2.54036 1845.78 -2.40755 1843.37 -6.76953C1841.02 -11.1966 1837.8 -14.6797 1833.7 -17.2188C1829.6 -19.7578 1824.94 -21.0273 1819.73 -21.0273C1814.59 -21.0273 1809.94 -19.7578 1805.77 -17.2188C1801.67 -14.6797 1798.41 -11.1966 1796 -6.76953C1793.66 -2.40755 1792.49 2.54036 1792.49 8.07422C1792.49 13.6732 1793.66 18.6862 1796 23.1133C1798.41 27.5404 1801.67 31.0234 1805.77 33.5625C1809.94 36.1016 1814.59 37.3711 1819.73 37.3711Z"/>
</mask>
<path d="M-345.598 57V61H-342.689L-341.792 58.2329L-345.598 57ZM-369.035 57L-372.855 58.1857L-371.982 61H-369.035V57ZM-401.164 -46.5156L-397.344 -47.7013L-401.164 -60.0096L-404.984 -47.7013L-401.164 -46.5156ZM-433.293 57V61H-430.346L-429.473 58.1857L-433.293 57ZM-456.73 57L-460.534 58.2375L-459.635 61H-456.73V57ZM-504.387 -89.4844V-93.4844H-509.894L-508.19 -88.2469L-504.387 -89.4844ZM-477.336 -89.4844L-473.515 -90.6683L-474.388 -93.4844H-477.336V-89.4844ZM-445.109 14.5195L-448.93 15.7034L-445.109 28.0341L-441.289 15.7034L-445.109 14.5195ZM-412.883 -89.4844V-93.4844H-415.831L-416.704 -90.6683L-412.883 -89.4844ZM-389.445 -89.4844L-385.624 -90.668L-386.497 -93.4844H-389.445V-89.4844ZM-357.316 14.2266L-361.137 15.4102L-357.316 27.7438L-353.496 15.4102L-357.316 14.2266ZM-325.188 -89.4844V-93.4844H-328.136L-329.008 -90.668L-325.188 -89.4844ZM-298.137 -89.4844L-294.331 -88.2515L-292.636 -93.4844H-298.137V-89.4844ZM-345.598 53H-369.035V61H-345.598V53ZM-365.215 55.8143L-397.344 -47.7013L-404.984 -45.3299L-372.855 58.1857L-365.215 55.8143ZM-404.984 -47.7013L-437.113 55.8143L-429.473 58.1857L-397.344 -45.3299L-404.984 -47.7013ZM-433.293 53H-456.73V61H-433.293V53ZM-452.927 55.7625L-500.583 -90.7219L-508.19 -88.2469L-460.534 58.2375L-452.927 55.7625ZM-504.387 -85.4844H-477.336V-93.4844H-504.387V-85.4844ZM-481.157 -88.3005L-448.93 15.7034L-441.289 13.3356L-473.515 -90.6683L-481.157 -88.3005ZM-441.289 15.7034L-409.062 -88.3005L-416.704 -90.6683L-448.93 13.3356L-441.289 15.7034ZM-412.883 -85.4844H-389.445V-93.4844H-412.883V-85.4844ZM-393.266 -88.3007L-361.137 15.4102L-353.496 13.0429L-385.624 -90.668L-393.266 -88.3007ZM-353.496 15.4102L-321.367 -88.3007L-329.008 -90.668L-361.137 13.0429L-353.496 15.4102ZM-325.188 -85.4844H-298.137V-93.4844H-325.188V-85.4844ZM-301.942 -90.7173L-349.403 55.7671L-341.792 58.2329L-294.331 -88.2515L-301.942 -90.7173ZM-201.75 45.6719L-199.397 48.9068L-196.695 46.9417L-198.148 43.9329L-201.75 45.6719ZM-289.738 33.4648L-293.151 35.5518L-293.144 35.562L-293.138 35.5722L-289.738 33.4648ZM-290.422 -18.5859L-293.857 -20.635L-293.864 -20.6239L-293.87 -20.6127L-290.422 -18.5859ZM-272.355 -36.1641L-274.308 -39.6551L-274.314 -39.6515L-274.321 -39.648L-272.355 -36.1641ZM-220.012 -35.4805L-222.142 -32.0951L-222.125 -32.0844L-222.108 -32.0738L-220.012 -35.4805ZM-202.238 -15.8516L-205.81 -14.0516L-205.805 -14.0405L-202.238 -15.8516ZM-195.891 16.375V20.375H-191.891V16.375H-195.891ZM-271.086 16.375V12.375H-276.283L-274.953 17.3986L-271.086 16.375ZM-264.934 28.0938L-267.958 30.7113L-267.944 30.7277L-267.93 30.744L-264.934 28.0938ZM-253.801 36.0039L-255.37 39.6833L-253.801 36.0039ZM-209.953 28.6797L-206.351 26.9407L-208.484 22.5211L-212.383 25.5023L-209.953 28.6797ZM-272.062 2.3125L-276.032 1.82305L-276.586 6.3125H-272.062V2.3125ZM-218.156 2.3125V6.3125H-213.707L-214.179 1.88824L-218.156 2.3125ZM-222.648 -10.4805L-225.986 -8.27544L-225.972 -8.25487L-225.958 -8.23447L-222.648 -10.4805ZM-232.121 -18.9766L-234.028 -15.4604L-233.993 -15.4413L-233.957 -15.4229L-232.121 -18.9766ZM-267.57 -10.2852L-264.233 -8.08012L-264.224 -8.09367L-264.215 -8.10727L-267.57 -10.2852ZM-204.103 42.4369C-215.624 50.8159 -228.12 54.9531 -241.691 54.9531V62.9531C-226.356 62.9531 -212.225 58.2362 -199.397 48.9068L-204.103 42.4369ZM-241.691 54.9531C-251.573 54.9531 -260.309 52.8107 -267.995 48.6077L-271.833 55.6267C-262.852 60.5382 -252.773 62.9531 -241.691 62.9531V54.9531ZM-267.995 48.6077C-275.737 44.3734 -281.829 38.6326 -286.338 31.3575L-293.138 35.5722C-287.882 44.0523 -280.757 50.7464 -271.833 55.6267L-267.995 48.6077ZM-286.326 31.3779C-290.729 24.178 -292.965 15.9917 -292.965 6.70703H-300.965C-300.965 17.3443 -298.383 26.9964 -293.151 35.5518L-286.326 31.3779ZM-292.965 6.70703C-292.965 -2.09129 -290.94 -9.81004 -286.973 -16.5592L-293.87 -20.6127C-298.628 -12.5181 -300.965 -3.37486 -300.965 6.70703H-292.965ZM-286.987 -16.5368C-282.921 -23.3531 -277.408 -28.7211 -270.39 -32.6801L-274.321 -39.648C-282.537 -35.0133 -289.069 -28.6625 -293.857 -20.635L-286.987 -16.5368ZM-270.403 -32.673C-263.373 -36.6052 -255.397 -38.6094 -246.379 -38.6094V-46.6094C-256.632 -46.6094 -265.974 -44.3167 -274.308 -39.6551L-270.403 -32.673ZM-246.379 -38.6094C-237.011 -38.6094 -228.98 -36.3979 -222.142 -32.0951L-217.881 -38.8659C-226.148 -44.0682 -235.695 -46.6094 -246.379 -46.6094V-38.6094ZM-222.108 -32.0738C-215.155 -27.7952 -209.727 -21.8238 -205.81 -14.0516L-198.666 -17.6515C-203.213 -26.6762 -209.634 -33.7907 -217.915 -38.8871L-222.108 -32.0738ZM-205.805 -14.0405C-201.906 -6.36282 -199.891 2.69636 -199.891 13.25H-191.891C-191.891 1.66823 -194.107 -8.67364 -198.672 -17.6627L-205.805 -14.0405ZM-199.891 13.25V16.375H-191.891V13.25H-199.891ZM-195.891 12.375H-271.086V20.375H-195.891V12.375ZM-274.953 17.3986C-273.629 22.4002 -271.296 26.8548 -267.958 30.7113L-261.909 25.4762C-264.431 22.5619 -266.199 19.204 -267.219 15.3514L-274.953 17.3986ZM-267.93 30.744C-264.516 34.6026 -260.307 37.5778 -255.37 39.6833L-252.232 32.3245C-256.149 30.654 -259.361 28.3557 -261.938 25.4435L-267.93 30.744ZM-255.37 39.6833C-250.378 41.8122 -244.852 42.8359 -238.859 42.8359V34.8359C-243.934 34.8359 -248.369 33.9716 -252.232 32.3245L-255.37 39.6833ZM-238.859 42.8359C-227.501 42.8359 -217.023 39.1216 -207.523 31.8571L-212.383 25.5023C-220.592 31.7794 -229.384 34.8359 -238.859 34.8359V42.8359ZM-213.555 30.4187L-205.352 47.4109L-198.148 43.9329L-206.351 26.9407L-213.555 30.4187ZM-272.062 6.3125H-218.156V-1.6875H-272.062V6.3125ZM-214.179 1.88824C-214.761 -3.5714 -216.455 -8.47746 -219.339 -12.7265L-225.958 -8.23447C-223.894 -5.19181 -222.593 -1.56923 -222.134 2.73676L-214.179 1.88824ZM-219.311 -12.6855C-222.099 -16.9055 -225.775 -20.2002 -230.285 -22.5303L-233.957 -15.4229C-230.654 -13.7164 -228.015 -11.3471 -225.986 -8.27544L-219.311 -12.6855ZM-230.214 -22.4927C-234.699 -24.9252 -239.695 -26.1016 -245.109 -26.1016V-18.1016C-240.888 -18.1016 -237.225 -17.1946 -234.028 -15.4604L-230.214 -22.4927ZM-245.109 -26.1016C-250.579 -26.1016 -255.61 -24.9295 -260.102 -22.4927L-256.288 -15.4604C-253.099 -17.1903 -249.406 -18.1016 -245.109 -18.1016V-26.1016ZM-260.102 -22.4927C-264.538 -20.087 -268.158 -16.7266 -270.925 -12.463L-264.215 -8.10727C-262.165 -11.2656 -259.535 -13.6995 -256.288 -15.4604L-260.102 -22.4927ZM-270.908 -12.4902C-273.689 -8.28105 -275.378 -3.48287 -276.032 1.82305L-268.093 2.80195C-267.575 -1.39734 -266.27 -4.9976 -264.233 -8.08012L-270.908 -12.4902ZM-68.9375 -55.4023L-71.7659 -52.5739L-68.954 -49.762L-66.1257 -52.5574L-68.9375 -55.4023ZM-85.5391 -66.0469L-86.9852 -62.3174L-86.9724 -62.3125L-85.5391 -66.0469ZM-126.164 -65.9492L-127.697 -69.6438L-127.704 -69.6409L-127.711 -69.638L-126.164 -65.9492ZM-141.887 -55.0117L-138.979 -52.2652L-138.969 -52.2752L-138.96 -52.2853L-141.887 -55.0117ZM-152.141 -38.2148L-148.394 -36.8145L-148.389 -36.8268L-152.141 -38.2148ZM-152.141 5.14453L-155.901 6.50854L-155.893 6.53086L-155.884 6.55309L-152.141 5.14453ZM-141.789 22.2344L-144.734 24.9409L-144.725 24.9516L-144.715 24.9622L-141.789 22.2344ZM-88.0781 34.3438L-86.7038 38.1002L-86.6837 38.0929L-86.6636 38.0853L-88.0781 34.3438ZM-74.0156 25.75L-71.3084 28.6947L-71.3064 28.6928L-74.0156 25.75ZM-63.957 12.1758L-67.5435 10.4047L-63.957 12.1758ZM-58.7812 -5.40234L-54.8153 -4.88156L-54.2216 -9.40234H-58.7812V-5.40234ZM-105.07 -5.40234H-109.07V-1.40234H-105.07V-5.40234ZM-105.07 -25.3242V-29.3242H-109.07V-25.3242H-105.07ZM-36.0273 -25.3242L-32.0371 -25.6035L-32.2975 -29.3242H-36.0273V-25.3242ZM-35.3438 -15.5586H-31.3438V-15.6984L-31.3535 -15.8379L-35.3438 -15.5586ZM-40.5195 15.0078L-44.267 13.6091L-44.2697 13.6164L-44.2725 13.6238L-40.5195 15.0078ZM-55.0703 38.9336L-52.1584 41.6759L-52.1517 41.6689L-52.1451 41.6619L-55.0703 38.9336ZM-136.32 54.168L-137.864 57.858L-137.855 57.8618L-136.32 54.168ZM-160.441 38.1523L-163.283 40.9673L-163.27 40.9808L-163.256 40.9941L-160.441 38.1523ZM-176.457 13.9336L-180.16 15.4461L-180.155 15.4572L-180.151 15.4684L-176.457 13.9336ZM-176.457 -46.3203L-180.155 -47.8459L-180.157 -47.8394L-180.16 -47.8328L-176.457 -46.3203ZM-160.539 -70.6367L-163.381 -73.4517L-163.388 -73.4449L-163.394 -73.4381L-160.539 -70.6367ZM-136.516 -86.6523L-134.994 -82.9531L-134.987 -82.9558L-134.981 -82.9585L-136.516 -86.6523ZM-77.2383 -87.1406L-78.6514 -83.3985L-78.6428 -83.3953L-77.2383 -87.1406ZM-52.1406 -72.0039L-49.3288 -69.159L-46.3022 -72.1504L-49.475 -74.9863L-52.1406 -72.0039ZM-66.1091 -58.2308C-71.1499 -63.2716 -77.1669 -67.1179 -84.1057 -69.7812L-86.9724 -62.3125C-81.0206 -60.028 -75.9699 -56.7779 -71.7659 -52.5739L-66.1091 -58.2308ZM-84.093 -69.7763C-90.9598 -72.439 -98.2561 -73.7578 -105.949 -73.7578V-65.7578C-99.1892 -65.7578 -92.8788 -64.6027 -86.9852 -62.3174L-84.093 -69.7763ZM-105.949 -73.7578C-113.774 -73.7578 -121.04 -72.4057 -127.697 -69.6438L-124.631 -62.2546C-119.048 -64.5709 -112.838 -65.7578 -105.949 -65.7578V-73.7578ZM-127.711 -69.638C-134.283 -66.8821 -139.996 -62.9103 -144.814 -57.7381L-138.96 -52.2853C-134.924 -56.6183 -130.155 -59.9383 -124.617 -62.2604L-127.711 -69.638ZM-144.795 -57.7582C-149.619 -52.65 -153.311 -46.5791 -155.892 -39.6029L-148.389 -36.8268C-146.153 -42.8714 -143.008 -47.9984 -138.979 -52.2652L-144.795 -57.7582ZM-155.887 -39.6152C-158.486 -32.6621 -159.754 -25.0178 -159.754 -16.7305H-151.754C-151.754 -24.1983 -150.613 -30.877 -148.394 -36.8145L-155.887 -39.6152ZM-159.754 -16.7305C-159.754 -8.37997 -158.487 -0.620209 -155.901 6.50854L-148.38 3.78052C-150.612 -2.37198 -151.754 -9.19556 -151.754 -16.7305H-159.754ZM-155.884 6.55309C-153.243 13.5727 -149.533 19.7186 -144.734 24.9409L-138.844 19.5279C-142.899 15.1148 -146.09 9.86739 -148.397 3.73598L-155.884 6.55309ZM-144.715 24.9622C-139.837 30.1932 -134.067 34.2268 -127.437 37.0478L-124.305 29.6866C-129.915 27.2993 -134.757 23.911 -138.864 19.5065L-144.715 24.9622ZM-127.437 37.0478C-120.772 39.8841 -113.494 41.2734 -105.656 41.2734V33.2734C-112.532 33.2734 -118.731 32.0586 -124.305 29.6866L-127.437 37.0478ZM-105.656 41.2734C-98.8641 41.2734 -92.5331 40.2329 -86.7038 38.1002L-89.4525 30.5873C-94.3002 32.3608 -99.688 33.2734 -105.656 33.2734V41.2734ZM-86.6636 38.0853C-80.8671 35.8939 -75.7363 32.7654 -71.3084 28.6947L-76.7228 22.8053C-80.3679 26.1564 -84.612 28.7571 -89.4926 30.6022L-86.6636 38.0853ZM-71.3064 28.6928C-66.8232 24.5654 -63.1805 19.637 -60.3705 13.9469L-67.5435 10.4047C-69.942 15.2614 -73.0049 19.3825 -76.7249 22.8072L-71.3064 28.6928ZM-60.3705 13.9469C-57.5529 8.24117 -55.7128 1.95303 -54.8153 -4.88156L-62.7472 -5.92313C-63.5424 0.132912 -65.1529 5.56351 -67.5435 10.4047L-60.3705 13.9469ZM-58.7812 -9.40234H-105.07V-1.40234H-58.7812V-9.40234ZM-101.07 -5.40234V-25.3242H-109.07V-5.40234H-101.07ZM-105.07 -21.3242H-36.0273V-29.3242H-105.07V-21.3242ZM-40.0176 -25.0449L-39.334 -15.2793L-31.3535 -15.8379L-32.0371 -25.6035L-40.0176 -25.0449ZM-39.3438 -15.5586C-39.3438 -4.84264 -41.0035 4.86529 -44.267 13.6091L-36.7721 16.4065C-33.1346 6.66075 -31.3438 -4.00892 -31.3438 -15.5586H-39.3438ZM-44.2725 13.6238C-47.4846 22.3336 -52.0632 29.8449 -57.9955 36.2053L-52.1451 41.6619C-45.4473 34.4806 -40.3253 26.0414 -36.7666 16.3919L-44.2725 13.6238ZM-57.9823 36.1913C-63.9072 42.4826 -70.9282 47.3406 -79.0835 50.7744L-75.979 58.1475C-66.8166 54.2896 -58.8637 48.796 -52.1584 41.6759L-57.9823 36.1913ZM-79.0835 50.7744C-87.1971 54.1907 -96.2318 55.9297 -106.242 55.9297V63.9297C-95.289 63.9297 -85.1831 62.0229 -75.979 58.1475L-79.0835 50.7744ZM-106.242 55.9297C-116.565 55.9297 -126.065 54.0975 -134.786 50.4741L-137.855 57.8618C-128.086 61.9207 -117.534 63.9297 -106.242 63.9297V55.9297ZM-134.776 50.478C-143.494 46.8303 -151.1 41.7758 -157.626 35.3105L-163.256 40.9941C-155.981 48.2008 -147.506 53.8233 -137.864 57.858L-134.776 50.478ZM-157.6 35.3374C-164.06 28.8152 -169.114 21.1807 -172.763 12.3988L-180.151 15.4684C-176.117 25.1761 -170.495 33.6874 -163.283 40.9673L-157.6 35.3374ZM-172.754 12.4211C-176.317 3.69753 -178.121 -5.84214 -178.121 -16.2422H-186.121C-186.121 -4.89744 -184.149 5.68008 -180.16 15.4461L-172.754 12.4211ZM-178.121 -16.2422C-178.121 -26.5738 -176.318 -36.0814 -172.754 -44.8078L-180.16 -47.8328C-184.148 -38.0696 -186.121 -27.5252 -186.121 -16.2422H-178.121ZM-172.759 -44.7947C-169.106 -53.6493 -164.079 -61.3167 -157.684 -67.8354L-163.394 -73.4381C-170.54 -66.1546 -176.126 -57.6111 -180.155 -47.8459L-172.759 -44.7947ZM-157.697 -67.8217C-151.246 -74.3343 -143.69 -79.376 -134.994 -82.9531L-138.037 -90.3516C-147.701 -86.3766 -156.16 -80.7412 -163.381 -73.4517L-157.697 -67.8217ZM-134.981 -82.9585C-126.257 -86.5831 -116.789 -88.4141 -106.535 -88.4141V-96.4141C-117.765 -96.4141 -128.284 -94.4039 -138.05 -90.3462L-134.981 -82.9585ZM-106.535 -88.4141C-96.7832 -88.4141 -87.4974 -86.739 -78.6514 -83.3985L-75.8252 -90.8827C-85.599 -94.5735 -95.8444 -96.4141 -106.535 -96.4141V-88.4141ZM-78.6428 -83.3953C-69.7248 -80.0511 -61.788 -75.2619 -54.8063 -69.0216L-49.475 -74.9863C-57.2068 -81.897 -66.0018 -87.1989 -75.8338 -90.8859L-78.6428 -83.3953ZM-54.9525 -74.8488L-71.7493 -58.2473L-66.1257 -52.5574L-49.3288 -69.159L-54.9525 -74.8488ZM3.71875 52.3125L1.7467 55.7926L1.75287 55.7961L1.75906 55.7996L3.71875 52.3125ZM-14.8359 34.2461L-18.2889 36.2652L-18.2788 36.2825L-18.2685 36.2998L-14.8359 34.2461ZM-14.8359 -17.8047L-18.2762 -19.8455L-18.2814 -19.8366L-14.8359 -17.8047ZM3.71875 -35.9688L1.75906 -39.4558L1.75287 -39.4523L1.7467 -39.4488L3.71875 -35.9688ZM75.3984 -17.8047L71.9327 -15.8075L71.9427 -15.7901L71.953 -15.7728L75.3984 -17.8047ZM75.3984 34.2461L71.9454 32.227L71.9401 32.2361L75.3984 34.2461ZM53.9141 23.1133L50.4005 21.2015L50.3896 21.2215L50.3789 21.2417L53.9141 23.1133ZM53.9141 -6.76953L50.3789 -4.89798L50.3954 -4.86676L50.4125 -4.83584L53.9141 -6.76953ZM16.3164 -17.2188L14.2349 -20.6345L14.2229 -20.6272L14.211 -20.6198L16.3164 -17.2188ZM6.55078 -6.76953L3.03723 -8.68132L3.0322 -8.67207L3.02722 -8.6628L6.55078 -6.76953ZM6.55078 23.1133L3.01562 24.9848L3.02631 25.005L3.03723 25.0251L6.55078 23.1133ZM16.3164 33.5625L14.211 36.9636L14.2229 36.971L14.2349 36.9783L16.3164 33.5625ZM30.3789 54.9531C21.1025 54.9531 12.9019 52.8849 5.67841 48.8254L1.75906 55.7996C10.2909 60.5943 19.8636 62.9531 30.3789 62.9531V54.9531ZM5.6908 48.8324C-1.52704 44.7423 -7.20566 39.2086 -11.4034 32.1924L-18.2685 36.2998C-13.3516 44.5179 -6.66046 51.0285 1.7467 55.7926L5.6908 48.8324ZM-11.3829 32.227C-15.4851 25.2117 -17.5742 17.2286 -17.5742 8.17188H-25.5742C-25.5742 18.5162 -23.1712 27.9159 -18.2889 36.2652L-11.3829 32.227ZM-17.5742 8.17188C-17.5742 -0.885323 -15.485 -8.82986 -11.3905 -15.7728L-18.2814 -19.8366C-23.1713 -11.5451 -25.5742 -2.17197 -25.5742 8.17188H-17.5742ZM-11.3957 -15.7639C-7.19604 -22.8434 -1.51865 -28.4033 5.6908 -32.4887L1.7467 -39.4488C-6.66885 -34.68 -13.3613 -28.1306 -18.2762 -19.8455L-11.3957 -15.7639ZM5.67841 -32.4817C12.9019 -36.5411 21.1025 -38.6094 30.3789 -38.6094V-46.6094C19.8636 -46.6094 10.2909 -44.2506 1.75906 -39.4558L5.67841 -32.4817ZM30.3789 -38.6094C39.7259 -38.6094 47.9197 -36.5388 55.067 -32.4887L59.0111 -39.4488C50.5334 -44.2529 40.9538 -46.6094 30.3789 -46.6094V-38.6094ZM55.067 -32.4887C62.2665 -28.4089 67.8669 -22.8628 71.9327 -15.8075L78.8641 -19.8019C74.0757 -28.1112 67.4366 -34.6744 59.0111 -39.4488L55.067 -32.4887ZM71.953 -15.7728C76.0475 -8.82986 78.1367 -0.885323 78.1367 8.17188H86.1367C86.1367 -2.17197 83.7338 -11.5451 78.8439 -19.8366L71.953 -15.7728ZM78.1367 8.17188C78.1367 17.2286 76.0475 25.2117 71.9454 32.227L78.8514 36.2652C83.7337 27.9159 86.1367 18.5162 86.1367 8.17188H78.1367ZM71.9401 32.2361C67.8765 39.2279 62.275 44.7479 55.067 48.8324L59.0111 55.7926C67.4282 51.0229 74.0662 44.4986 78.8568 36.2561L71.9401 32.2361ZM55.067 48.8324C47.9197 52.8825 39.7259 54.9531 30.3789 54.9531V62.9531C40.9538 62.9531 50.5334 60.5966 59.0111 55.7926L55.067 48.8324ZM30.2812 41.3711C36.1718 41.3711 41.5671 39.9254 46.3515 36.9636L42.1407 30.1614C38.722 32.2778 34.8074 33.3711 30.2812 33.3711V41.3711ZM46.3515 36.9636C51.0808 34.0359 54.7865 30.0145 57.4492 24.9848L50.3789 21.2417C48.3541 25.0663 45.6145 28.011 42.1407 30.1614L46.3515 36.9636ZM57.4276 25.0251C60.1899 19.9484 61.5273 14.2656 61.5273 8.07422H53.5273C53.5273 13.0808 52.4559 17.424 50.4005 21.2015L57.4276 25.0251ZM61.5273 8.07422C61.5273 1.94035 60.1864 -3.68579 57.4156 -8.70322L50.4125 -4.83584C52.4594 -1.12932 53.5273 3.14039 53.5273 8.07422H61.5273ZM57.4492 -8.64108C54.7865 -13.6707 51.0808 -17.6922 46.3515 -20.6198L42.1407 -13.8177C45.6145 -11.6672 48.3541 -8.72253 50.3789 -4.89798L57.4492 -8.64108ZM46.3515 -20.6198C41.5671 -23.5816 36.1718 -25.0273 30.2812 -25.0273V-17.0273C34.8074 -17.0273 38.722 -15.934 42.1407 -13.8177L46.3515 -20.6198ZM30.2812 -25.0273C24.4452 -25.0273 19.0631 -23.5767 14.2349 -20.6345L18.3979 -13.803C21.903 -15.9389 25.8309 -17.0273 30.2812 -17.0273V-25.0273ZM14.211 -20.6198C9.4917 -17.6984 5.7627 -13.6902 3.03723 -8.68132L10.0643 -4.85774C12.1566 -8.70299 14.938 -11.661 18.4218 -13.8177L14.211 -20.6198ZM3.02722 -8.6628C0.335358 -3.65297 -0.964844 1.95856 -0.964844 8.07422H7.03516C7.03516 3.12216 8.07867 -1.16213 10.0743 -4.87627L3.02722 -8.6628ZM-0.964844 8.07422C-0.964844 14.2476 0.332092 19.916 3.01562 24.9848L10.0859 21.2417C8.08197 17.4564 7.03516 13.0987 7.03516 8.07422H-0.964844ZM3.03723 25.0251C5.7627 30.034 9.4917 34.0421 14.211 36.9636L18.4218 30.1614C14.938 28.0048 12.1566 25.0467 10.0643 21.2015L3.03723 25.0251ZM14.2349 36.9783C19.0631 39.9205 24.4452 41.3711 30.2812 41.3711V33.3711C25.8309 33.3711 21.903 32.2827 18.3979 30.1467L14.2349 36.9783ZM250.887 57V61H253.795L254.692 58.2329L250.887 57ZM227.449 57L223.629 58.1857L224.503 61H227.449V57ZM195.32 -46.5156L199.141 -47.7013L195.32 -60.0096L191.5 -47.7013L195.32 -46.5156ZM163.191 57V61H166.138L167.012 58.1857L163.191 57ZM139.754 57L135.95 58.2375L136.849 61H139.754V57ZM92.0977 -89.4844V-93.4844H86.59L88.2939 -88.2469L92.0977 -89.4844ZM119.148 -89.4844L122.969 -90.6683L122.097 -93.4844H119.148V-89.4844ZM151.375 14.5195L147.554 15.7034L151.375 28.0341L155.196 15.7034L151.375 14.5195ZM183.602 -89.4844V-93.4844H180.653L179.781 -90.6683L183.602 -89.4844ZM207.039 -89.4844L210.86 -90.668L209.987 -93.4844H207.039V-89.4844ZM239.168 14.2266L235.347 15.4102L239.168 27.7438L242.989 15.4102L239.168 14.2266ZM271.297 -89.4844V-93.4844H268.349L267.476 -90.668L271.297 -89.4844ZM298.348 -89.4844L302.153 -88.2515L303.848 -93.4844H298.348V-89.4844ZM250.887 53H227.449V61H250.887V53ZM231.269 55.8143L199.141 -47.7013L191.5 -45.3299L223.629 58.1857L231.269 55.8143ZM191.5 -47.7013L159.371 55.8143L167.012 58.1857L199.141 -45.3299L191.5 -47.7013ZM163.191 53H139.754V61H163.191V53ZM143.558 55.7625L95.9014 -90.7219L88.2939 -88.2469L135.95 58.2375L143.558 55.7625ZM92.0977 -85.4844H119.148V-93.4844H92.0977V-85.4844ZM115.328 -88.3005L147.554 15.7034L155.196 13.3356L122.969 -90.6683L115.328 -88.3005ZM155.196 15.7034L187.422 -88.3005L179.781 -90.6683L147.554 13.3356L155.196 15.7034ZM183.602 -85.4844H207.039V-93.4844H183.602V-85.4844ZM203.218 -88.3007L235.347 15.4102L242.989 13.0429L210.86 -90.668L203.218 -88.3007ZM242.989 15.4102L275.118 -88.3007L267.476 -90.668L235.347 13.0429L242.989 15.4102ZM271.297 -85.4844H298.348V-93.4844H271.297V-85.4844ZM294.542 -90.7173L247.081 55.7671L254.692 58.2329L302.153 -88.2515L294.542 -90.7173ZM394.734 45.6719L397.087 48.9068L399.789 46.9417L398.337 43.9329L394.734 45.6719ZM306.746 33.4648L303.334 35.5518L303.34 35.562L303.346 35.5722L306.746 33.4648ZM306.062 -18.5859L302.627 -20.635L302.621 -20.6239L302.614 -20.6127L306.062 -18.5859ZM324.129 -36.1641L322.176 -39.6551L322.17 -39.6515L322.164 -39.648L324.129 -36.1641ZM376.473 -35.4805L374.342 -32.0951L374.359 -32.0844L374.376 -32.0738L376.473 -35.4805ZM394.246 -15.8516L390.674 -14.0516L390.68 -14.0405L394.246 -15.8516ZM400.594 16.375V20.375H404.594V16.375H400.594ZM325.398 16.375V12.375H320.202L321.532 17.3986L325.398 16.375ZM331.551 28.0938L328.526 30.7113L328.54 30.7277L328.555 30.744L331.551 28.0938ZM342.684 36.0039L341.114 39.6833L342.684 36.0039ZM386.531 28.6797L390.133 26.9407L388 22.5211L384.101 25.5023L386.531 28.6797ZM324.422 2.3125L320.452 1.82305L319.898 6.3125H324.422V2.3125ZM378.328 2.3125V6.3125H382.777L382.306 1.88824L378.328 2.3125ZM373.836 -10.4805L370.499 -8.27544L370.512 -8.25487L370.526 -8.23447L373.836 -10.4805ZM364.363 -18.9766L362.456 -15.4604L362.492 -15.4413L362.527 -15.4229L364.363 -18.9766ZM328.914 -10.2852L332.251 -8.08012L332.26 -8.09367L332.269 -8.10727L328.914 -10.2852ZM392.382 42.4369C380.861 50.8159 368.364 54.9531 354.793 54.9531V62.9531C370.128 62.9531 384.259 58.2362 397.087 48.9068L392.382 42.4369ZM354.793 54.9531C344.911 54.9531 336.175 52.8107 328.49 48.6077L324.651 55.6267C333.632 60.5382 343.711 62.9531 354.793 62.9531V54.9531ZM328.49 48.6077C320.747 44.3734 314.655 38.6326 310.146 31.3575L303.346 35.5722C308.602 44.0523 315.727 50.7464 324.651 55.6267L328.49 48.6077ZM310.159 31.3779C305.755 24.178 303.52 15.9917 303.52 6.70703H295.52C295.52 17.3443 298.102 26.9964 303.334 35.5518L310.159 31.3779ZM303.52 6.70703C303.52 -2.09129 305.544 -9.81004 309.511 -16.5592L302.614 -20.6127C297.857 -12.5181 295.52 -3.37486 295.52 6.70703H303.52ZM309.498 -16.5368C313.564 -23.3531 319.076 -28.7211 326.094 -32.6801L322.164 -39.648C313.948 -35.0133 307.416 -28.6625 302.627 -20.635L309.498 -16.5368ZM326.082 -32.673C333.112 -36.6052 341.087 -38.6094 350.105 -38.6094V-46.6094C339.853 -46.6094 330.511 -44.3167 322.176 -39.6551L326.082 -32.673ZM350.105 -38.6094C359.474 -38.6094 367.505 -36.3979 374.342 -32.0951L378.603 -38.8659C370.336 -44.0682 360.789 -46.6094 350.105 -46.6094V-38.6094ZM374.376 -32.0738C381.329 -27.7952 386.758 -21.8238 390.674 -14.0516L397.818 -17.6515C393.271 -26.6762 386.851 -33.7907 378.569 -38.8871L374.376 -32.0738ZM390.68 -14.0405C394.578 -6.36282 396.594 2.69636 396.594 13.25H404.594C404.594 1.66823 402.377 -8.67364 397.813 -17.6627L390.68 -14.0405ZM396.594 13.25V16.375H404.594V13.25H396.594ZM400.594 12.375H325.398V20.375H400.594V12.375ZM321.532 17.3986C322.856 22.4002 325.189 26.8548 328.526 30.7113L334.575 25.4762C332.053 22.5619 330.285 19.204 329.265 15.3514L321.532 17.3986ZM328.555 30.744C331.968 34.6026 336.177 37.5778 341.114 39.6833L344.253 32.3245C340.336 30.654 337.123 28.3557 334.547 25.4435L328.555 30.744ZM341.114 39.6833C346.106 41.8122 351.632 42.8359 357.625 42.8359V34.8359C352.55 34.8359 348.115 33.9716 344.253 32.3245L341.114 39.6833ZM357.625 42.8359C368.983 42.8359 379.461 39.1216 388.961 31.8571L384.101 25.5023C375.893 31.7794 367.1 34.8359 357.625 34.8359V42.8359ZM382.929 30.4187L391.132 47.4109L398.337 43.9329L390.133 26.9407L382.929 30.4187ZM324.422 6.3125H378.328V-1.6875H324.422V6.3125ZM382.306 1.88824C381.723 -3.5714 380.029 -8.47746 377.146 -12.7265L370.526 -8.23447C372.591 -5.19181 373.891 -1.56923 374.351 2.73676L382.306 1.88824ZM377.173 -12.6855C374.385 -16.9055 370.709 -20.2002 366.199 -22.5303L362.527 -15.4229C365.83 -13.7164 368.469 -11.3471 370.499 -8.27544L377.173 -12.6855ZM366.27 -22.4927C361.785 -24.9252 356.789 -26.1016 351.375 -26.1016V-18.1016C355.596 -18.1016 359.259 -17.1946 362.456 -15.4604L366.27 -22.4927ZM351.375 -26.1016C345.906 -26.1016 340.875 -24.9295 336.382 -22.4927L340.196 -15.4604C343.386 -17.1903 347.079 -18.1016 351.375 -18.1016V-26.1016ZM336.382 -22.4927C331.946 -20.087 328.327 -16.7266 325.559 -12.463L332.269 -8.10727C334.319 -11.2656 336.949 -13.6995 340.196 -15.4604L336.382 -22.4927ZM325.577 -12.4902C322.796 -8.28105 321.106 -3.48287 320.452 1.82305L328.392 2.80195C328.91 -1.39734 330.215 -4.9976 332.251 -8.08012L325.577 -12.4902ZM527.547 -55.4023L524.719 -52.5739L527.53 -49.762L530.359 -52.5574L527.547 -55.4023ZM510.945 -66.0469L509.499 -62.3174L509.512 -62.3125L510.945 -66.0469ZM470.32 -65.9492L468.787 -69.6438L468.78 -69.6409L468.773 -69.638L470.32 -65.9492ZM454.598 -55.0117L457.506 -52.2652L457.515 -52.2752L457.525 -52.2853L454.598 -55.0117ZM444.344 -38.2148L448.091 -36.8145L448.095 -36.8268L444.344 -38.2148ZM444.344 5.14453L440.583 6.50854L440.592 6.53086L440.6 6.55309L444.344 5.14453ZM454.695 22.2344L451.75 24.9409L451.76 24.9516L451.77 24.9622L454.695 22.2344ZM508.406 34.3438L509.781 38.1002L509.801 38.0929L509.821 38.0853L508.406 34.3438ZM522.469 25.75L525.176 28.6947L525.178 28.6928L522.469 25.75ZM532.527 12.1758L528.941 10.4047L532.527 12.1758ZM537.703 -5.40234L541.669 -4.88156L542.263 -9.40234H537.703V-5.40234ZM491.414 -5.40234H487.414V-1.40234H491.414V-5.40234ZM491.414 -25.3242V-29.3242H487.414V-25.3242H491.414ZM560.457 -25.3242L564.447 -25.6035L564.187 -29.3242H560.457V-25.3242ZM561.141 -15.5586H565.141V-15.6984L565.131 -15.8379L561.141 -15.5586ZM555.965 15.0078L552.217 13.6091L552.215 13.6164L552.212 13.6238L555.965 15.0078ZM541.414 38.9336L544.326 41.6759L544.333 41.6689L544.339 41.6619L541.414 38.9336ZM460.164 54.168L458.62 57.858L458.629 57.8618L460.164 54.168ZM436.043 38.1523L433.201 40.9673L433.215 40.9808L433.228 40.9941L436.043 38.1523ZM420.027 13.9336L416.324 15.4461L416.329 15.4572L416.333 15.4684L420.027 13.9336ZM420.027 -46.3203L416.33 -47.8459L416.327 -47.8394L416.324 -47.8328L420.027 -46.3203ZM435.945 -70.6367L433.104 -73.4517L433.097 -73.4449L433.09 -73.4381L435.945 -70.6367ZM459.969 -86.6523L461.49 -82.9531L461.497 -82.9558L461.504 -82.9585L459.969 -86.6523ZM519.246 -87.1406L517.833 -83.3985L517.842 -83.3953L519.246 -87.1406ZM544.344 -72.0039L547.156 -69.159L550.182 -72.1504L547.009 -74.9863L544.344 -72.0039ZM530.375 -58.2308C525.334 -63.2716 519.317 -67.1179 512.379 -69.7812L509.512 -62.3125C515.464 -60.028 520.515 -56.7779 524.719 -52.5739L530.375 -58.2308ZM512.391 -69.7763C505.525 -72.439 498.228 -73.7578 490.535 -73.7578V-65.7578C497.295 -65.7578 503.606 -64.6027 509.499 -62.3174L512.391 -69.7763ZM490.535 -73.7578C482.71 -73.7578 475.444 -72.4057 468.787 -69.6438L471.853 -62.2546C477.436 -64.5709 483.646 -65.7578 490.535 -65.7578V-73.7578ZM468.773 -69.638C462.202 -66.8821 456.489 -62.9103 451.671 -57.7381L457.525 -52.2853C461.561 -56.6183 466.33 -59.9383 471.867 -62.2604L468.773 -69.638ZM451.69 -57.7582C446.865 -52.65 443.174 -46.5791 440.592 -39.6029L448.095 -36.8268C450.332 -42.8714 453.476 -47.9984 457.506 -52.2652L451.69 -57.7582ZM440.597 -39.6152C437.998 -32.6621 436.73 -25.0178 436.73 -16.7305H444.73C444.73 -24.1983 445.872 -30.877 448.091 -36.8145L440.597 -39.6152ZM436.73 -16.7305C436.73 -8.37997 437.998 -0.620209 440.583 6.50854L448.104 3.78052C445.872 -2.37198 444.73 -9.19556 444.73 -16.7305H436.73ZM440.6 6.55309C443.241 13.5727 446.951 19.7186 451.75 24.9409L457.641 19.5279C453.585 15.1148 450.394 9.86739 448.088 3.73598L440.6 6.55309ZM451.77 24.9622C456.647 30.1932 462.418 34.2268 469.047 37.0478L472.18 29.6866C466.569 27.2993 461.728 23.911 457.621 19.5065L451.77 24.9622ZM469.047 37.0478C475.712 39.8841 482.99 41.2734 490.828 41.2734V33.2734C483.952 33.2734 477.754 32.0586 472.18 29.6866L469.047 37.0478ZM490.828 41.2734C497.62 41.2734 503.951 40.2329 509.781 38.1002L507.032 30.5873C502.184 32.3608 496.796 33.2734 490.828 33.2734V41.2734ZM509.821 38.0853C515.617 35.8939 520.748 32.7654 525.176 28.6947L519.762 22.8053C516.116 26.1564 511.872 28.7571 506.992 30.6022L509.821 38.0853ZM525.178 28.6928C529.661 24.5654 533.304 19.637 536.114 13.9469L528.941 10.4047C526.542 15.2614 523.479 19.3825 519.76 22.8072L525.178 28.6928ZM536.114 13.9469C538.932 8.24117 540.772 1.95303 541.669 -4.88156L533.737 -5.92313C532.942 0.132912 531.332 5.56351 528.941 10.4047L536.114 13.9469ZM537.703 -9.40234H491.414V-1.40234H537.703V-9.40234ZM495.414 -5.40234V-25.3242H487.414V-5.40234H495.414ZM491.414 -21.3242H560.457V-29.3242H491.414V-21.3242ZM556.467 -25.0449L557.15 -15.2793L565.131 -15.8379L564.447 -25.6035L556.467 -25.0449ZM557.141 -15.5586C557.141 -4.84264 555.481 4.86529 552.217 13.6091L559.712 16.4065C563.35 6.66075 565.141 -4.00892 565.141 -15.5586H557.141ZM552.212 13.6238C549 22.3336 544.421 29.8449 538.489 36.2053L544.339 41.6619C551.037 34.4806 556.159 26.0414 559.718 16.3919L552.212 13.6238ZM538.502 36.1913C532.577 42.4826 525.556 47.3406 517.401 50.7744L520.505 58.1475C529.668 54.2896 537.621 48.796 544.326 41.6759L538.502 36.1913ZM517.401 50.7744C509.287 54.1907 500.253 55.9297 490.242 55.9297V63.9297C501.195 63.9297 511.301 62.0229 520.505 58.1475L517.401 50.7744ZM490.242 55.9297C479.919 55.9297 470.42 54.0975 461.699 50.4741L458.629 57.8618C468.398 61.9207 478.95 63.9297 490.242 63.9297V55.9297ZM461.708 50.478C452.991 46.8303 445.385 41.7758 438.858 35.3105L433.228 40.9941C440.503 48.2008 448.978 53.8233 458.62 57.858L461.708 50.478ZM438.885 35.3374C432.424 28.8152 427.37 21.1807 423.721 12.3988L416.333 15.4684C420.367 25.1761 425.99 33.6874 433.201 40.9673L438.885 35.3374ZM423.73 12.4211C420.167 3.69753 418.363 -5.84214 418.363 -16.2422H410.363C410.363 -4.89744 412.335 5.68008 416.324 15.4461L423.73 12.4211ZM418.363 -16.2422C418.363 -26.5738 420.166 -36.0814 423.73 -44.8078L416.324 -47.8328C412.337 -38.0696 410.363 -27.5252 410.363 -16.2422H418.363ZM423.725 -44.7947C427.378 -53.6493 432.405 -61.3167 438.801 -67.8354L433.09 -73.4381C425.944 -66.1546 420.359 -57.6111 416.33 -47.8459L423.725 -44.7947ZM438.787 -67.8217C445.238 -74.3343 452.794 -79.376 461.49 -82.9531L458.447 -90.3516C448.784 -86.3766 440.324 -80.7412 433.104 -73.4517L438.787 -67.8217ZM461.504 -82.9585C470.227 -86.5831 479.695 -88.4141 489.949 -88.4141V-96.4141C478.719 -96.4141 468.2 -94.4039 458.434 -90.3462L461.504 -82.9585ZM489.949 -88.4141C499.701 -88.4141 508.987 -86.739 517.833 -83.3985L520.659 -90.8827C510.885 -94.5735 500.64 -96.4141 489.949 -96.4141V-88.4141ZM517.842 -83.3953C526.76 -80.0511 534.696 -75.2619 541.678 -69.0216L547.009 -74.9863C539.278 -81.897 530.483 -87.1989 520.651 -90.8859L517.842 -83.3953ZM541.532 -74.8488L524.735 -58.2473L530.359 -52.5574L547.156 -69.159L541.532 -74.8488ZM600.203 52.3125L598.231 55.7926L598.237 55.7961L598.243 55.7996L600.203 52.3125ZM581.648 34.2461L578.195 36.2652L578.206 36.2825L578.216 36.2998L581.648 34.2461ZM581.648 -17.8047L578.208 -19.8455L578.203 -19.8366L581.648 -17.8047ZM600.203 -35.9688L598.243 -39.4558L598.237 -39.4523L598.231 -39.4488L600.203 -35.9688ZM671.883 -17.8047L668.417 -15.8075L668.427 -15.7901L668.437 -15.7728L671.883 -17.8047ZM671.883 34.2461L668.43 32.227L668.424 32.2361L671.883 34.2461ZM650.398 23.1133L646.885 21.2015L646.874 21.2215L646.863 21.2417L650.398 23.1133ZM650.398 -6.76953L646.863 -4.89798L646.88 -4.86676L646.897 -4.83584L650.398 -6.76953ZM612.801 -17.2188L610.719 -20.6345L610.707 -20.6272L610.695 -20.6198L612.801 -17.2188ZM603.035 -6.76953L599.522 -8.68132L599.517 -8.67207L599.512 -8.6628L603.035 -6.76953ZM603.035 23.1133L599.5 24.9848L599.511 25.005L599.522 25.0251L603.035 23.1133ZM612.801 33.5625L610.695 36.9636L610.707 36.971L610.719 36.9783L612.801 33.5625ZM626.863 54.9531C617.587 54.9531 609.386 52.8849 602.163 48.8254L598.243 55.7996C606.775 60.5943 616.348 62.9531 626.863 62.9531V54.9531ZM602.175 48.8324C594.957 44.7423 589.279 39.2086 585.081 32.1924L578.216 36.2998C583.133 44.5179 589.824 51.0285 598.231 55.7926L602.175 48.8324ZM585.101 32.227C580.999 25.2117 578.91 17.2286 578.91 8.17188H570.91C570.91 18.5162 573.313 27.9159 578.195 36.2652L585.101 32.227ZM578.91 8.17188C578.91 -0.885323 580.999 -8.82986 585.094 -15.7728L578.203 -19.8366C573.313 -11.5451 570.91 -2.17197 570.91 8.17188H578.91ZM585.089 -15.7639C589.288 -22.8434 594.966 -28.4033 602.175 -32.4887L598.231 -39.4488C589.816 -34.68 583.123 -28.1306 578.208 -19.8455L585.089 -15.7639ZM602.163 -32.4817C609.386 -36.5411 617.587 -38.6094 626.863 -38.6094V-46.6094C616.348 -46.6094 606.775 -44.2506 598.243 -39.4558L602.163 -32.4817ZM626.863 -38.6094C636.21 -38.6094 644.404 -36.5388 651.551 -32.4887L655.495 -39.4488C647.018 -44.2529 637.438 -46.6094 626.863 -46.6094V-38.6094ZM651.551 -32.4887C658.751 -28.4089 664.351 -22.8628 668.417 -15.8075L675.349 -19.8019C670.56 -28.1112 663.921 -34.6744 655.495 -39.4488L651.551 -32.4887ZM668.437 -15.7728C672.532 -8.82986 674.621 -0.885323 674.621 8.17188H682.621C682.621 -2.17197 680.218 -11.5451 675.328 -19.8366L668.437 -15.7728ZM674.621 8.17188C674.621 17.2286 672.532 25.2117 668.43 32.227L675.336 36.2652C680.218 27.9159 682.621 18.5162 682.621 8.17188H674.621ZM668.424 32.2361C664.361 39.2279 658.759 44.7479 651.551 48.8324L655.495 55.7926C663.912 51.0229 670.551 44.4986 675.341 36.2561L668.424 32.2361ZM651.551 48.8324C644.404 52.8825 636.21 54.9531 626.863 54.9531V62.9531C637.438 62.9531 647.018 60.5966 655.495 55.7926L651.551 48.8324ZM626.766 41.3711C632.656 41.3711 638.051 39.9254 642.836 36.9636L638.625 30.1614C635.206 32.2778 631.292 33.3711 626.766 33.3711V41.3711ZM642.836 36.9636C647.565 34.0359 651.271 30.0145 653.934 24.9848L646.863 21.2417C644.839 25.0663 642.099 28.011 638.625 30.1614L642.836 36.9636ZM653.912 25.0251C656.674 19.9484 658.012 14.2656 658.012 8.07422H650.012C650.012 13.0808 648.94 17.424 646.885 21.2015L653.912 25.0251ZM658.012 8.07422C658.012 1.94035 656.671 -3.68579 653.9 -8.70322L646.897 -4.83584C648.944 -1.12932 650.012 3.14039 650.012 8.07422H658.012ZM653.934 -8.64108C651.271 -13.6707 647.565 -17.6922 642.836 -20.6198L638.625 -13.8177C642.099 -11.6672 644.839 -8.72253 646.863 -4.89798L653.934 -8.64108ZM642.836 -20.6198C638.051 -23.5816 632.656 -25.0273 626.766 -25.0273V-17.0273C631.292 -17.0273 635.206 -15.934 638.625 -13.8177L642.836 -20.6198ZM626.766 -25.0273C620.93 -25.0273 615.547 -23.5767 610.719 -20.6345L614.882 -13.803C618.387 -15.9389 622.315 -17.0273 626.766 -17.0273V-25.0273ZM610.695 -20.6198C605.976 -17.6984 602.247 -13.6902 599.522 -8.68132L606.549 -4.85774C608.641 -8.70299 611.422 -11.661 614.906 -13.8177L610.695 -20.6198ZM599.512 -8.6628C596.82 -3.65297 595.52 1.95856 595.52 8.07422H603.52C603.52 3.12216 604.563 -1.16213 606.559 -4.87627L599.512 -8.6628ZM595.52 8.07422C595.52 14.2476 596.817 19.916 599.5 24.9848L606.57 21.2417C604.566 17.4564 603.52 13.0987 603.52 8.07422H595.52ZM599.522 25.0251C602.247 30.034 605.976 34.0421 610.695 36.9636L614.906 30.1614C611.422 28.0048 608.641 25.0467 606.549 21.2015L599.522 25.0251ZM610.719 36.9783C615.547 39.9205 620.93 41.3711 626.766 41.3711V33.3711C622.315 33.3711 618.387 32.2827 614.882 30.1467L610.719 36.9783ZM847.371 57V61H850.28L851.176 58.2329L847.371 57ZM823.934 57L820.113 58.1857L820.987 61H823.934V57ZM791.805 -46.5156L795.625 -47.7013L791.805 -60.0096L787.984 -47.7013L791.805 -46.5156ZM759.676 57V61H762.623L763.496 58.1857L759.676 57ZM736.238 57L732.435 58.2375L733.333 61H736.238V57ZM688.582 -89.4844V-93.4844H683.074L684.778 -88.2469L688.582 -89.4844ZM715.633 -89.4844L719.454 -90.6683L718.581 -93.4844H715.633V-89.4844ZM747.859 14.5195L744.039 15.7034L747.859 28.0341L751.68 15.7034L747.859 14.5195ZM780.086 -89.4844V-93.4844H777.138L776.265 -90.6683L780.086 -89.4844ZM803.523 -89.4844L807.344 -90.668L806.472 -93.4844H803.523V-89.4844ZM835.652 14.2266L831.832 15.4102L835.652 27.7438L839.473 15.4102L835.652 14.2266ZM867.781 -89.4844V-93.4844H864.833L863.96 -90.668L867.781 -89.4844ZM894.832 -89.4844L898.637 -88.2515L900.333 -93.4844H894.832V-89.4844ZM847.371 53H823.934V61H847.371V53ZM827.754 55.8143L795.625 -47.7013L787.984 -45.3299L820.113 58.1857L827.754 55.8143ZM787.984 -47.7013L755.856 55.8143L763.496 58.1857L795.625 -45.3299L787.984 -47.7013ZM759.676 53H736.238V61H759.676V53ZM740.042 55.7625L692.386 -90.7219L684.778 -88.2469L732.435 58.2375L740.042 55.7625ZM688.582 -85.4844H715.633V-93.4844H688.582V-85.4844ZM711.812 -88.3005L744.039 15.7034L751.68 13.3356L719.454 -90.6683L711.812 -88.3005ZM751.68 15.7034L783.907 -88.3005L776.265 -90.6683L744.039 13.3356L751.68 15.7034ZM780.086 -85.4844H803.523V-93.4844H780.086V-85.4844ZM799.703 -88.3007L831.832 15.4102L839.473 13.0429L807.344 -90.668L799.703 -88.3007ZM839.473 15.4102L871.602 -88.3007L863.96 -90.668L831.832 13.0429L839.473 15.4102ZM867.781 -85.4844H894.832V-93.4844H867.781V-85.4844ZM891.027 -90.7173L843.566 55.7671L851.176 58.2329L898.637 -88.2515L891.027 -90.7173ZM991.219 45.6719L993.571 48.9068L996.273 46.9417L994.821 43.9329L991.219 45.6719ZM903.23 33.4648L899.818 35.5518L899.824 35.562L899.831 35.5722L903.23 33.4648ZM902.547 -18.5859L899.112 -20.635L899.105 -20.6239L899.098 -20.6127L902.547 -18.5859ZM920.613 -36.1641L918.661 -39.6551L918.654 -39.6515L918.648 -39.648L920.613 -36.1641ZM972.957 -35.4805L970.827 -32.0951L970.844 -32.0844L970.861 -32.0738L972.957 -35.4805ZM990.73 -15.8516L987.158 -14.0516L987.164 -14.0405L990.73 -15.8516ZM997.078 16.375V20.375H1001.08V16.375H997.078ZM921.883 16.375V12.375H916.686L918.016 17.3986L921.883 16.375ZM928.035 28.0938L925.01 30.7113L925.025 30.7277L925.039 30.744L928.035 28.0938ZM939.168 36.0039L937.599 39.6833L939.168 36.0039ZM983.016 28.6797L986.618 26.9407L984.484 22.5211L980.586 25.5023L983.016 28.6797ZM920.906 2.3125L916.936 1.82305L916.383 6.3125H920.906V2.3125ZM974.812 2.3125V6.3125H979.262L978.79 1.88824L974.812 2.3125ZM970.32 -10.4805L966.983 -8.27544L966.997 -8.25487L967.01 -8.23447L970.32 -10.4805ZM960.848 -18.9766L958.941 -15.4604L958.976 -15.4413L959.012 -15.4229L960.848 -18.9766ZM925.398 -10.2852L928.736 -8.08012L928.745 -8.09367L928.754 -8.10727L925.398 -10.2852ZM988.866 42.4369C977.345 50.8159 964.848 54.9531 951.277 54.9531V62.9531C966.613 62.9531 980.744 58.2362 993.571 48.9068L988.866 42.4369ZM951.277 54.9531C941.395 54.9531 932.66 52.8107 924.974 48.6077L921.135 55.6267C930.117 60.5382 940.196 62.9531 951.277 62.9531V54.9531ZM924.974 48.6077C917.231 44.3734 911.14 38.6326 906.63 31.3575L899.831 35.5722C905.087 44.0523 912.211 50.7464 921.135 55.6267L924.974 48.6077ZM906.643 31.3779C902.24 24.178 900.004 15.9917 900.004 6.70703H892.004C892.004 17.3443 894.586 26.9964 899.818 35.5518L906.643 31.3779ZM900.004 6.70703C900.004 -2.09129 902.029 -9.81004 905.995 -16.5592L899.098 -20.6127C894.341 -12.5181 892.004 -3.37486 892.004 6.70703H900.004ZM905.982 -16.5368C910.048 -23.3531 915.56 -28.7211 922.579 -32.6801L918.648 -39.648C910.432 -35.0133 903.9 -28.6625 899.112 -20.635L905.982 -16.5368ZM922.566 -32.673C929.596 -36.6052 937.572 -38.6094 946.59 -38.6094V-46.6094C936.337 -46.6094 926.995 -44.3167 918.661 -39.6551L922.566 -32.673ZM946.59 -38.6094C955.958 -38.6094 963.989 -36.3979 970.827 -32.0951L975.088 -38.8659C966.821 -44.0682 957.274 -46.6094 946.59 -46.6094V-38.6094ZM970.861 -32.0738C977.813 -27.7952 983.242 -21.8238 987.158 -14.0516L994.303 -17.6515C989.755 -26.6762 983.335 -33.7907 975.053 -38.8871L970.861 -32.0738ZM987.164 -14.0405C991.063 -6.36282 993.078 2.69636 993.078 13.25H1001.08C1001.08 1.66823 998.862 -8.67364 994.297 -17.6627L987.164 -14.0405ZM993.078 13.25V16.375H1001.08V13.25H993.078ZM997.078 12.375H921.883V20.375H997.078V12.375ZM918.016 17.3986C919.34 22.4002 921.673 26.8548 925.01 30.7113L931.06 25.4762C928.538 22.5619 926.769 19.204 925.75 15.3514L918.016 17.3986ZM925.039 30.744C928.453 34.6026 932.662 37.5778 937.599 39.6833L940.737 32.3245C936.82 30.654 933.607 28.3557 931.031 25.4435L925.039 30.744ZM937.599 39.6833C942.591 41.8122 948.116 42.8359 954.109 42.8359V34.8359C949.035 34.8359 944.599 33.9716 940.737 32.3245L937.599 39.6833ZM954.109 42.8359C965.468 42.8359 975.946 39.1216 985.445 31.8571L980.586 25.5023C972.377 31.7794 963.584 34.8359 954.109 34.8359V42.8359ZM979.413 30.4187L987.617 47.4109L994.821 43.9329L986.618 26.9407L979.413 30.4187ZM920.906 6.3125H974.812V-1.6875H920.906V6.3125ZM978.79 1.88824C978.208 -3.5714 976.513 -8.47746 973.63 -12.7265L967.01 -8.23447C969.075 -5.19181 970.376 -1.56923 970.835 2.73676L978.79 1.88824ZM973.658 -12.6855C970.869 -16.9055 967.193 -20.2002 962.684 -22.5303L959.012 -15.4229C962.314 -13.7164 964.953 -11.3471 966.983 -8.27544L973.658 -12.6855ZM962.755 -22.4927C958.27 -24.9252 953.273 -26.1016 947.859 -26.1016V-18.1016C952.081 -18.1016 955.743 -17.1946 958.941 -15.4604L962.755 -22.4927ZM947.859 -26.1016C942.39 -26.1016 937.359 -24.9295 932.866 -22.4927L936.681 -15.4604C939.87 -17.1903 943.563 -18.1016 947.859 -18.1016V-26.1016ZM932.866 -22.4927C928.431 -20.087 924.811 -16.7266 922.043 -12.463L928.754 -8.10727C930.804 -11.2656 933.434 -13.6995 936.681 -15.4604L932.866 -22.4927ZM922.061 -12.4902C919.28 -8.28105 917.59 -3.48287 916.936 1.82305L924.876 2.80195C925.394 -1.39734 926.699 -4.9976 928.736 -8.08012L922.061 -12.4902ZM1124.03 -55.4023L1121.2 -52.5739L1124.01 -49.762L1126.84 -52.5574L1124.03 -55.4023ZM1107.43 -66.0469L1105.98 -62.3174L1106 -62.3125L1107.43 -66.0469ZM1066.8 -65.9492L1065.27 -69.6438L1065.26 -69.6409L1065.26 -69.638L1066.8 -65.9492ZM1051.08 -55.0117L1053.99 -52.2652L1054 -52.2752L1054.01 -52.2853L1051.08 -55.0117ZM1040.83 -38.2148L1044.58 -36.8145L1044.58 -36.8268L1040.83 -38.2148ZM1040.83 5.14453L1037.07 6.50854L1037.08 6.53086L1037.08 6.55309L1040.83 5.14453ZM1051.18 22.2344L1048.23 24.9409L1048.24 24.9516L1048.25 24.9622L1051.18 22.2344ZM1104.89 34.3438L1106.26 38.1002L1106.29 38.0929L1106.31 38.0853L1104.89 34.3438ZM1118.95 25.75L1121.66 28.6947L1121.66 28.6928L1118.95 25.75ZM1129.01 12.1758L1125.43 10.4047L1129.01 12.1758ZM1134.19 -5.40234L1138.15 -4.88156L1138.75 -9.40234H1134.19V-5.40234ZM1087.9 -5.40234H1083.9V-1.40234H1087.9V-5.40234ZM1087.9 -25.3242V-29.3242H1083.9V-25.3242H1087.9ZM1156.94 -25.3242L1160.93 -25.6035L1160.67 -29.3242H1156.94V-25.3242ZM1157.62 -15.5586H1161.62V-15.6984L1161.62 -15.8379L1157.62 -15.5586ZM1152.45 15.0078L1148.7 13.6091L1148.7 13.6164L1148.7 13.6238L1152.45 15.0078ZM1137.9 38.9336L1140.81 41.6759L1140.82 41.6689L1140.82 41.6619L1137.9 38.9336ZM1056.65 54.168L1055.1 57.858L1055.11 57.8618L1056.65 54.168ZM1032.53 38.1523L1029.69 40.9673L1029.7 40.9808L1029.71 40.9941L1032.53 38.1523ZM1016.51 13.9336L1012.81 15.4461L1012.81 15.4572L1012.82 15.4684L1016.51 13.9336ZM1016.51 -46.3203L1012.81 -47.8459L1012.81 -47.8394L1012.81 -47.8328L1016.51 -46.3203ZM1032.43 -70.6367L1029.59 -73.4517L1029.58 -73.4449L1029.57 -73.4381L1032.43 -70.6367ZM1056.45 -86.6523L1057.97 -82.9531L1057.98 -82.9558L1057.99 -82.9585L1056.45 -86.6523ZM1115.73 -87.1406L1114.32 -83.3985L1114.33 -83.3953L1115.73 -87.1406ZM1140.83 -72.0039L1143.64 -69.159L1146.67 -72.1504L1143.49 -74.9863L1140.83 -72.0039ZM1126.86 -58.2308C1121.82 -63.2716 1115.8 -67.1179 1108.86 -69.7812L1106 -62.3125C1111.95 -60.028 1117 -56.7779 1121.2 -52.5739L1126.86 -58.2308ZM1108.88 -69.7763C1102.01 -72.439 1094.71 -73.7578 1087.02 -73.7578V-65.7578C1093.78 -65.7578 1100.09 -64.6027 1105.98 -62.3174L1108.88 -69.7763ZM1087.02 -73.7578C1079.19 -73.7578 1071.93 -72.4057 1065.27 -69.6438L1068.34 -62.2546C1073.92 -64.5709 1080.13 -65.7578 1087.02 -65.7578V-73.7578ZM1065.26 -69.638C1058.69 -66.8821 1052.97 -62.9103 1048.16 -57.7381L1054.01 -52.2853C1058.05 -56.6183 1062.81 -59.9383 1068.35 -62.2604L1065.26 -69.638ZM1048.17 -57.7582C1043.35 -52.65 1039.66 -46.5791 1037.08 -39.6029L1044.58 -36.8268C1046.82 -42.8714 1049.96 -47.9984 1053.99 -52.2652L1048.17 -57.7582ZM1037.08 -39.6152C1034.48 -32.6621 1033.21 -25.0178 1033.21 -16.7305H1041.21C1041.21 -24.1983 1042.36 -30.877 1044.57 -36.8145L1037.08 -39.6152ZM1033.21 -16.7305C1033.21 -8.37997 1034.48 -0.620209 1037.07 6.50854L1044.59 3.78052C1042.36 -2.37198 1041.21 -9.19556 1041.21 -16.7305H1033.21ZM1037.08 6.55309C1039.73 13.5727 1043.44 19.7186 1048.23 24.9409L1054.12 19.5279C1050.07 15.1148 1046.88 9.86739 1044.57 3.73598L1037.08 6.55309ZM1048.25 24.9622C1053.13 30.1932 1058.9 34.2268 1065.53 37.0478L1068.66 29.6866C1063.05 27.2993 1058.21 23.911 1054.11 19.5065L1048.25 24.9622ZM1065.53 37.0478C1072.2 39.8841 1079.47 41.2734 1087.31 41.2734V33.2734C1080.44 33.2734 1074.24 32.0586 1068.66 29.6866L1065.53 37.0478ZM1087.31 41.2734C1094.1 41.2734 1100.44 40.2329 1106.26 38.1002L1103.52 30.5873C1098.67 32.3608 1093.28 33.2734 1087.31 33.2734V41.2734ZM1106.31 38.0853C1112.1 35.8939 1117.23 32.7654 1121.66 28.6947L1116.25 22.8053C1112.6 26.1564 1108.36 28.7571 1103.48 30.6022L1106.31 38.0853ZM1121.66 28.6928C1126.15 24.5654 1129.79 19.637 1132.6 13.9469L1125.43 10.4047C1123.03 15.2614 1119.96 19.3825 1116.24 22.8072L1121.66 28.6928ZM1132.6 13.9469C1135.42 8.24117 1137.26 1.95303 1138.15 -4.88156L1130.22 -5.92313C1129.43 0.132912 1127.82 5.56351 1125.43 10.4047L1132.6 13.9469ZM1134.19 -9.40234H1087.9V-1.40234H1134.19V-9.40234ZM1091.9 -5.40234V-25.3242H1083.9V-5.40234H1091.9ZM1087.9 -21.3242H1156.94V-29.3242H1087.9V-21.3242ZM1152.95 -25.0449L1153.63 -15.2793L1161.62 -15.8379L1160.93 -25.6035L1152.95 -25.0449ZM1153.62 -15.5586C1153.62 -4.84264 1151.97 4.86529 1148.7 13.6091L1156.2 16.4065C1159.83 6.66075 1161.62 -4.00892 1161.62 -15.5586H1153.62ZM1148.7 13.6238C1145.48 22.3336 1140.91 29.8449 1134.97 36.2053L1140.82 41.6619C1147.52 34.4806 1152.64 26.0414 1156.2 16.3919L1148.7 13.6238ZM1134.99 36.1913C1129.06 42.4826 1122.04 47.3406 1113.89 50.7744L1116.99 58.1475C1126.15 54.2896 1134.11 48.796 1140.81 41.6759L1134.99 36.1913ZM1113.89 50.7744C1105.77 54.1907 1096.74 55.9297 1086.73 55.9297V63.9297C1097.68 63.9297 1107.79 62.0229 1116.99 58.1475L1113.89 50.7744ZM1086.73 55.9297C1076.4 55.9297 1066.9 54.0975 1058.18 50.4741L1055.11 57.8618C1064.88 61.9207 1075.43 63.9297 1086.73 63.9297V55.9297ZM1058.19 50.478C1049.48 46.8303 1041.87 41.7758 1035.34 35.3105L1029.71 40.9941C1036.99 48.2008 1045.46 53.8233 1055.1 57.858L1058.19 50.478ZM1035.37 35.3374C1028.91 28.8152 1023.85 21.1807 1020.21 12.3988L1012.82 15.4684C1016.85 25.1761 1022.47 33.6874 1029.69 40.9673L1035.37 35.3374ZM1020.21 12.4211C1016.65 3.69753 1014.85 -5.84214 1014.85 -16.2422H1006.85C1006.85 -4.89744 1008.82 5.68008 1012.81 15.4461L1020.21 12.4211ZM1014.85 -16.2422C1014.85 -26.5738 1016.65 -36.0814 1020.21 -44.8078L1012.81 -47.8328C1008.82 -38.0696 1006.85 -27.5252 1006.85 -16.2422H1014.85ZM1020.21 -44.7947C1023.86 -53.6493 1028.89 -61.3167 1035.28 -67.8354L1029.57 -73.4381C1022.43 -66.1546 1016.84 -57.6111 1012.81 -47.8459L1020.21 -44.7947ZM1035.27 -67.8217C1041.72 -74.3343 1049.28 -79.376 1057.97 -82.9531L1054.93 -90.3516C1045.27 -86.3766 1036.81 -80.7412 1029.59 -73.4517L1035.27 -67.8217ZM1057.99 -82.9585C1066.71 -86.5831 1076.18 -88.4141 1086.43 -88.4141V-96.4141C1075.2 -96.4141 1064.68 -94.4039 1054.92 -90.3462L1057.99 -82.9585ZM1086.43 -88.4141C1096.19 -88.4141 1105.47 -86.739 1114.32 -83.3985L1117.14 -90.8827C1107.37 -94.5735 1097.12 -96.4141 1086.43 -96.4141V-88.4141ZM1114.33 -83.3953C1123.24 -80.0511 1131.18 -75.2619 1138.16 -69.0216L1143.49 -74.9863C1135.76 -81.897 1126.97 -87.1989 1117.14 -90.8859L1114.33 -83.3953ZM1138.02 -74.8488L1121.22 -58.2473L1126.84 -52.5574L1143.64 -69.159L1138.02 -74.8488ZM1196.69 52.3125L1194.72 55.7926L1194.72 55.7961L1194.73 55.7996L1196.69 52.3125ZM1178.13 34.2461L1174.68 36.2652L1174.69 36.2825L1174.7 36.2998L1178.13 34.2461ZM1178.13 -17.8047L1174.69 -19.8455L1174.69 -19.8366L1178.13 -17.8047ZM1196.69 -35.9688L1194.73 -39.4558L1194.72 -39.4523L1194.72 -39.4488L1196.69 -35.9688ZM1268.37 -17.8047L1264.9 -15.8075L1264.91 -15.7901L1264.92 -15.7728L1268.37 -17.8047ZM1268.37 34.2461L1264.91 32.227L1264.91 32.2361L1268.37 34.2461ZM1246.88 23.1133L1243.37 21.2015L1243.36 21.2215L1243.35 21.2417L1246.88 23.1133ZM1246.88 -6.76953L1243.35 -4.89798L1243.36 -4.86676L1243.38 -4.83584L1246.88 -6.76953ZM1209.29 -17.2188L1207.2 -20.6345L1207.19 -20.6272L1207.18 -20.6198L1209.29 -17.2188ZM1199.52 -6.76953L1196.01 -8.68132L1196 -8.67207L1196 -8.6628L1199.52 -6.76953ZM1199.52 23.1133L1195.98 24.9848L1196 25.005L1196.01 25.0251L1199.52 23.1133ZM1209.29 33.5625L1207.18 36.9636L1207.19 36.971L1207.2 36.9783L1209.29 33.5625ZM1223.35 54.9531C1214.07 54.9531 1205.87 52.8849 1198.65 48.8254L1194.73 55.7996C1203.26 60.5943 1212.83 62.9531 1223.35 62.9531V54.9531ZM1198.66 48.8324C1191.44 44.7423 1185.76 39.2086 1181.57 32.1924L1174.7 36.2998C1179.62 44.5179 1186.31 51.0285 1194.72 55.7926L1198.66 48.8324ZM1181.59 32.227C1177.48 25.2117 1175.39 17.2286 1175.39 8.17188H1167.39C1167.39 18.5162 1169.8 27.9159 1174.68 36.2652L1181.59 32.227ZM1175.39 8.17188C1175.39 -0.885323 1177.48 -8.82986 1181.58 -15.7728L1174.69 -19.8366C1169.8 -11.5451 1167.39 -2.17197 1167.39 8.17188H1175.39ZM1181.57 -15.7639C1185.77 -22.8434 1191.45 -28.4033 1198.66 -32.4887L1194.72 -39.4488C1186.3 -34.68 1179.61 -28.1306 1174.69 -19.8455L1181.57 -15.7639ZM1198.65 -32.4817C1205.87 -36.5411 1214.07 -38.6094 1223.35 -38.6094V-46.6094C1212.83 -46.6094 1203.26 -44.2506 1194.73 -39.4558L1198.65 -32.4817ZM1223.35 -38.6094C1232.69 -38.6094 1240.89 -36.5388 1248.04 -32.4887L1251.98 -39.4488C1243.5 -44.2529 1233.92 -46.6094 1223.35 -46.6094V-38.6094ZM1248.04 -32.4887C1255.24 -28.4089 1260.84 -22.8628 1264.9 -15.8075L1271.83 -19.8019C1267.04 -28.1112 1260.41 -34.6744 1251.98 -39.4488L1248.04 -32.4887ZM1264.92 -15.7728C1269.02 -8.82986 1271.11 -0.885323 1271.11 8.17188H1279.11C1279.11 -2.17197 1276.7 -11.5451 1271.81 -19.8366L1264.92 -15.7728ZM1271.11 8.17188C1271.11 17.2286 1269.02 25.2117 1264.91 32.227L1271.82 36.2652C1276.7 27.9159 1279.11 18.5162 1279.11 8.17188H1271.11ZM1264.91 32.2361C1260.85 39.2279 1255.24 44.7479 1248.04 48.8324L1251.98 55.7926C1260.4 51.0229 1267.03 44.4986 1271.83 36.2561L1264.91 32.2361ZM1248.04 48.8324C1240.89 52.8825 1232.69 54.9531 1223.35 54.9531V62.9531C1233.92 62.9531 1243.5 60.5966 1251.98 55.7926L1248.04 48.8324ZM1223.25 41.3711C1229.14 41.3711 1234.54 39.9254 1239.32 36.9636L1235.11 30.1614C1231.69 32.2778 1227.78 33.3711 1223.25 33.3711V41.3711ZM1239.32 36.9636C1244.05 34.0359 1247.76 30.0145 1250.42 24.9848L1243.35 21.2417C1241.32 25.0663 1238.58 28.011 1235.11 30.1614L1239.32 36.9636ZM1250.4 25.0251C1253.16 19.9484 1254.5 14.2656 1254.5 8.07422H1246.5C1246.5 13.0808 1245.42 17.424 1243.37 21.2015L1250.4 25.0251ZM1254.5 8.07422C1254.5 1.94035 1253.16 -3.68579 1250.38 -8.70322L1243.38 -4.83584C1245.43 -1.12932 1246.5 3.14039 1246.5 8.07422H1254.5ZM1250.42 -8.64108C1247.76 -13.6707 1244.05 -17.6922 1239.32 -20.6198L1235.11 -13.8177C1238.58 -11.6672 1241.32 -8.72253 1243.35 -4.89798L1250.42 -8.64108ZM1239.32 -20.6198C1234.54 -23.5816 1229.14 -25.0273 1223.25 -25.0273V-17.0273C1227.78 -17.0273 1231.69 -15.934 1235.11 -13.8177L1239.32 -20.6198ZM1223.25 -25.0273C1217.41 -25.0273 1212.03 -23.5767 1207.2 -20.6345L1211.37 -13.803C1214.87 -15.9389 1218.8 -17.0273 1223.25 -17.0273V-25.0273ZM1207.18 -20.6198C1202.46 -17.6984 1198.73 -13.6902 1196.01 -8.68132L1203.03 -4.85774C1205.13 -8.70299 1207.91 -11.661 1211.39 -13.8177L1207.18 -20.6198ZM1196 -8.6628C1193.3 -3.65297 1192 1.95856 1192 8.07422H1200C1200 3.12216 1201.05 -1.16213 1203.04 -4.87627L1196 -8.6628ZM1192 8.07422C1192 14.2476 1193.3 19.916 1195.98 24.9848L1203.05 21.2417C1201.05 17.4564 1200 13.0987 1200 8.07422H1192ZM1196.01 25.0251C1198.73 30.034 1202.46 34.0421 1207.18 36.9636L1211.39 30.1614C1207.91 28.0048 1205.13 25.0467 1203.03 21.2015L1196.01 25.0251ZM1207.2 36.9783C1212.03 39.9205 1217.41 41.3711 1223.25 41.3711V33.3711C1218.8 33.3711 1214.87 32.2827 1211.37 30.1467L1207.2 36.9783ZM1443.86 57V61H1446.76L1447.66 58.2329L1443.86 57ZM1420.42 57L1416.6 58.1857L1417.47 61H1420.42V57ZM1388.29 -46.5156L1392.11 -47.7013L1388.29 -60.0096L1384.47 -47.7013L1388.29 -46.5156ZM1356.16 57V61H1359.11L1359.98 58.1857L1356.16 57ZM1332.72 57L1328.92 58.2375L1329.82 61H1332.72V57ZM1285.07 -89.4844V-93.4844H1279.56L1281.26 -88.2469L1285.07 -89.4844ZM1312.12 -89.4844L1315.94 -90.6683L1315.07 -93.4844H1312.12V-89.4844ZM1344.34 14.5195L1340.52 15.7034L1344.34 28.0341L1348.16 15.7034L1344.34 14.5195ZM1376.57 -89.4844V-93.4844H1373.62L1372.75 -90.6683L1376.57 -89.4844ZM1400.01 -89.4844L1403.83 -90.668L1402.96 -93.4844H1400.01V-89.4844ZM1432.14 14.2266L1428.32 15.4102L1432.14 27.7438L1435.96 15.4102L1432.14 14.2266ZM1464.27 -89.4844V-93.4844H1461.32L1460.44 -90.668L1464.27 -89.4844ZM1491.32 -89.4844L1495.12 -88.2515L1496.82 -93.4844H1491.32V-89.4844ZM1443.86 53H1420.42V61H1443.86V53ZM1424.24 55.8143L1392.11 -47.7013L1384.47 -45.3299L1416.6 58.1857L1424.24 55.8143ZM1384.47 -47.7013L1352.34 55.8143L1359.98 58.1857L1392.11 -45.3299L1384.47 -47.7013ZM1356.16 53H1332.72V61H1356.16V53ZM1336.53 55.7625L1288.87 -90.7219L1281.26 -88.2469L1328.92 58.2375L1336.53 55.7625ZM1285.07 -85.4844H1312.12V-93.4844H1285.07V-85.4844ZM1308.3 -88.3005L1340.52 15.7034L1348.16 13.3356L1315.94 -90.6683L1308.3 -88.3005ZM1348.16 15.7034L1380.39 -88.3005L1372.75 -90.6683L1340.52 13.3356L1348.16 15.7034ZM1376.57 -85.4844H1400.01V-93.4844H1376.57V-85.4844ZM1396.19 -88.3007L1428.32 15.4102L1435.96 13.0429L1403.83 -90.668L1396.19 -88.3007ZM1435.96 15.4102L1468.09 -88.3007L1460.44 -90.668L1428.32 13.0429L1435.96 15.4102ZM1464.27 -85.4844H1491.32V-93.4844H1464.27V-85.4844ZM1487.51 -90.7173L1440.05 55.7671L1447.66 58.2329L1495.12 -88.2515L1487.51 -90.7173ZM1587.7 45.6719L1590.06 48.9068L1592.76 46.9417L1591.31 43.9329L1587.7 45.6719ZM1499.71 33.4648L1496.3 35.5518L1496.31 35.562L1496.31 35.5722L1499.71 33.4648ZM1499.03 -18.5859L1495.6 -20.635L1495.59 -20.6239L1495.58 -20.6127L1499.03 -18.5859ZM1517.1 -36.1641L1515.15 -39.6551L1515.14 -39.6515L1515.13 -39.648L1517.1 -36.1641ZM1569.44 -35.4805L1567.31 -32.0951L1567.33 -32.0844L1567.34 -32.0738L1569.44 -35.4805ZM1587.21 -15.8516L1583.64 -14.0516L1583.65 -14.0405L1587.21 -15.8516ZM1593.56 16.375V20.375H1597.56V16.375H1593.56ZM1518.37 16.375V12.375H1513.17L1514.5 17.3986L1518.37 16.375ZM1524.52 28.0938L1521.49 30.7113L1521.51 30.7277L1521.52 30.744L1524.52 28.0938ZM1535.65 36.0039L1534.08 39.6833L1535.65 36.0039ZM1579.5 28.6797L1583.1 26.9407L1580.97 22.5211L1577.07 25.5023L1579.5 28.6797ZM1517.39 2.3125L1513.42 1.82305L1512.87 6.3125H1517.39V2.3125ZM1571.3 2.3125V6.3125H1575.75L1575.27 1.88824L1571.3 2.3125ZM1566.8 -10.4805L1563.47 -8.27544L1563.48 -8.25487L1563.49 -8.23447L1566.8 -10.4805ZM1557.33 -18.9766L1555.43 -15.4604L1555.46 -15.4413L1555.5 -15.4229L1557.33 -18.9766ZM1521.88 -10.2852L1525.22 -8.08012L1525.23 -8.09367L1525.24 -8.10727L1521.88 -10.2852ZM1585.35 42.4369C1573.83 50.8159 1561.33 54.9531 1547.76 54.9531V62.9531C1563.1 62.9531 1577.23 58.2362 1590.06 48.9068L1585.35 42.4369ZM1547.76 54.9531C1537.88 54.9531 1529.14 52.8107 1521.46 48.6077L1517.62 55.6267C1526.6 60.5382 1536.68 62.9531 1547.76 62.9531V54.9531ZM1521.46 48.6077C1513.72 44.3734 1507.62 38.6326 1503.11 31.3575L1496.31 35.5722C1501.57 44.0523 1508.7 50.7464 1517.62 55.6267L1521.46 48.6077ZM1503.13 31.3779C1498.72 24.178 1496.49 15.9917 1496.49 6.70703H1488.49C1488.49 17.3443 1491.07 26.9964 1496.3 35.5518L1503.13 31.3779ZM1496.49 6.70703C1496.49 -2.09129 1498.51 -9.81004 1502.48 -16.5592L1495.58 -20.6127C1490.83 -12.5181 1488.49 -3.37486 1488.49 6.70703H1496.49ZM1502.47 -16.5368C1506.53 -23.3531 1512.04 -28.7211 1519.06 -32.6801L1515.13 -39.648C1506.92 -35.0133 1500.38 -28.6625 1495.6 -20.635L1502.47 -16.5368ZM1519.05 -32.673C1526.08 -36.6052 1534.06 -38.6094 1543.07 -38.6094V-46.6094C1532.82 -46.6094 1523.48 -44.3167 1515.15 -39.6551L1519.05 -32.673ZM1543.07 -38.6094C1552.44 -38.6094 1560.47 -36.3979 1567.31 -32.0951L1571.57 -38.8659C1563.31 -44.0682 1553.76 -46.6094 1543.07 -46.6094V-38.6094ZM1567.34 -32.0738C1574.3 -27.7952 1579.73 -21.8238 1583.64 -14.0516L1590.79 -17.6515C1586.24 -26.6762 1579.82 -33.7907 1571.54 -38.8871L1567.34 -32.0738ZM1583.65 -14.0405C1587.55 -6.36282 1589.56 2.69636 1589.56 13.25H1597.56C1597.56 1.66823 1595.35 -8.67364 1590.78 -17.6627L1583.65 -14.0405ZM1589.56 13.25V16.375H1597.56V13.25H1589.56ZM1593.56 12.375H1518.37V20.375H1593.56V12.375ZM1514.5 17.3986C1515.82 22.4002 1518.16 26.8548 1521.49 30.7113L1527.54 25.4762C1525.02 22.5619 1523.25 19.204 1522.23 15.3514L1514.5 17.3986ZM1521.52 30.744C1524.94 34.6026 1529.15 37.5778 1534.08 39.6833L1537.22 32.3245C1533.3 30.654 1530.09 28.3557 1527.52 25.4435L1521.52 30.744ZM1534.08 39.6833C1539.08 41.8122 1544.6 42.8359 1550.59 42.8359V34.8359C1545.52 34.8359 1541.08 33.9716 1537.22 32.3245L1534.08 39.6833ZM1550.59 42.8359C1561.95 42.8359 1572.43 39.1216 1581.93 31.8571L1577.07 25.5023C1568.86 31.7794 1560.07 34.8359 1550.59 34.8359V42.8359ZM1575.9 30.4187L1584.1 47.4109L1591.31 43.9329L1583.1 26.9407L1575.9 30.4187ZM1517.39 6.3125H1571.3V-1.6875H1517.39V6.3125ZM1575.27 1.88824C1574.69 -3.5714 1573 -8.47746 1570.11 -12.7265L1563.49 -8.23447C1565.56 -5.19181 1566.86 -1.56923 1567.32 2.73676L1575.27 1.88824ZM1570.14 -12.6855C1567.35 -16.9055 1563.68 -20.2002 1559.17 -22.5303L1555.5 -15.4229C1558.8 -13.7164 1561.44 -11.3471 1563.47 -8.27544L1570.14 -12.6855ZM1559.24 -22.4927C1554.75 -24.9252 1549.76 -26.1016 1544.34 -26.1016V-18.1016C1548.57 -18.1016 1552.23 -17.1946 1555.43 -15.4604L1559.24 -22.4927ZM1544.34 -26.1016C1538.87 -26.1016 1533.84 -24.9295 1529.35 -22.4927L1533.16 -15.4604C1536.35 -17.1903 1540.05 -18.1016 1544.34 -18.1016V-26.1016ZM1529.35 -22.4927C1524.92 -20.087 1521.3 -16.7266 1518.53 -12.463L1525.24 -8.10727C1527.29 -11.2656 1529.92 -13.6995 1533.16 -15.4604L1529.35 -22.4927ZM1518.55 -12.4902C1515.76 -8.28105 1514.07 -3.48287 1513.42 1.82305L1521.36 2.80195C1521.88 -1.39734 1523.18 -4.9976 1525.22 -8.08012L1518.55 -12.4902ZM1720.52 -55.4023L1717.69 -52.5739L1720.5 -49.762L1723.33 -52.5574L1720.52 -55.4023ZM1703.91 -66.0469L1702.47 -62.3174L1702.48 -62.3125L1703.91 -66.0469ZM1663.29 -65.9492L1661.76 -69.6438L1661.75 -69.6409L1661.74 -69.638L1663.29 -65.9492ZM1647.57 -55.0117L1650.47 -52.2652L1650.48 -52.2752L1650.49 -52.2853L1647.57 -55.0117ZM1637.31 -38.2148L1641.06 -36.8145L1641.06 -36.8268L1637.31 -38.2148ZM1637.31 5.14453L1633.55 6.50854L1633.56 6.53086L1633.57 6.55309L1637.31 5.14453ZM1647.66 22.2344L1644.72 24.9409L1644.73 24.9516L1644.74 24.9622L1647.66 22.2344ZM1701.38 34.3438L1702.75 38.1002L1702.77 38.0929L1702.79 38.0853L1701.38 34.3438ZM1715.44 25.75L1718.14 28.6947L1718.15 28.6928L1715.44 25.75ZM1725.5 12.1758L1721.91 10.4047L1725.5 12.1758ZM1730.67 -5.40234L1734.64 -4.88156L1735.23 -9.40234H1730.67V-5.40234ZM1684.38 -5.40234H1680.38V-1.40234H1684.38V-5.40234ZM1684.38 -25.3242V-29.3242H1680.38V-25.3242H1684.38ZM1753.43 -25.3242L1757.42 -25.6035L1757.16 -29.3242H1753.43V-25.3242ZM1754.11 -15.5586H1758.11V-15.6984L1758.1 -15.8379L1754.11 -15.5586ZM1748.93 15.0078L1745.19 13.6091L1745.18 13.6164L1745.18 13.6238L1748.93 15.0078ZM1734.38 38.9336L1737.29 41.6759L1737.3 41.6689L1737.31 41.6619L1734.38 38.9336ZM1653.13 54.168L1651.59 57.858L1651.6 57.8618L1653.13 54.168ZM1629.01 38.1523L1626.17 40.9673L1626.18 40.9808L1626.2 40.9941L1629.01 38.1523ZM1613 13.9336L1609.29 15.4461L1609.3 15.4572L1609.3 15.4684L1613 13.9336ZM1613 -46.3203L1609.3 -47.8459L1609.3 -47.8394L1609.29 -47.8328L1613 -46.3203ZM1628.91 -70.6367L1626.07 -73.4517L1626.07 -73.4449L1626.06 -73.4381L1628.91 -70.6367ZM1652.94 -86.6523L1654.46 -82.9531L1654.47 -82.9558L1654.47 -82.9585L1652.94 -86.6523ZM1712.21 -87.1406L1710.8 -83.3985L1710.81 -83.3953L1712.21 -87.1406ZM1737.31 -72.0039L1740.12 -69.159L1743.15 -72.1504L1739.98 -74.9863L1737.31 -72.0039ZM1723.34 -58.2308C1718.3 -63.2716 1712.29 -67.1179 1705.35 -69.7812L1702.48 -62.3125C1708.43 -60.028 1713.48 -56.7779 1717.69 -52.5739L1723.34 -58.2308ZM1705.36 -69.7763C1698.49 -72.439 1691.2 -73.7578 1683.5 -73.7578V-65.7578C1690.26 -65.7578 1696.57 -64.6027 1702.47 -62.3174L1705.36 -69.7763ZM1683.5 -73.7578C1675.68 -73.7578 1668.41 -72.4057 1661.76 -69.6438L1664.82 -62.2546C1670.4 -64.5709 1676.61 -65.7578 1683.5 -65.7578V-73.7578ZM1661.74 -69.638C1655.17 -66.8821 1649.46 -62.9103 1644.64 -57.7381L1650.49 -52.2853C1654.53 -56.6183 1659.3 -59.9383 1664.84 -62.2604L1661.74 -69.638ZM1644.66 -57.7582C1639.83 -52.65 1636.14 -46.5791 1633.56 -39.6029L1641.06 -36.8268C1643.3 -42.8714 1646.44 -47.9984 1650.47 -52.2652L1644.66 -57.7582ZM1633.57 -39.6152C1630.97 -32.6621 1629.7 -25.0178 1629.7 -16.7305H1637.7C1637.7 -24.1983 1638.84 -30.877 1641.06 -36.8145L1633.57 -39.6152ZM1629.7 -16.7305C1629.7 -8.37997 1630.97 -0.620209 1633.55 6.50854L1641.07 3.78052C1638.84 -2.37198 1637.7 -9.19556 1637.7 -16.7305H1629.7ZM1633.57 6.55309C1636.21 13.5727 1639.92 19.7186 1644.72 24.9409L1650.61 19.5279C1646.55 15.1148 1643.36 9.86739 1641.06 3.73598L1633.57 6.55309ZM1644.74 24.9622C1649.62 30.1932 1655.39 34.2268 1662.02 37.0478L1665.15 29.6866C1659.54 27.2993 1654.7 23.911 1650.59 19.5065L1644.74 24.9622ZM1662.02 37.0478C1668.68 39.8841 1675.96 41.2734 1683.8 41.2734V33.2734C1676.92 33.2734 1670.72 32.0586 1665.15 29.6866L1662.02 37.0478ZM1683.8 41.2734C1690.59 41.2734 1696.92 40.2329 1702.75 38.1002L1700 30.5873C1695.15 32.3608 1689.77 33.2734 1683.8 33.2734V41.2734ZM1702.79 38.0853C1708.59 35.8939 1713.72 32.7654 1718.14 28.6947L1712.73 22.8053C1709.09 26.1564 1704.84 28.7571 1699.96 30.6022L1702.79 38.0853ZM1718.15 28.6928C1722.63 24.5654 1726.27 19.637 1729.08 13.9469L1721.91 10.4047C1719.51 15.2614 1716.45 19.3825 1712.73 22.8072L1718.15 28.6928ZM1729.08 13.9469C1731.9 8.24117 1733.74 1.95303 1734.64 -4.88156L1726.71 -5.92313C1725.91 0.132912 1724.3 5.56351 1721.91 10.4047L1729.08 13.9469ZM1730.67 -9.40234H1684.38V-1.40234H1730.67V-9.40234ZM1688.38 -5.40234V-25.3242H1680.38V-5.40234H1688.38ZM1684.38 -21.3242H1753.43V-29.3242H1684.38V-21.3242ZM1749.44 -25.0449L1750.12 -15.2793L1758.1 -15.8379L1757.42 -25.6035L1749.44 -25.0449ZM1750.11 -15.5586C1750.11 -4.84264 1748.45 4.86529 1745.19 13.6091L1752.68 16.4065C1756.32 6.66075 1758.11 -4.00892 1758.11 -15.5586H1750.11ZM1745.18 13.6238C1741.97 22.3336 1737.39 29.8449 1731.46 36.2053L1737.31 41.6619C1744.01 34.4806 1749.13 26.0414 1752.69 16.3919L1745.18 13.6238ZM1731.47 36.1913C1725.55 42.4826 1718.52 47.3406 1710.37 50.7744L1713.47 58.1475C1722.64 54.2896 1730.59 48.796 1737.29 41.6759L1731.47 36.1913ZM1710.37 50.7744C1702.26 54.1907 1693.22 55.9297 1683.21 55.9297V63.9297C1694.16 63.9297 1704.27 62.0229 1713.47 58.1475L1710.37 50.7744ZM1683.21 55.9297C1672.89 55.9297 1663.39 54.0975 1654.67 50.4741L1651.6 57.8618C1661.37 61.9207 1671.92 63.9297 1683.21 63.9297V55.9297ZM1654.68 50.478C1645.96 46.8303 1638.35 41.7758 1631.83 35.3105L1626.2 40.9941C1633.47 48.2008 1641.95 53.8233 1651.59 57.858L1654.68 50.478ZM1631.85 35.3374C1625.39 28.8152 1620.34 21.1807 1616.69 12.3988L1609.3 15.4684C1613.34 25.1761 1618.96 33.6874 1626.17 40.9673L1631.85 35.3374ZM1616.7 12.4211C1613.14 3.69753 1611.33 -5.84214 1611.33 -16.2422H1603.33C1603.33 -4.89744 1605.3 5.68008 1609.29 15.4461L1616.7 12.4211ZM1611.33 -16.2422C1611.33 -26.5738 1613.13 -36.0814 1616.7 -44.8078L1609.29 -47.8328C1605.31 -38.0696 1603.33 -27.5252 1603.33 -16.2422H1611.33ZM1616.69 -44.7947C1620.35 -53.6493 1625.37 -61.3167 1631.77 -67.8354L1626.06 -73.4381C1618.91 -66.1546 1613.33 -57.6111 1609.3 -47.8459L1616.69 -44.7947ZM1631.76 -67.8217C1638.21 -74.3343 1645.76 -79.376 1654.46 -82.9531L1651.42 -90.3516C1641.75 -86.3766 1633.29 -80.7412 1626.07 -73.4517L1631.76 -67.8217ZM1654.47 -82.9585C1663.2 -86.5831 1672.66 -88.4141 1682.92 -88.4141V-96.4141C1671.69 -96.4141 1661.17 -94.4039 1651.4 -90.3462L1654.47 -82.9585ZM1682.92 -88.4141C1692.67 -88.4141 1701.96 -86.739 1710.8 -83.3985L1713.63 -90.8827C1703.85 -94.5735 1693.61 -96.4141 1682.92 -96.4141V-88.4141ZM1710.81 -83.3953C1719.73 -80.0511 1727.67 -75.2619 1734.65 -69.0216L1739.98 -74.9863C1732.25 -81.897 1723.45 -87.1989 1713.62 -90.8859L1710.81 -83.3953ZM1734.5 -74.8488L1717.7 -58.2473L1723.33 -52.5574L1740.12 -69.159L1734.5 -74.8488ZM1793.17 52.3125L1791.2 55.7926L1791.21 55.7961L1791.21 55.7996L1793.17 52.3125ZM1774.62 34.2461L1771.16 36.2652L1771.17 36.2825L1771.18 36.2998L1774.62 34.2461ZM1774.62 -17.8047L1771.18 -19.8455L1771.17 -19.8366L1774.62 -17.8047ZM1793.17 -35.9688L1791.21 -39.4558L1791.21 -39.4523L1791.2 -39.4488L1793.17 -35.9688ZM1864.85 -17.8047L1861.39 -15.8075L1861.4 -15.7901L1861.41 -15.7728L1864.85 -17.8047ZM1864.85 34.2461L1861.4 32.227L1861.39 32.2361L1864.85 34.2461ZM1843.37 23.1133L1839.85 21.2015L1839.84 21.2215L1839.83 21.2417L1843.37 23.1133ZM1843.37 -6.76953L1839.83 -4.89798L1839.85 -4.86676L1839.87 -4.83584L1843.37 -6.76953ZM1805.77 -17.2188L1803.69 -20.6345L1803.68 -20.6272L1803.66 -20.6198L1805.77 -17.2188ZM1796 -6.76953L1792.49 -8.68132L1792.49 -8.67207L1792.48 -8.6628L1796 -6.76953ZM1796 23.1133L1792.47 24.9848L1792.48 25.005L1792.49 25.0251L1796 23.1133ZM1805.77 33.5625L1803.66 36.9636L1803.68 36.971L1803.69 36.9783L1805.77 33.5625ZM1819.83 54.9531C1810.56 54.9531 1802.35 52.8849 1795.13 48.8254L1791.21 55.7996C1799.74 60.5943 1809.32 62.9531 1819.83 62.9531V54.9531ZM1795.14 48.8324C1787.93 44.7423 1782.25 39.2086 1778.05 32.1924L1771.18 36.2998C1776.1 44.5179 1782.79 51.0285 1791.2 55.7926L1795.14 48.8324ZM1778.07 32.227C1773.97 25.2117 1771.88 17.2286 1771.88 8.17188H1763.88C1763.88 18.5162 1766.28 27.9159 1771.16 36.2652L1778.07 32.227ZM1771.88 8.17188C1771.88 -0.885323 1773.97 -8.82986 1778.06 -15.7728L1771.17 -19.8366C1766.28 -11.5451 1763.88 -2.17197 1763.88 8.17188H1771.88ZM1778.06 -15.7639C1782.26 -22.8434 1787.93 -28.4033 1795.14 -32.4887L1791.2 -39.4488C1782.78 -34.68 1776.09 -28.1306 1771.18 -19.8455L1778.06 -15.7639ZM1795.13 -32.4817C1802.35 -36.5411 1810.56 -38.6094 1819.83 -38.6094V-46.6094C1809.32 -46.6094 1799.74 -44.2506 1791.21 -39.4558L1795.13 -32.4817ZM1819.83 -38.6094C1829.18 -38.6094 1837.37 -36.5388 1844.52 -32.4887L1848.46 -39.4488C1839.99 -44.2529 1830.41 -46.6094 1819.83 -46.6094V-38.6094ZM1844.52 -32.4887C1851.72 -28.4089 1857.32 -22.8628 1861.39 -15.8075L1868.32 -19.8019C1863.53 -28.1112 1856.89 -34.6744 1848.46 -39.4488L1844.52 -32.4887ZM1861.41 -15.7728C1865.5 -8.82986 1867.59 -0.885323 1867.59 8.17188H1875.59C1875.59 -2.17197 1873.19 -11.5451 1868.3 -19.8366L1861.41 -15.7728ZM1867.59 8.17188C1867.59 17.2286 1865.5 25.2117 1861.4 32.227L1868.3 36.2652C1873.19 27.9159 1875.59 18.5162 1875.59 8.17188H1867.59ZM1861.39 32.2361C1857.33 39.2279 1851.73 44.7479 1844.52 48.8324L1848.46 55.7926C1856.88 51.0229 1863.52 44.4986 1868.31 36.2561L1861.39 32.2361ZM1844.52 48.8324C1837.37 52.8825 1829.18 54.9531 1819.83 54.9531V62.9531C1830.41 62.9531 1839.99 60.5966 1848.46 55.7926L1844.52 48.8324ZM1819.73 41.3711C1825.62 41.3711 1831.02 39.9254 1835.8 36.9636L1831.59 30.1614C1828.18 32.2778 1824.26 33.3711 1819.73 33.3711V41.3711ZM1835.8 36.9636C1840.53 34.0359 1844.24 30.0145 1846.9 24.9848L1839.83 21.2417C1837.81 25.0663 1835.07 28.011 1831.59 30.1614L1835.8 36.9636ZM1846.88 25.0251C1849.64 19.9484 1850.98 14.2656 1850.98 8.07422H1842.98C1842.98 13.0808 1841.91 17.424 1839.85 21.2015L1846.88 25.0251ZM1850.98 8.07422C1850.98 1.94035 1849.64 -3.68579 1846.87 -8.70322L1839.87 -4.83584C1841.91 -1.12932 1842.98 3.14039 1842.98 8.07422H1850.98ZM1846.9 -8.64108C1844.24 -13.6707 1840.53 -17.6922 1835.8 -20.6198L1831.59 -13.8177C1835.07 -11.6672 1837.81 -8.72253 1839.83 -4.89798L1846.9 -8.64108ZM1835.8 -20.6198C1831.02 -23.5816 1825.62 -25.0273 1819.73 -25.0273V-17.0273C1824.26 -17.0273 1828.18 -15.934 1831.59 -13.8177L1835.8 -20.6198ZM1819.73 -25.0273C1813.9 -25.0273 1808.52 -23.5767 1803.69 -20.6345L1807.85 -13.803C1811.36 -15.9389 1815.28 -17.0273 1819.73 -17.0273V-25.0273ZM1803.66 -20.6198C1798.94 -17.6984 1795.22 -13.6902 1792.49 -8.68132L1799.52 -4.85774C1801.61 -8.70299 1804.39 -11.661 1807.88 -13.8177L1803.66 -20.6198ZM1792.48 -8.6628C1789.79 -3.65297 1788.49 1.95856 1788.49 8.07422H1796.49C1796.49 3.12216 1797.53 -1.16213 1799.53 -4.87627L1792.48 -8.6628ZM1788.49 8.07422C1788.49 14.2476 1789.79 19.916 1792.47 24.9848L1799.54 21.2417C1797.54 17.4564 1796.49 13.0987 1796.49 8.07422H1788.49ZM1792.49 25.0251C1795.22 30.034 1798.94 34.0421 1803.66 36.9636L1807.88 30.1614C1804.39 28.0048 1801.61 25.0467 1799.52 21.2015L1792.49 25.0251ZM1803.69 36.9783C1808.52 39.9205 1813.9 41.3711 1819.73 41.3711V33.3711C1815.28 33.3711 1811.36 32.2827 1807.85 30.1467L1803.69 36.9783Z" fill="#D4D9EE" mask="url(#path-1-outside-1_1_8)"/>
</g>
<defs>
<clipPath id="clip0_1_8">
<rect width="1536" height="729.6" fill="white"/>
</clipPath>
</defs>
</svg>
