<svg width="1557" height="574" viewBox="0 0 1557 574" fill="none" xmlns="http://www.w3.org/2000/svg">
<path d="M27.9232 241.245C29.9743 239.194 29.9743 235.869 27.9232 233.818C25.8722 231.767 22.5468 231.767 20.4957 233.818C18.4447 235.869 18.4447 239.194 20.4957 241.245C22.5468 243.296 25.8722 243.296 27.9232 241.245Z" fill="#344CB7" fill-opacity="0.43"/>
<path d="M81.6205 294.943C83.7388 292.825 83.7387 289.39 81.6204 287.272C79.5021 285.153 76.0677 285.153 73.9494 287.272C71.8311 289.39 71.8311 292.825 73.9494 294.943C76.0677 297.061 79.5022 297.061 81.6205 294.943Z" fill="#344CB7" fill-opacity="0.43"/>
<path d="M135.318 348.64C137.503 346.455 137.503 342.911 135.318 340.726C133.132 338.54 129.589 338.54 127.403 340.726C125.218 342.911 125.218 346.455 127.403 348.64C129.589 350.826 133.132 350.826 135.318 348.64Z" fill="#344CB7" fill-opacity="0.43"/>
<path d="M201.008 356.311C203.126 354.193 203.126 350.758 201.008 348.64C198.89 346.522 195.455 346.522 193.337 348.64C191.219 350.758 191.219 354.193 193.337 356.311C195.455 358.43 198.89 358.429 201.008 356.311Z" fill="#344CB7" fill-opacity="0.43"/>
<path d="M254.462 409.765C256.513 407.714 256.513 404.388 254.462 402.337C252.411 400.286 249.085 400.286 247.034 402.337C244.983 404.388 244.983 407.714 247.034 409.765C249.085 411.816 252.411 411.816 254.462 409.765Z" fill="#344CB7" fill-opacity="0.43"/>
<path d="M307.916 463.219C309.899 461.235 309.899 458.019 307.916 456.035C305.932 454.051 302.715 454.051 300.732 456.035C298.748 458.019 298.748 461.235 300.732 463.219C302.715 465.202 305.932 465.203 307.916 463.219Z" fill="#344CB7" fill-opacity="0.43"/>
<path d="M28.9582 135.129C31.5808 132.507 31.5808 128.255 28.9582 125.632C26.3355 123.009 22.0834 123.009 19.4607 125.632C16.8381 128.255 16.838 132.507 19.4607 135.129C22.0834 137.752 26.3355 137.752 28.9582 135.129Z" fill="#344CB7" fill-opacity="0.43"/>
<path d="M82.7772 188.949C85.5343 186.191 85.5344 181.721 82.7772 178.964C80.0201 176.207 75.5498 176.207 72.7927 178.964C70.0355 181.721 70.0355 186.191 72.7927 188.949C75.5498 191.706 80.02 191.706 82.7772 188.949Z" fill="#344CB7" fill-opacity="0.43"/>
<path d="M136.596 242.768C139.488 239.876 139.488 235.188 136.596 232.296C133.705 229.404 129.016 229.404 126.125 232.296C123.233 235.188 123.233 239.876 126.125 242.768C129.016 245.659 133.705 245.659 136.596 242.768Z" fill="#344CB7" fill-opacity="0.43"/>
<path d="M190.415 296.587C193.441 293.56 193.441 288.654 190.415 285.628C187.389 282.602 182.483 282.602 179.457 285.628C176.43 288.654 176.43 293.56 179.457 296.587C182.483 299.613 187.389 299.613 190.415 296.587Z" fill="#344CB7" fill-opacity="0.43"/>
<path d="M255.984 304.136C258.875 301.244 258.875 296.556 255.984 293.664C253.092 290.773 248.404 290.773 245.512 293.664C242.621 296.556 242.621 301.244 245.512 304.136C248.404 307.028 253.092 307.028 255.984 304.136Z" fill="#344CB7" fill-opacity="0.43"/>
<path d="M309.316 357.468C312.073 354.711 312.073 350.241 309.316 347.483C306.559 344.726 302.088 344.726 299.331 347.483C296.574 350.241 296.574 354.711 299.331 357.468C302.088 360.225 306.559 360.225 309.316 357.468Z" fill="#344CB7" fill-opacity="0.43"/>
<path d="M362.648 410.8C365.27 408.177 365.27 403.925 362.648 401.302C360.025 398.68 355.773 398.68 353.15 401.302C350.528 403.925 350.528 408.177 353.15 410.8C355.773 413.423 360.025 413.423 362.648 410.8Z" fill="#344CB7" fill-opacity="0.43"/>
<path d="M416.041 464.193C418.562 461.671 418.562 457.582 416.041 455.061C413.519 452.539 409.43 452.539 406.908 455.061C404.387 457.582 404.387 461.671 406.908 464.193C409.43 466.715 413.519 466.715 416.041 464.193Z" fill="#344CB7" fill-opacity="0.43"/>
<path d="M469.373 517.525C471.76 515.138 471.76 511.267 469.373 508.88C466.985 506.492 463.115 506.492 460.727 508.88C458.34 511.267 458.34 515.138 460.728 517.525C463.115 519.912 466.985 519.912 469.373 517.525Z" fill="#344CB7" fill-opacity="0.43"/>
<path d="M13.7024 40.9804C16.7958 37.887 16.7958 32.8715 13.7024 29.7781C10.609 26.6847 5.59359 26.6847 2.5002 29.7781C-0.593186 32.8715 -0.593156 37.887 2.50023 40.9804C5.59362 44.0738 10.609 44.0738 13.7024 40.9804Z" fill="#344CB7" fill-opacity="0.43"/>
<path d="M67.6432 94.9212C70.9384 91.626 70.9383 86.2835 67.6432 82.9884C64.3481 79.6933 59.0056 79.6933 55.7105 82.9884C52.4153 86.2835 52.4153 91.626 55.7105 94.9212C59.0056 98.2163 64.3481 98.2163 67.6432 94.9212Z" fill="#344CB7" fill-opacity="0.43"/>
<path d="M121.523 148.801C124.986 145.338 124.986 139.723 121.523 136.26C118.06 132.796 112.445 132.796 108.982 136.26C105.518 139.723 105.518 145.338 108.982 148.801C112.445 152.264 118.06 152.264 121.523 148.801Z" fill="#344CB7" fill-opacity="0.43"/>
<path d="M175.464 202.742C179.129 199.077 179.129 193.135 175.464 189.47C171.799 185.805 165.857 185.805 162.192 189.47C158.527 193.135 158.527 199.077 162.192 202.742C165.857 206.407 171.799 206.407 175.464 202.742Z" fill="#344CB7" fill-opacity="0.43"/>
<path d="M232.3 250C236.167 246.133 236.167 239.864 232.3 235.997C228.433 232.13 222.164 232.13 218.297 235.997C214.43 239.864 214.43 246.133 218.297 250C222.164 253.867 228.433 253.867 232.3 250Z" fill="#344CB7" fill-opacity="0.43"/>
<path d="M364.17 305.171C367.633 301.708 367.633 296.093 364.17 292.629C360.707 289.166 355.092 289.166 351.628 292.629C348.165 296.093 348.165 301.708 351.628 305.171C355.092 308.634 360.707 308.634 364.17 305.171Z" fill="#344CB7" fill-opacity="0.43"/>
<path d="M417.441 358.442C420.736 355.147 420.736 349.804 417.441 346.509C414.146 343.214 408.803 343.214 405.508 346.509C402.213 349.804 402.213 355.147 405.508 358.442C408.803 361.737 414.146 361.737 417.441 358.442Z" fill="#344CB7" fill-opacity="0.43"/>
<path d="M470.651 411.652C473.745 408.559 473.745 403.543 470.651 400.45C467.558 397.357 462.542 397.357 459.449 400.45C456.356 403.543 456.356 408.559 459.449 411.652C462.542 414.746 467.558 414.746 470.651 411.652Z" fill="#344CB7" fill-opacity="0.43"/>
<path d="M523.861 464.863C526.753 461.971 526.753 457.283 523.861 454.391C520.969 451.499 516.281 451.499 513.39 454.391C510.498 457.283 510.498 461.971 513.39 464.863C516.281 467.754 520.969 467.754 523.861 464.863Z" fill="#344CB7" fill-opacity="0.43"/>
<path d="M577.071 518.073C579.761 515.383 579.761 511.022 577.071 508.332C574.381 505.642 570.02 505.642 567.33 508.332C564.64 511.022 564.64 515.383 567.33 518.073C570.02 520.763 574.381 520.763 577.071 518.073Z" fill="#344CB7" fill-opacity="0.43"/>
<path d="M630.342 571.344C632.864 568.822 632.864 564.734 630.342 562.212C627.821 559.69 623.732 559.69 621.21 562.212C618.688 564.734 618.688 568.822 621.21 571.344C623.732 573.866 627.821 573.866 630.342 571.344Z" fill="#344CB7" fill-opacity="0.43"/>
<path d="M472.173 306.023C476.107 302.089 476.107 295.711 472.173 291.777C468.239 287.843 461.861 287.843 457.927 291.777C453.993 295.711 453.993 302.089 457.927 306.023C461.861 309.957 468.239 309.957 472.173 306.023Z" fill="#344CB7" fill-opacity="0.43"/>
<path d="M525.261 359.112C528.926 355.447 528.926 349.505 525.261 345.84C521.596 342.175 515.655 342.175 511.99 345.84C508.325 349.505 508.325 355.447 511.99 359.112C515.655 362.777 521.596 362.777 525.261 359.112Z" fill="#344CB7" fill-opacity="0.43"/>
<path d="M578.35 412.2C581.746 408.804 581.746 403.298 578.35 399.902C574.954 396.506 569.448 396.506 566.052 399.902C562.656 403.298 562.656 408.804 566.052 412.2C569.448 415.596 574.954 415.596 578.35 412.2Z" fill="#344CB7" fill-opacity="0.43"/>
<path d="M631.499 465.35C634.66 462.189 634.66 457.065 631.499 453.904C628.338 450.743 623.214 450.743 620.053 453.904C616.893 457.065 616.893 462.189 620.053 465.35C623.214 468.51 628.338 468.51 631.499 465.35Z" fill="#344CB7" fill-opacity="0.43"/>
<path d="M684.588 518.438C687.479 515.546 687.479 510.858 684.588 507.967C681.696 505.075 677.008 505.075 674.116 507.967C671.224 510.858 671.224 515.546 674.116 518.438C677.008 521.33 681.696 521.33 684.588 518.438Z" fill="#344CB7" fill-opacity="0.43"/>
<path d="M737.676 571.526C740.299 568.904 740.299 564.652 737.676 562.029C735.053 559.406 730.801 559.406 728.178 562.029C725.556 564.652 725.556 568.904 728.178 571.526C730.801 574.149 735.053 574.149 737.676 571.526Z" fill="#344CB7" fill-opacity="0.43"/>
<path d="M579.872 306.571C584.108 302.335 584.108 295.466 579.872 291.229C575.635 286.992 568.766 286.993 564.53 291.229C560.293 295.466 560.293 302.335 564.53 306.571C568.766 310.808 575.635 310.808 579.872 306.571Z" fill="#344CB7" fill-opacity="0.43"/>
<path d="M632.899 359.599C636.833 355.665 636.833 349.287 632.899 345.353C628.965 341.419 622.587 341.419 618.653 345.353C614.719 349.287 614.719 355.665 618.653 359.599C622.587 363.533 628.965 363.533 632.899 359.599Z" fill="#344CB7" fill-opacity="0.43"/>
<path d="M685.866 412.566C689.464 408.968 689.464 403.135 685.866 399.537C682.268 395.939 676.435 395.939 672.837 399.537C669.24 403.135 669.24 408.968 672.837 412.566C676.435 416.163 682.268 416.163 685.866 412.566Z" fill="#344CB7" fill-opacity="0.43"/>
<path d="M738.894 465.593C742.189 462.298 742.189 456.955 738.894 453.66C735.599 450.365 730.256 450.365 726.961 453.66C723.666 456.955 723.666 462.298 726.961 465.593C730.256 468.888 735.598 468.888 738.894 465.593Z" fill="#344CB7" fill-opacity="0.43"/>
<path d="M791.86 518.56C794.819 515.601 794.819 510.803 791.86 507.845C788.901 504.886 784.104 504.886 781.145 507.845C778.186 510.804 778.186 515.601 781.145 518.56C784.104 521.519 788.901 521.519 791.86 518.56Z" fill="#344CB7" fill-opacity="0.43"/>
<path d="M844.827 571.526C847.45 568.904 847.45 564.652 844.827 562.029C842.204 559.406 837.952 559.406 835.33 562.029C832.707 564.652 832.707 568.904 835.33 571.526C837.952 574.149 842.204 574.149 844.827 571.526Z" fill="#344CB7" fill-opacity="0.43"/>
<path d="M687.388 306.937C691.826 302.498 691.826 295.302 687.388 290.864C682.95 286.425 675.754 286.425 671.315 290.864C666.877 295.302 666.877 302.498 671.315 306.936C675.754 311.375 682.95 311.375 687.388 306.937Z" fill="#344CB7" fill-opacity="0.43"/>
<path d="M740.294 359.842C744.362 355.774 744.362 349.178 740.294 345.109C736.225 341.041 729.629 341.041 725.561 345.109C721.492 349.178 721.492 355.774 725.561 359.842C729.629 363.911 736.225 363.911 740.294 359.842Z" fill="#344CB7" fill-opacity="0.43"/>
<path d="M793.139 412.687C796.804 409.022 796.804 403.08 793.139 399.415C789.474 395.75 783.532 395.75 779.867 399.415C776.202 403.08 776.202 409.022 779.867 412.687C783.532 416.352 789.474 416.352 793.139 412.687Z" fill="#344CB7" fill-opacity="0.43"/>
<path d="M846.045 465.593C849.34 462.298 849.34 456.955 846.044 453.66C842.749 450.365 837.407 450.365 834.112 453.66C830.817 456.955 830.817 462.298 834.112 465.593C837.407 468.888 842.749 468.888 846.045 465.593Z" fill="#344CB7" fill-opacity="0.43"/>
<path d="M898.889 518.438C901.781 515.546 901.781 510.858 898.889 507.966C895.998 505.075 891.309 505.075 888.418 507.966C885.526 510.858 885.526 515.546 888.418 518.438C891.309 521.33 895.998 521.33 898.889 518.438Z" fill="#344CB7" fill-opacity="0.43"/>
<path d="M951.795 571.344C954.317 568.822 954.317 564.733 951.795 562.212C949.273 559.69 945.185 559.69 942.663 562.212C940.141 564.733 940.141 568.822 942.663 571.344C945.185 573.866 949.273 573.866 951.795 571.344Z" fill="#344CB7" fill-opacity="0.43"/>
<path d="M794.661 307.058C799.166 302.553 799.166 295.248 794.661 290.742C790.155 286.236 782.85 286.237 778.345 290.742C773.839 295.248 773.839 302.553 778.345 307.058C782.85 311.564 790.155 311.564 794.661 307.058Z" fill="#344CB7" fill-opacity="0.43"/>
<path d="M847.445 359.842C851.513 355.774 851.513 349.178 847.445 345.109C843.376 341.041 836.78 341.041 832.712 345.109C828.643 349.178 828.643 355.774 832.712 359.842C836.78 363.911 843.376 363.911 847.445 359.842Z" fill="#344CB7" fill-opacity="0.43"/>
<path d="M900.168 412.566C903.766 408.968 903.766 403.135 900.168 399.537C896.57 395.939 890.737 395.939 887.139 399.537C883.542 403.135 883.542 408.968 887.139 412.565C890.737 416.163 896.57 416.163 900.168 412.566Z" fill="#344CB7" fill-opacity="0.43"/>
<path d="M952.952 465.35C956.113 462.189 956.113 457.065 952.952 453.904C949.791 450.743 944.667 450.743 941.506 453.904C938.346 457.065 938.346 462.189 941.506 465.35C944.667 468.51 949.791 468.51 952.952 465.35Z" fill="#344CB7" fill-opacity="0.43"/>
<path d="M1005.68 518.073C1008.37 515.383 1008.37 511.022 1005.68 508.332C1002.99 505.642 998.624 505.642 995.934 508.332C993.244 511.022 993.244 515.383 995.934 518.073C998.624 520.763 1002.99 520.763 1005.68 518.073Z" fill="#344CB7" fill-opacity="0.43"/>
<path d="M901.69 306.936C906.128 302.498 906.128 295.302 901.69 290.864C897.252 286.425 890.056 286.425 885.617 290.864C881.179 295.302 881.179 302.498 885.617 306.937C890.056 311.375 897.252 311.375 901.69 306.936Z" fill="#344CB7" fill-opacity="0.43"/>
<path d="M954.352 359.599C958.286 355.665 958.286 349.286 954.352 345.352C950.418 341.418 944.04 341.418 940.106 345.352C936.172 349.286 936.172 355.665 940.106 359.599C944.04 363.533 950.418 363.533 954.352 359.599Z" fill="#344CB7" fill-opacity="0.43"/>
<path d="M1006.95 412.2C1010.35 408.804 1010.35 403.298 1006.95 399.902C1003.56 396.506 998.052 396.506 994.656 399.902C991.26 403.298 991.26 408.804 994.656 412.2C998.052 415.596 1003.56 415.596 1006.95 412.2Z" fill="#344CB7" fill-opacity="0.43"/>
<path d="M1059.62 464.863C1062.51 461.971 1062.51 457.283 1059.62 454.391C1056.72 451.499 1052.04 451.499 1049.14 454.391C1046.25 457.283 1046.25 461.971 1049.14 464.863C1052.04 467.754 1056.72 467.754 1059.62 464.863Z" fill="#344CB7" fill-opacity="0.43"/>
<path d="M1112.28 517.525C1114.67 515.138 1114.67 511.267 1112.28 508.88C1109.89 506.492 1106.02 506.492 1103.63 508.88C1101.25 511.267 1101.25 515.138 1103.63 517.525C1106.02 519.912 1109.89 519.912 1112.28 517.525Z" fill="#344CB7" fill-opacity="0.43"/>
<path d="M1008.48 306.571C1012.71 302.335 1012.71 295.466 1008.48 291.229C1004.24 286.992 997.37 286.992 993.134 291.229C988.897 295.466 988.897 302.335 993.134 306.571C997.37 310.808 1004.24 310.808 1008.48 306.571Z" fill="#344CB7" fill-opacity="0.43"/>
<path d="M1061.02 359.112C1064.68 355.447 1064.68 349.505 1061.02 345.84C1057.35 342.175 1051.41 342.175 1047.74 345.84C1044.08 349.505 1044.08 355.447 1047.74 359.112C1051.41 362.777 1057.35 362.777 1061.02 359.112Z" fill="#344CB7" fill-opacity="0.43"/>
<path d="M1113.56 411.652C1116.65 408.559 1116.65 403.543 1113.56 400.45C1110.46 397.357 1105.45 397.357 1102.36 400.45C1099.26 403.543 1099.26 408.559 1102.35 411.652C1105.45 414.746 1110.46 414.746 1113.56 411.652Z" fill="#344CB7" fill-opacity="0.43"/>
<path d="M1166.1 464.193C1168.62 461.671 1168.62 457.582 1166.1 455.061C1163.58 452.539 1159.49 452.539 1156.97 455.061C1154.44 457.582 1154.44 461.671 1156.97 464.193C1159.49 466.715 1163.58 466.715 1166.1 464.193Z" fill="#344CB7" fill-opacity="0.43"/>
<path d="M1115.08 306.023C1119.01 302.089 1119.01 295.711 1115.08 291.777C1111.15 287.843 1104.77 287.843 1100.83 291.777C1096.9 295.711 1096.9 302.089 1100.83 306.023C1104.77 309.957 1111.15 309.957 1115.08 306.023Z" fill="#344CB7" fill-opacity="0.43"/>
<path d="M1167.5 358.442C1170.79 355.147 1170.79 349.804 1167.5 346.509C1164.2 343.214 1158.86 343.214 1155.57 346.509C1152.27 349.804 1152.27 355.147 1155.57 358.442C1158.86 361.737 1164.2 361.737 1167.5 358.442Z" fill="#344CB7" fill-opacity="0.43"/>
<path d="M1219.86 410.8C1222.48 408.177 1222.48 403.925 1219.86 401.302C1217.23 398.68 1212.98 398.68 1210.36 401.302C1207.74 403.925 1207.74 408.177 1210.36 410.8C1212.98 413.423 1217.23 413.423 1219.86 410.8Z" fill="#344CB7" fill-opacity="0.43"/>
<path d="M1272.27 463.219C1274.26 461.235 1274.26 458.019 1272.27 456.035C1270.29 454.051 1267.07 454.051 1265.09 456.035C1263.11 458.019 1263.11 461.235 1265.09 463.219C1267.07 465.203 1270.29 465.203 1272.27 463.219Z" fill="#344CB7" fill-opacity="0.43"/>
<path d="M1221.38 305.171C1224.84 301.708 1224.84 296.093 1221.38 292.629C1217.91 289.166 1212.3 289.166 1208.84 292.629C1205.37 296.093 1205.37 301.708 1208.84 305.171C1212.3 308.634 1217.91 308.634 1221.38 305.171Z" fill="#344CB7" fill-opacity="0.43"/>
<path d="M1273.67 357.468C1276.43 354.711 1276.43 350.241 1273.67 347.483C1270.92 344.726 1266.45 344.726 1263.69 347.483C1260.93 350.241 1260.93 354.711 1263.69 357.468C1266.45 360.225 1270.92 360.225 1273.67 357.468Z" fill="#344CB7" fill-opacity="0.43"/>
<path d="M1325.97 409.765C1328.02 407.714 1328.02 404.388 1325.97 402.337C1323.92 400.286 1320.6 400.286 1318.54 402.337C1316.49 404.388 1316.49 407.714 1318.54 409.765C1320.6 411.816 1323.92 411.816 1325.97 409.765Z" fill="#344CB7" fill-opacity="0.43"/>
<path d="M1275.32 251.961C1278.98 248.296 1278.98 242.354 1275.32 238.689C1271.65 235.024 1265.71 235.024 1262.05 238.689C1258.38 242.354 1258.38 248.296 1262.05 251.961C1265.71 255.626 1271.65 255.626 1275.32 251.961Z" fill="#344CB7" fill-opacity="0.43"/>
<path d="M1327.49 304.136C1330.39 301.244 1330.39 296.556 1327.49 293.664C1324.6 290.773 1319.91 290.773 1317.02 293.664C1314.13 296.556 1314.13 301.244 1317.02 304.136C1319.91 307.028 1324.6 307.028 1327.49 304.136Z" fill="#344CB7" fill-opacity="0.43"/>
<path d="M1379.67 356.311C1381.79 354.193 1381.79 350.758 1379.67 348.64C1377.55 346.522 1374.12 346.522 1372 348.64C1369.88 350.758 1369.88 354.193 1372 356.311C1374.12 358.43 1377.55 358.429 1379.67 356.311Z" fill="#344CB7" fill-opacity="0.43"/>
<path d="M1331.02 212.024C1334.89 208.157 1334.89 201.888 1331.02 198.021C1327.16 194.154 1320.89 194.154 1317.02 198.021C1313.16 201.888 1313.16 208.157 1317.02 212.024C1320.89 215.89 1327.16 215.89 1331.02 212.024Z" fill="#344CB7" fill-opacity="0.43"/>
<path d="M1393.21 281.946C1396.24 278.92 1396.24 274.014 1393.21 270.988C1390.19 267.962 1385.28 267.962 1382.26 270.988C1379.23 274.014 1379.23 278.92 1382.26 281.946C1385.28 284.973 1390.19 284.973 1393.21 281.946Z" fill="#344CB7" fill-opacity="0.43"/>
<path d="M1445.27 334C1447.45 331.814 1447.45 328.271 1445.27 326.085C1443.08 323.9 1439.54 323.9 1437.35 326.085C1435.17 328.271 1435.17 331.814 1437.35 334C1439.54 336.186 1443.08 336.186 1445.27 334Z" fill="#344CB7" fill-opacity="0.43"/>
<path d="M1394.37 175.952C1398.04 172.287 1398.04 166.345 1394.37 162.68C1390.71 159.015 1384.76 159.015 1381.1 162.68C1377.43 166.345 1377.43 172.287 1381.1 175.952C1384.76 179.617 1390.71 179.617 1394.37 175.952Z" fill="#344CB7" fill-opacity="0.43"/>
<path d="M1446.55 228.127C1449.44 225.236 1449.44 220.547 1446.55 217.656C1443.65 214.764 1438.97 214.764 1436.07 217.656C1433.18 220.547 1433.18 225.236 1436.07 228.127C1438.97 231.019 1443.65 231.019 1446.55 228.127Z" fill="#344CB7" fill-opacity="0.43"/>
<path d="M1498.72 280.303C1500.84 278.184 1500.84 274.75 1498.72 272.632C1496.6 270.513 1493.17 270.513 1491.05 272.632C1488.93 274.75 1488.93 278.184 1491.05 280.303C1493.17 282.421 1496.6 282.421 1498.72 280.303Z" fill="#344CB7" fill-opacity="0.43"/>
<path d="M1447.58 122.011C1451.04 118.548 1451.04 112.933 1447.58 109.47C1444.12 106.006 1438.5 106.006 1435.04 109.47C1431.58 112.933 1431.58 118.548 1435.04 122.011C1438.5 125.474 1444.12 125.474 1447.58 122.011Z" fill="#344CB7" fill-opacity="0.43"/>
<path d="M1499.88 174.308C1502.64 171.551 1502.64 167.081 1499.88 164.324C1497.12 161.567 1492.65 161.567 1489.89 164.324C1487.14 167.081 1487.14 171.551 1489.89 174.308C1492.65 177.066 1497.12 177.065 1499.88 174.308Z" fill="#344CB7" fill-opacity="0.43"/>
<path d="M1552.18 226.605C1554.23 224.554 1554.23 221.229 1552.18 219.178C1550.12 217.127 1546.8 217.127 1544.75 219.178C1542.7 221.229 1542.7 224.554 1544.75 226.605C1546.8 228.656 1550.12 228.656 1552.18 226.605Z" fill="#344CB7" fill-opacity="0.43"/>
<path d="M1500.85 68.1312C1504.15 64.8361 1504.15 59.4936 1500.85 56.1985C1497.56 52.9033 1492.21 52.9036 1488.92 56.1987C1485.62 59.4938 1485.62 64.8361 1488.92 68.1312C1492.21 71.4263 1497.56 71.4263 1500.85 68.1312Z" fill="#344CB7" fill-opacity="0.43"/>
<path d="M1553.21 120.489C1555.83 117.867 1555.83 113.614 1553.21 110.992C1550.59 108.369 1546.34 108.369 1543.71 110.992C1541.09 113.614 1541.09 117.867 1543.71 120.489C1546.34 123.112 1550.59 123.112 1553.21 120.489Z" fill="#344CB7" fill-opacity="0.43"/>
<path d="M1554.06 14.1905C1557.16 11.0971 1557.16 6.08165 1554.06 2.98826C1550.97 -0.105135 1545.95 -0.105135 1542.86 2.98826C1539.77 6.08165 1539.77 11.0971 1542.86 14.1905C1545.95 17.2839 1550.97 17.2839 1554.06 14.1905Z" fill="#344CB7" fill-opacity="0.43"/>
<path d="M630.343 265.815C632.864 263.293 632.864 259.205 630.343 256.683C627.821 254.161 623.732 254.161 621.21 256.683C618.689 259.205 618.689 263.293 621.21 265.815C623.732 268.337 627.821 268.337 630.343 265.815Z" fill="#344CB7" fill-opacity="0.43"/>
<path d="M737.676 265.997C740.299 263.375 740.299 259.123 737.676 256.5C735.053 253.877 730.801 253.877 728.179 256.5C725.556 259.123 725.556 263.375 728.179 265.997C730.801 268.62 735.053 268.62 737.676 265.997Z" fill="#344CB7" fill-opacity="0.43"/>
<path d="M844.827 265.997C847.45 263.375 847.45 259.123 844.827 256.5C842.204 253.877 837.952 253.877 835.33 256.5C832.707 259.123 832.707 263.375 835.33 265.997C837.952 268.62 842.204 268.62 844.827 265.997Z" fill="#344CB7" fill-opacity="0.43"/>
<path d="M951.795 265.815C954.317 263.293 954.317 259.204 951.795 256.683C949.274 254.161 945.185 254.161 942.663 256.683C940.141 259.204 940.141 263.293 942.663 265.815C945.185 268.337 949.274 268.337 951.795 265.815Z" fill="#344CB7" fill-opacity="0.43"/>
<path d="M523.5 265.997C526.123 263.375 526.123 259.123 523.5 256.5C520.878 253.877 516.626 253.877 514.003 256.5C511.38 259.123 511.38 263.375 514.003 265.997C516.626 268.62 520.878 268.62 523.5 265.997Z" fill="#344CB7" fill-opacity="0.43"/>
<path d="M421.635 265.815C424.157 263.293 424.157 259.205 421.635 256.683C419.114 254.161 415.025 254.161 412.503 256.683C409.981 259.205 409.981 263.293 412.503 265.815C415.025 268.337 419.114 268.337 421.635 265.815Z" fill="#344CB7" fill-opacity="0.43"/>
<path d="M351.652 265.632C354.173 263.11 354.173 259.022 351.652 256.5C349.13 253.978 345.041 253.978 342.519 256.5C339.998 259.022 339.998 263.11 342.519 265.632C345.041 268.154 349.13 268.154 351.652 265.632Z" fill="#344CB7" fill-opacity="0.43"/>
<path d="M1060.5 265.632C1063.02 263.11 1063.02 259.022 1060.5 256.5C1057.98 253.978 1053.89 253.978 1051.37 256.5C1048.85 259.022 1048.85 263.11 1051.37 265.632C1053.89 268.154 1057.98 268.154 1060.5 265.632Z" fill="#344CB7" fill-opacity="0.43"/>
<path d="M1060.5 265.632C1063.02 263.11 1063.02 259.022 1060.5 256.5C1057.98 253.978 1053.89 253.978 1051.37 256.5C1048.85 259.022 1048.85 263.11 1051.37 265.632C1053.89 268.154 1057.98 268.154 1060.5 265.632Z" fill="#344CB7" fill-opacity="0.43"/>
<path d="M1167.5 265.632C1170.02 263.11 1170.02 259.022 1167.5 256.5C1164.98 253.978 1160.89 253.978 1158.37 256.5C1155.85 259.022 1155.85 263.11 1158.37 265.632C1160.89 268.154 1164.98 268.154 1167.5 265.632Z" fill="#344CB7" fill-opacity="0.43"/>
<path d="M1167.5 265.632C1170.02 263.11 1170.02 259.022 1167.5 256.5C1164.98 253.978 1160.89 253.978 1158.37 256.5C1155.85 259.022 1155.85 263.11 1158.37 265.632C1160.89 268.154 1164.98 268.154 1167.5 265.632Z" fill="#344CB7" fill-opacity="0.43"/>
<path d="M1222.5 241.489C1226.17 237.824 1226.17 231.882 1222.5 228.217C1218.84 224.552 1212.9 224.552 1209.23 228.217C1205.57 231.882 1205.57 237.824 1209.23 241.489C1212.9 245.154 1218.84 245.154 1222.5 241.489Z" fill="#344CB7" fill-opacity="0.43"/>
<path d="M351.652 265.632C354.173 263.11 354.173 259.022 351.652 256.5C349.13 253.978 345.041 253.978 342.519 256.5C339.998 259.022 339.998 263.11 342.519 265.632C345.041 268.154 349.13 268.154 351.652 265.632Z" fill="#344CB7" fill-opacity="0.43"/>
<path d="M292 271.5C294.892 268.608 294.892 263.92 292 261.028C289.108 258.137 284.42 258.137 281.528 261.028C278.637 263.92 278.637 268.608 281.528 271.5C284.42 274.392 289.108 274.392 292 271.5Z" fill="#344CB7" fill-opacity="0.43"/>
</svg>
