<svg width="746" height="742" viewBox="0 0 746 742" fill="none" xmlns="http://www.w3.org/2000/svg">
<path d="M58.0685 533.709C59.2625 532.515 59.2625 530.579 58.0685 529.385C56.8744 528.191 54.9385 528.191 53.7445 529.385C52.5504 530.579 52.5504 532.515 53.7445 533.709C54.9385 534.903 56.8744 534.903 58.0685 533.709Z" fill="#344CB7" fill-opacity="0.27"/>
<path d="M111.23 586.87C112.596 585.503 112.596 583.288 111.23 581.921C109.863 580.555 107.648 580.555 106.281 581.921C104.915 583.288 104.915 585.503 106.281 586.87C107.648 588.236 109.863 588.236 111.23 586.87Z" fill="#344CB7" fill-opacity="0.27"/>
<path d="M164.079 639.719C165.445 638.352 165.445 636.137 164.079 634.77C162.712 633.404 160.497 633.404 159.13 634.77C157.764 636.137 157.764 638.352 159.13 639.719C160.497 641.085 162.712 641.085 164.079 639.719Z" fill="#344CB7" fill-opacity="0.27"/>
<path d="M216.615 692.256C217.809 691.061 217.809 689.126 216.615 687.932C215.421 686.738 213.485 686.738 212.291 687.932C211.097 689.126 211.097 691.062 212.291 692.256C213.485 693.45 215.421 693.45 216.615 692.256Z" fill="#344CB7" fill-opacity="0.27"/>
<path d="M5.21954 375.162C6.41358 373.968 6.41358 372.032 5.21954 370.838C4.0255 369.644 2.08957 369.644 0.89553 370.838C-0.29851 372.032 -0.29851 373.968 0.89553 375.162C2.08957 376.356 4.0255 376.356 5.21954 375.162Z" fill="#344CB7" fill-opacity="0.27"/>
<path d="M58.693 428.636C60.232 427.097 60.232 424.601 58.693 423.062C57.1541 421.523 54.6589 421.523 53.1199 423.062C51.5809 424.601 51.5809 427.097 53.1199 428.636C54.6589 430.174 57.1541 430.174 58.693 428.636Z" fill="#344CB7" fill-opacity="0.27"/>
<path d="M112.143 482.085C114.013 480.214 114.013 477.181 112.143 475.311C110.272 473.44 107.239 473.44 105.368 475.311C103.498 477.181 103.498 480.214 105.368 482.085C107.239 483.956 110.272 483.956 112.143 482.085Z" fill="#344CB7" fill-opacity="0.27"/>
<path d="M165.592 535.534C167.794 533.332 167.794 529.761 165.592 527.559C163.39 525.357 159.819 525.357 157.617 527.559C155.414 529.761 155.414 533.332 157.617 535.534C159.819 537.737 163.39 537.737 165.592 535.534Z" fill="#344CB7" fill-opacity="0.27"/>
<path d="M218.441 588.383C220.643 586.181 220.643 582.61 218.441 580.408C216.239 578.206 212.668 578.206 210.466 580.408C208.263 582.61 208.263 586.181 210.466 588.383C212.668 590.586 216.239 590.586 218.441 588.383Z" fill="#344CB7" fill-opacity="0.27"/>
<path d="M270.689 640.632C272.56 638.761 272.56 635.728 270.689 633.857C268.819 631.987 265.786 631.987 263.915 633.857C262.044 635.728 262.044 638.761 263.915 640.632C265.786 642.502 268.819 642.502 270.689 640.632Z" fill="#344CB7" fill-opacity="0.27"/>
<path d="M322.938 692.88C324.477 691.341 324.477 688.846 322.938 687.307C321.399 685.768 318.903 685.768 317.364 687.307C315.826 688.846 315.826 691.341 317.365 692.88C318.904 694.419 321.399 694.419 322.938 692.88Z" fill="#344CB7" fill-opacity="0.27"/>
<path d="M375.162 745.104C376.356 743.91 376.356 741.975 375.162 740.78C373.968 739.586 372.032 739.586 370.838 740.78C369.644 741.975 369.644 743.91 370.838 745.104C372.032 746.299 373.968 746.298 375.162 745.104Z" fill="#344CB7" fill-opacity="0.27"/>
<path d="M58.693 322.938C60.232 321.399 60.232 318.903 58.693 317.364C57.1541 315.826 54.6589 315.826 53.1199 317.364C51.5809 318.903 51.5809 321.399 53.1199 322.938C54.6589 324.477 57.1541 324.477 58.693 322.938Z" fill="#344CB7" fill-opacity="0.27"/>
<path d="M112.431 376.675C114.461 374.646 114.461 371.354 112.431 369.325C110.401 367.295 107.11 367.295 105.08 369.325C103.05 371.354 103.05 374.646 105.08 376.675C107.11 378.705 110.401 378.705 112.431 376.675Z" fill="#344CB7" fill-opacity="0.27"/>
<path d="M166.193 430.437C168.727 427.903 168.727 423.795 166.193 421.261C163.659 418.727 159.55 418.727 157.016 421.261C154.482 423.795 154.482 427.903 157.016 430.437C159.55 432.971 163.659 432.971 166.193 430.437Z" fill="#344CB7" fill-opacity="0.27"/>
<path d="M219.954 484.199C222.992 481.161 222.992 476.235 219.954 473.197C216.916 470.159 211.99 470.159 208.952 473.197C205.914 476.235 205.914 481.161 208.952 484.199C211.99 487.237 216.916 487.237 219.954 484.199Z" fill="#344CB7" fill-opacity="0.27"/>
<path d="M272.803 537.048C275.841 534.01 275.841 529.084 272.803 526.046C269.765 523.008 264.839 523.008 261.801 526.046C258.763 529.084 258.763 534.01 261.801 537.048C264.839 540.086 269.765 540.086 272.803 537.048Z" fill="#344CB7" fill-opacity="0.27"/>
<path d="M324.739 588.984C327.273 586.45 327.273 582.341 324.739 579.807C322.205 577.273 318.097 577.273 315.563 579.807C313.029 582.341 313.029 586.45 315.563 588.984C318.097 591.518 322.205 591.518 324.739 588.984Z" fill="#344CB7" fill-opacity="0.27"/>
<path d="M376.675 640.92C378.705 638.89 378.705 635.599 376.675 633.569C374.646 631.539 371.354 631.539 369.325 633.569C367.295 635.599 367.295 638.89 369.325 640.92C371.354 642.95 374.646 642.95 376.675 640.92Z" fill="#344CB7" fill-opacity="0.27"/>
<path d="M428.636 692.88C430.175 691.341 430.174 688.846 428.636 687.307C427.097 685.768 424.601 685.768 423.062 687.307C421.523 688.846 421.523 691.341 423.062 692.88C424.601 694.419 427.097 694.419 428.636 692.88Z" fill="#344CB7" fill-opacity="0.27"/>
<path d="M58.0685 216.615C59.2625 215.421 59.2625 213.485 58.0685 212.291C56.8744 211.097 54.9385 211.097 53.7445 212.291C52.5504 213.485 52.5504 215.421 53.7445 216.615C54.9385 217.809 56.8744 217.809 58.0685 216.615Z" fill="#344CB7" fill-opacity="0.27"/>
<path d="M112.143 270.689C114.013 268.819 114.013 265.786 112.143 263.915C110.272 262.044 107.239 262.044 105.368 263.915C103.498 265.786 103.498 268.819 105.368 270.689C107.239 272.56 110.272 272.56 112.143 270.689Z" fill="#344CB7" fill-opacity="0.27"/>
<path d="M166.193 324.739C168.727 322.205 168.727 318.097 166.193 315.563C163.659 313.029 159.55 313.029 157.016 315.563C154.482 318.097 154.482 322.205 157.016 324.739C159.55 327.273 163.659 327.273 166.193 324.739Z" fill="#344CB7" fill-opacity="0.27"/>
<path d="M220.267 378.813C223.477 375.603 223.477 370.397 220.267 367.187C217.056 363.976 211.85 363.976 208.64 367.187C205.429 370.397 205.429 375.603 208.64 378.813C211.85 382.024 217.056 382.024 220.267 378.813Z" fill="#344CB7" fill-opacity="0.27"/>
<path d="M274.317 432.863C278.191 428.989 278.191 422.708 274.317 418.834C270.443 414.96 264.162 414.96 260.288 418.834C256.414 422.708 256.414 428.989 260.288 432.863C264.162 436.737 270.443 436.737 274.317 432.863Z" fill="#344CB7" fill-opacity="0.27"/>
<path d="M327.166 485.712C331.04 481.838 331.04 475.557 327.166 471.683C323.292 467.809 317.011 467.809 313.137 471.683C309.263 475.557 309.263 481.838 313.137 485.712C317.011 489.586 323.292 489.586 327.166 485.712Z" fill="#344CB7" fill-opacity="0.27"/>
<path d="M378.813 537.36C382.024 534.15 382.024 528.944 378.813 525.733C375.603 522.523 370.397 522.523 367.187 525.733C363.976 528.944 363.976 534.15 367.187 537.36C370.397 540.571 375.603 540.571 378.813 537.36Z" fill="#344CB7" fill-opacity="0.27"/>
<path d="M430.437 588.984C432.971 586.45 432.971 582.341 430.437 579.807C427.903 577.273 423.795 577.273 421.261 579.807C418.727 582.341 418.727 586.45 421.261 588.984C423.795 591.518 427.903 591.518 430.437 588.984Z" fill="#344CB7" fill-opacity="0.27"/>
<path d="M482.085 640.632C483.956 638.761 483.956 635.728 482.085 633.857C480.214 631.987 477.181 631.987 475.311 633.857C473.44 635.728 473.44 638.761 475.311 640.632C477.181 642.502 480.214 642.502 482.085 640.632Z" fill="#344CB7" fill-opacity="0.27"/>
<path d="M533.709 692.256C534.903 691.061 534.903 689.126 533.709 687.932C532.515 686.738 530.579 686.738 529.385 687.932C528.191 689.126 528.191 691.062 529.385 692.256C530.579 693.45 532.515 693.45 533.709 692.256Z" fill="#344CB7" fill-opacity="0.27"/>
<path d="M111.23 164.079C112.596 162.712 112.596 160.497 111.23 159.13C109.863 157.763 107.648 157.763 106.281 159.13C104.915 160.497 104.915 162.712 106.281 164.079C107.648 165.445 109.863 165.445 111.23 164.079Z" fill="#344CB7" fill-opacity="0.27"/>
<path d="M165.592 218.441C167.794 216.239 167.794 212.668 165.592 210.466C163.39 208.263 159.819 208.263 157.617 210.466C155.414 212.668 155.414 216.239 157.617 218.441C159.819 220.643 163.39 220.643 165.592 218.441Z" fill="#344CB7" fill-opacity="0.27"/>
<path d="M219.954 272.803C222.992 269.765 222.992 264.839 219.954 261.801C216.916 258.763 211.99 258.763 208.952 261.801C205.914 264.839 205.914 269.765 208.952 272.803C211.99 275.841 216.916 275.841 219.954 272.803Z" fill="#344CB7" fill-opacity="0.27"/>
<path d="M274.317 327.166C278.191 323.292 278.191 317.011 274.317 313.137C270.443 309.263 264.162 309.263 260.288 313.137C256.414 317.011 256.414 323.292 260.288 327.166C264.162 331.04 270.443 331.04 274.317 327.166Z" fill="#344CB7" fill-opacity="0.27"/>
<path d="M328.679 381.528C333.389 376.818 333.389 369.182 328.679 364.472C323.969 359.762 316.333 359.762 311.623 364.472C306.913 369.182 306.913 376.818 311.623 381.528C316.333 386.238 323.969 386.238 328.679 381.528Z" fill="#344CB7" fill-opacity="0.27"/>
<path d="M381.528 434.377C386.238 429.667 386.238 422.031 381.528 417.321C376.818 412.611 369.182 412.611 364.472 417.321C359.762 422.031 359.762 429.667 364.472 434.377C369.182 439.087 376.818 439.087 381.528 434.377Z" fill="#344CB7" fill-opacity="0.27"/>
<path d="M432.863 485.712C436.737 481.838 436.737 475.557 432.863 471.683C428.989 467.809 422.708 467.809 418.834 471.683C414.96 475.557 414.96 481.838 418.834 485.712C422.708 489.586 428.989 489.586 432.863 485.712Z" fill="#344CB7" fill-opacity="0.27"/>
<path d="M484.199 537.048C487.237 534.01 487.237 529.084 484.199 526.046C481.161 523.008 476.235 523.008 473.197 526.046C470.159 529.084 470.159 534.01 473.197 537.048C476.235 540.086 481.161 540.086 484.199 537.048Z" fill="#344CB7" fill-opacity="0.27"/>
<path d="M535.534 588.383C537.737 586.181 537.737 582.61 535.534 580.408C533.332 578.206 529.761 578.206 527.559 580.408C525.357 582.61 525.357 586.181 527.559 588.383C529.761 590.586 533.332 590.586 535.534 588.383Z" fill="#344CB7" fill-opacity="0.27"/>
<path d="M586.87 639.719C588.236 638.352 588.236 636.137 586.87 634.77C585.503 633.404 583.288 633.404 581.921 634.77C580.555 636.137 580.555 638.352 581.921 639.719C583.288 641.085 585.503 641.085 586.87 639.719Z" fill="#344CB7" fill-opacity="0.27"/>
<path d="M164.079 111.23C165.445 109.863 165.445 107.648 164.079 106.281C162.712 104.915 160.497 104.915 159.13 106.281C157.764 107.648 157.764 109.863 159.13 111.23C160.497 112.596 162.712 112.596 164.079 111.23Z" fill="#344CB7" fill-opacity="0.27"/>
<path d="M218.441 165.592C220.643 163.39 220.643 159.819 218.441 157.617C216.239 155.414 212.668 155.414 210.466 157.617C208.263 159.819 208.263 163.39 210.466 165.592C212.668 167.794 216.239 167.794 218.441 165.592Z" fill="#344CB7" fill-opacity="0.27"/>
<path d="M272.803 219.954C275.841 216.916 275.841 211.99 272.803 208.952C269.765 205.914 264.839 205.914 261.801 208.952C258.763 211.99 258.763 216.916 261.801 219.954C264.839 222.992 269.765 222.992 272.803 219.954Z" fill="#344CB7" fill-opacity="0.27"/>
<path d="M327.166 274.317C331.04 270.443 331.04 264.162 327.166 260.288C323.292 256.414 317.011 256.414 313.137 260.288C309.263 264.162 309.263 270.443 313.137 274.317C317.011 278.191 323.292 278.191 327.166 274.317Z" fill="#344CB7" fill-opacity="0.27"/>
<path d="M381.528 328.679C386.238 323.969 386.238 316.333 381.528 311.623C376.818 306.913 369.182 306.913 364.472 311.623C359.762 316.333 359.762 323.969 364.472 328.679C369.182 333.389 376.818 333.389 381.528 328.679Z" fill="#344CB7" fill-opacity="0.27"/>
<path d="M434.377 381.528C439.087 376.818 439.087 369.182 434.377 364.472C429.667 359.762 422.031 359.762 417.321 364.472C412.611 369.182 412.611 376.818 417.321 381.528C422.031 386.238 429.667 386.238 434.377 381.528Z" fill="#344CB7" fill-opacity="0.27"/>
<path d="M485.712 432.863C489.586 428.989 489.586 422.708 485.712 418.834C481.838 414.96 475.557 414.96 471.683 418.834C467.809 422.708 467.809 428.989 471.683 432.863C475.557 436.737 481.838 436.737 485.712 432.863Z" fill="#344CB7" fill-opacity="0.27"/>
<path d="M537.048 484.199C540.086 481.161 540.086 476.235 537.048 473.197C534.01 470.159 529.084 470.159 526.046 473.197C523.008 476.235 523.008 481.161 526.046 484.199C529.084 487.237 534.01 487.237 537.048 484.199Z" fill="#344CB7" fill-opacity="0.27"/>
<path d="M588.383 535.534C590.586 533.332 590.586 529.761 588.383 527.559C586.181 525.357 582.61 525.357 580.408 527.559C578.206 529.761 578.206 533.332 580.408 535.534C582.61 537.737 586.181 537.737 588.383 535.534Z" fill="#344CB7" fill-opacity="0.27"/>
<path d="M639.719 586.87C641.085 585.503 641.085 583.288 639.719 581.921C638.352 580.555 636.137 580.555 634.77 581.921C633.404 583.288 633.404 585.503 634.77 586.87C636.137 588.236 638.352 588.236 639.719 586.87Z" fill="#344CB7" fill-opacity="0.27"/>
<path d="M216.615 58.0685C217.809 56.8744 217.809 54.9385 216.615 53.7445C215.421 52.5504 213.485 52.5504 212.291 53.7445C211.097 54.9385 211.097 56.8744 212.291 58.0684C213.485 59.2625 215.421 59.2625 216.615 58.0685Z" fill="#344CB7" fill-opacity="0.27"/>
<path d="M270.689 112.143C272.56 110.272 272.56 107.239 270.689 105.368C268.819 103.498 265.786 103.498 263.915 105.368C262.044 107.239 262.044 110.272 263.915 112.143C265.786 114.013 268.819 114.013 270.689 112.143Z" fill="#344CB7" fill-opacity="0.27"/>
<path d="M324.739 166.193C327.273 163.659 327.273 159.55 324.739 157.016C322.205 154.482 318.097 154.482 315.563 157.016C313.029 159.55 313.029 163.659 315.563 166.193C318.097 168.727 322.205 168.727 324.739 166.193Z" fill="#344CB7" fill-opacity="0.27"/>
<path d="M378.813 220.267C382.024 217.056 382.024 211.85 378.813 208.64C375.603 205.429 370.397 205.429 367.187 208.64C363.976 211.85 363.976 217.056 367.187 220.267C370.397 223.477 375.603 223.477 378.813 220.267Z" fill="#344CB7" fill-opacity="0.27"/>
<path d="M432.863 274.317C436.737 270.443 436.737 264.162 432.863 260.288C428.989 256.414 422.708 256.414 418.834 260.288C414.96 264.162 414.96 270.443 418.834 274.317C422.708 278.191 428.989 278.191 432.863 274.317Z" fill="#344CB7" fill-opacity="0.27"/>
<path d="M485.712 327.166C489.586 323.292 489.586 317.011 485.712 313.137C481.838 309.263 475.557 309.263 471.683 313.137C467.809 317.011 467.809 323.292 471.683 327.166C475.557 331.04 481.838 331.04 485.712 327.166Z" fill="#344CB7" fill-opacity="0.27"/>
<path d="M537.36 378.813C540.571 375.603 540.571 370.397 537.36 367.187C534.15 363.976 528.944 363.976 525.733 367.187C522.523 370.397 522.523 375.603 525.733 378.813C528.944 382.024 534.15 382.024 537.36 378.813Z" fill="#344CB7" fill-opacity="0.27"/>
<path d="M588.984 430.437C591.518 427.903 591.518 423.795 588.984 421.261C586.45 418.727 582.341 418.727 579.807 421.261C577.273 423.795 577.273 427.903 579.807 430.437C582.341 432.971 586.45 432.971 588.984 430.437Z" fill="#344CB7" fill-opacity="0.27"/>
<path d="M640.632 482.085C642.502 480.214 642.502 477.181 640.632 475.311C638.761 473.44 635.728 473.44 633.857 475.311C631.987 477.181 631.987 480.214 633.857 482.085C635.728 483.956 638.761 483.956 640.632 482.085Z" fill="#344CB7" fill-opacity="0.27"/>
<path d="M692.256 533.709C693.45 532.515 693.45 530.579 692.256 529.385C691.062 528.191 689.126 528.191 687.932 529.385C686.738 530.579 686.738 532.515 687.932 533.709C689.126 534.903 691.062 534.903 692.256 533.709Z" fill="#344CB7" fill-opacity="0.27"/>
<path d="M322.938 58.693C324.477 57.154 324.477 54.6588 322.938 53.1199C321.399 51.5809 318.904 51.5809 317.365 53.1199C315.826 54.6589 315.826 57.1541 317.364 58.693C318.903 60.232 321.399 60.232 322.938 58.693Z" fill="#344CB7" fill-opacity="0.27"/>
<path d="M376.675 112.431C378.705 110.401 378.705 107.11 376.675 105.08C374.646 103.05 371.354 103.05 369.325 105.08C367.295 107.11 367.295 110.401 369.325 112.431C371.354 114.461 374.646 114.461 376.675 112.431Z" fill="#344CB7" fill-opacity="0.27"/>
<path d="M430.437 166.193C432.971 163.659 432.971 159.55 430.437 157.016C427.903 154.482 423.795 154.482 421.261 157.016C418.727 159.55 418.727 163.659 421.261 166.193C423.795 168.727 427.903 168.727 430.437 166.193Z" fill="#344CB7" fill-opacity="0.27"/>
<path d="M484.199 219.954C487.237 216.916 487.237 211.99 484.199 208.952C481.161 205.914 476.235 205.914 473.197 208.952C470.159 211.99 470.159 216.916 473.197 219.954C476.235 222.992 481.161 222.992 484.199 219.954Z" fill="#344CB7" fill-opacity="0.27"/>
<path d="M537.048 272.803C540.086 269.765 540.086 264.839 537.048 261.801C534.01 258.763 529.084 258.763 526.046 261.801C523.008 264.839 523.008 269.765 526.046 272.803C529.084 275.841 534.01 275.841 537.048 272.803Z" fill="#344CB7" fill-opacity="0.27"/>
<path d="M588.984 324.739C591.518 322.205 591.518 318.097 588.984 315.563C586.45 313.029 582.341 313.029 579.807 315.563C577.273 318.097 577.273 322.205 579.807 324.739C582.341 327.273 586.45 327.273 588.984 324.739Z" fill="#344CB7" fill-opacity="0.27"/>
<path d="M640.92 376.675C642.95 374.646 642.95 371.354 640.92 369.325C638.89 367.295 635.599 367.295 633.569 369.325C631.539 371.354 631.539 374.646 633.569 376.675C635.599 378.705 638.89 378.705 640.92 376.675Z" fill="#344CB7" fill-opacity="0.27"/>
<path d="M692.88 428.636C694.419 427.097 694.419 424.601 692.88 423.062C691.341 421.523 688.846 421.523 687.307 423.062C685.768 424.601 685.768 427.097 687.307 428.636C688.846 430.174 691.341 430.174 692.88 428.636Z" fill="#344CB7" fill-opacity="0.27"/>
<path d="M375.162 5.21953C376.356 4.02549 376.356 2.08958 375.162 0.895539C373.968 -0.298501 372.032 -0.298519 370.838 0.895521C369.644 2.08956 369.644 4.02547 370.838 5.21951C372.032 6.41355 373.968 6.41357 375.162 5.21953Z" fill="#344CB7" fill-opacity="0.27"/>
<path d="M428.636 58.693C430.174 57.154 430.175 54.6588 428.636 53.1199C427.097 51.5809 424.601 51.5809 423.062 53.1199C421.523 54.6589 421.523 57.1541 423.062 58.693C424.601 60.232 427.097 60.232 428.636 58.693Z" fill="#344CB7" fill-opacity="0.27"/>
<path d="M482.085 112.143C483.956 110.272 483.956 107.239 482.085 105.368C480.214 103.498 477.181 103.498 475.311 105.368C473.44 107.239 473.44 110.272 475.311 112.143C477.181 114.013 480.214 114.013 482.085 112.143Z" fill="#344CB7" fill-opacity="0.27"/>
<path d="M535.534 165.592C537.737 163.39 537.737 159.819 535.534 157.617C533.332 155.414 529.761 155.414 527.559 157.617C525.357 159.819 525.357 163.39 527.559 165.592C529.761 167.794 533.332 167.794 535.534 165.592Z" fill="#344CB7" fill-opacity="0.27"/>
<path d="M588.383 218.441C590.586 216.239 590.586 212.668 588.383 210.466C586.181 208.263 582.61 208.263 580.408 210.466C578.206 212.668 578.206 216.239 580.408 218.441C582.61 220.643 586.181 220.643 588.383 218.441Z" fill="#344CB7" fill-opacity="0.27"/>
<path d="M640.632 270.689C642.502 268.819 642.502 265.786 640.632 263.915C638.761 262.044 635.728 262.044 633.857 263.915C631.987 265.786 631.987 268.819 633.857 270.689C635.728 272.56 638.761 272.56 640.632 270.689Z" fill="#344CB7" fill-opacity="0.27"/>
<path d="M692.88 322.938C694.419 321.399 694.419 318.903 692.88 317.364C691.341 315.826 688.846 315.826 687.307 317.364C685.768 318.903 685.768 321.399 687.307 322.938C688.846 324.477 691.341 324.477 692.88 322.938Z" fill="#344CB7" fill-opacity="0.27"/>
<path d="M745.104 375.162C746.299 373.968 746.299 372.032 745.104 370.838C743.91 369.644 741.975 369.644 740.78 370.838C739.586 372.032 739.586 373.968 740.78 375.162C741.975 376.356 743.91 376.356 745.104 375.162Z" fill="#344CB7" fill-opacity="0.27"/>
<path d="M533.709 58.0685C534.903 56.8744 534.903 54.9385 533.709 53.7445C532.515 52.5504 530.579 52.5504 529.385 53.7444C528.191 54.9385 528.191 56.8744 529.385 58.0684C530.579 59.2625 532.515 59.2625 533.709 58.0685Z" fill="#344CB7" fill-opacity="0.27"/>
<path d="M586.87 111.23C588.236 109.863 588.236 107.648 586.87 106.281C585.503 104.915 583.288 104.915 581.921 106.281C580.555 107.648 580.555 109.863 581.921 111.23C583.288 112.596 585.503 112.596 586.87 111.23Z" fill="#344CB7" fill-opacity="0.27"/>
<path d="M639.719 164.079C641.085 162.712 641.085 160.497 639.719 159.13C638.352 157.763 636.137 157.763 634.77 159.13C633.404 160.497 633.404 162.712 634.77 164.079C636.137 165.445 638.352 165.445 639.719 164.079Z" fill="#344CB7" fill-opacity="0.27"/>
<path d="M692.256 216.615C693.45 215.421 693.45 213.485 692.256 212.291C691.062 211.097 689.126 211.097 687.932 212.291C686.738 213.485 686.738 215.421 687.932 216.615C689.126 217.809 691.062 217.809 692.256 216.615Z" fill="#344CB7" fill-opacity="0.27"/>
</svg>
