<svg width="888" height="662" viewBox="0 0 888 662" fill="none" xmlns="http://www.w3.org/2000/svg">
<path d="M425.035 506.432C425.035 506.432 425.832 504.344 425.035 503.547C424.238 502.75 422.946 502.75 422.149 503.547C421.352 504.344 421.352 505.635 422.149 506.432C422.946 507.229 425.035 506.432 425.035 506.432Z" fill="#344CB7" fill-opacity="0.27"/>
<path d="M460.532 547.92C461.444 547.008 461.444 545.529 460.532 544.618C459.62 543.706 458.141 543.706 457.229 544.618C456.316 545.529 456.316 547.008 457.229 547.92C458.141 548.831 459.62 548.831 460.532 547.92Z" fill="#344CB7" fill-opacity="0.27"/>
<path d="M505.89 582.951C506.802 582.039 506.802 580.561 505.89 579.649C504.978 578.737 503.499 578.737 502.586 579.649C501.674 580.561 501.674 582.039 502.586 582.951C503.499 583.863 504.978 583.863 505.89 582.951Z" fill="#344CB7" fill-opacity="0.27"/>
<path d="M550.057 605.808C550.854 605.011 550.854 603.72 550.057 602.923C549.26 602.126 547.968 602.126 547.171 602.923C546.374 603.72 546.374 605.011 547.171 605.808C547.968 606.605 549.26 606.605 550.057 605.808Z" fill="#344CB7" fill-opacity="0.27"/>
<path d="M380.907 497.375C381.934 496.348 381.934 494.684 380.907 493.657C379.88 492.63 378.214 492.63 377.187 493.657C376.159 494.684 376.159 496.348 377.187 497.375C378.214 498.402 379.88 498.402 380.907 497.375Z" fill="#344CB7" fill-opacity="0.27"/>
<path d="M480.318 465.57C481.567 464.321 481.567 462.298 480.318 461.049C479.069 459.801 477.045 459.801 475.796 461.049C474.547 462.298 474.547 464.321 475.796 465.57C477.045 466.818 479.069 466.818 480.318 465.57Z" fill="#344CB7" fill-opacity="0.27"/>
<path d="M515.997 501.234C517.467 499.765 517.467 497.382 515.997 495.913C514.527 494.443 512.144 494.443 510.674 495.913C509.203 497.382 509.203 499.765 510.674 501.234C512.144 502.704 514.527 502.704 515.997 501.234Z" fill="#344CB7" fill-opacity="0.27"/>
<path d="M551.276 536.498C552.746 535.029 552.746 532.646 551.276 531.177C549.806 529.707 547.422 529.707 545.952 531.177C544.482 532.646 544.482 535.029 545.952 536.498C547.422 537.968 549.806 537.968 551.276 536.498Z" fill="#344CB7" fill-opacity="0.27"/>
<path d="M586.154 571.362C587.402 570.113 587.402 568.09 586.154 566.841C584.905 565.593 582.88 565.593 581.632 566.841C580.383 568.09 580.383 570.113 581.632 571.362C582.88 572.61 584.905 572.61 586.154 571.362Z" fill="#344CB7" fill-opacity="0.27"/>
<path d="M621.031 606.225C622.059 605.198 622.059 603.533 621.031 602.506C620.004 601.479 618.338 601.479 617.311 602.506C616.284 603.533 616.284 605.198 617.311 606.225C618.338 607.252 620.004 607.252 621.031 606.225Z" fill="#344CB7" fill-opacity="0.27"/>
<path d="M655.893 641.072C656.69 640.275 656.69 638.984 655.893 638.187C655.096 637.39 653.803 637.39 653.006 638.187C652.209 638.984 652.209 640.275 653.006 641.072C653.803 641.869 655.096 641.869 655.893 641.072Z" fill="#344CB7" fill-opacity="0.27"/>
<path d="M552.286 466.98C554.314 464.953 554.314 461.666 552.286 459.639C550.258 457.612 546.97 457.612 544.942 459.639C542.914 461.666 542.914 464.953 544.942 466.98C546.97 469.007 550.258 469.007 552.286 466.98Z" fill="#344CB7" fill-opacity="0.27"/>
<path d="M587.565 502.244C589.593 500.217 589.593 496.93 587.565 494.903C585.537 492.876 582.248 492.876 580.22 494.903C578.192 496.93 578.192 500.217 580.22 502.244C582.248 504.271 585.537 504.271 587.565 502.244Z" fill="#344CB7" fill-opacity="0.27"/>
<path d="M622.234 536.899C623.925 535.208 623.925 532.467 622.234 530.776C620.542 529.085 617.8 529.085 616.108 530.776C614.417 532.467 614.417 535.208 616.108 536.899C617.8 538.59 620.542 538.59 622.234 536.899Z" fill="#344CB7" fill-opacity="0.27"/>
<path d="M656.903 571.554C658.258 570.199 658.258 568.003 656.903 566.649C655.548 565.295 653.351 565.295 651.996 566.649C650.641 568.003 650.641 570.199 651.996 571.554C653.351 572.908 655.548 572.908 656.903 571.554Z" fill="#344CB7" fill-opacity="0.27"/>
<path d="M691.588 606.225C692.615 605.198 692.615 603.533 691.588 602.506C690.561 601.479 688.895 601.479 687.868 602.506C686.84 603.533 686.84 605.198 687.868 606.225C688.895 607.252 690.561 607.252 691.588 606.225Z" fill="#344CB7" fill-opacity="0.27"/>
<path d="M588.575 432.726C591.161 430.141 591.161 425.95 588.575 423.365C585.989 420.78 581.796 420.78 579.21 423.365C576.624 425.95 576.624 430.141 579.21 432.726C581.796 435.311 585.989 435.311 588.575 432.726Z" fill="#344CB7" fill-opacity="0.27"/>
<path d="M623.853 467.99C626.44 465.405 626.44 461.214 623.853 458.629C621.267 456.044 617.075 456.044 614.489 458.629C611.903 461.214 611.903 465.405 614.489 467.99C617.075 470.575 621.267 470.575 623.853 467.99Z" fill="#344CB7" fill-opacity="0.27"/>
<path d="M658.33 502.453C660.473 500.31 660.473 496.837 658.33 494.694C656.187 492.552 652.712 492.552 650.569 494.694C648.426 496.837 648.426 500.31 650.569 502.453C652.712 504.595 656.187 504.595 658.33 502.453Z" fill="#344CB7" fill-opacity="0.27"/>
<path d="M754.247 615.202C755.939 613.511 755.939 610.77 754.247 609.079C752.555 607.388 749.813 607.388 748.121 609.079C746.43 610.77 746.43 613.511 748.121 615.202C749.813 616.893 752.555 616.893 754.247 615.202Z" fill="#344CB7" fill-opacity="0.27"/>
<path d="M727.267 571.362C728.516 570.113 728.516 568.09 727.267 566.841C726.019 565.593 723.994 565.593 722.745 566.841C721.496 568.09 721.496 570.113 722.745 571.362C723.994 572.61 726.019 572.61 727.267 571.362Z" fill="#344CB7" fill-opacity="0.27"/>
<path d="M816.321 620.874C817.118 620.077 817.118 618.785 816.321 617.989C815.524 617.192 814.232 617.192 813.435 617.989C812.638 618.785 812.638 620.077 813.435 620.874C814.232 621.671 815.524 621.671 816.321 620.874Z" fill="#344CB7" fill-opacity="0.27"/>
<path d="M475.796 281.85C478.382 279.265 478.382 275.074 475.796 272.489C473.21 269.904 469.017 269.904 466.431 272.489C463.845 275.074 463.845 279.265 466.431 281.85C469.017 284.435 473.21 284.435 475.796 281.85Z" fill="#344CB7" fill-opacity="0.27"/>
<path d="M260.669 363.208C262.697 361.181 262.697 357.894 260.669 355.867C258.641 353.839 255.353 353.839 253.325 355.867C251.297 357.894 251.297 361.181 253.325 363.208C255.353 365.235 258.641 365.235 260.669 363.208Z" fill="#344CB7" fill-opacity="0.27"/>
<path d="M785.955 584.97C787.425 583.501 787.425 581.118 785.955 579.649C784.485 578.179 782.101 578.179 780.631 579.649C779.161 581.118 779.161 583.501 780.631 584.97C782.101 586.44 784.485 586.44 785.955 584.97Z" fill="#344CB7" fill-opacity="0.27"/>
<path d="M851.808 585.818C852.72 584.907 852.72 583.428 851.808 582.516C850.896 581.605 849.417 581.605 848.505 582.516C847.592 583.428 847.592 584.907 848.505 585.818C849.417 586.73 850.896 586.73 851.808 585.818Z" fill="#344CB7" fill-opacity="0.27"/>
<path d="M461.668 339.325C464.812 336.182 464.812 331.087 461.668 327.944C458.524 324.801 453.427 324.801 450.283 327.944C447.139 331.087 447.139 336.182 450.283 339.325C453.427 342.467 458.524 342.467 461.668 339.325Z" fill="#344CB7" fill-opacity="0.27"/>
<path d="M261.68 293.69C264.266 291.105 264.266 286.914 261.68 284.329C259.094 281.744 254.901 281.744 252.315 284.329C249.729 286.914 249.729 291.105 252.315 293.69C254.901 296.275 259.094 296.275 261.68 293.69Z" fill="#344CB7" fill-opacity="0.27"/>
<path d="M295.947 327.944C297.976 325.917 297.976 322.63 295.947 320.603C293.919 318.575 290.631 318.575 288.603 320.603C286.575 322.63 286.575 325.917 288.603 327.944C290.631 329.971 293.919 329.971 295.947 327.944Z" fill="#344CB7" fill-opacity="0.27"/>
<path d="M330.216 362.198C331.686 360.729 331.686 358.346 330.216 356.876C328.746 355.407 326.362 355.407 324.892 356.876C323.422 358.346 323.422 360.729 324.892 362.198C326.362 363.668 328.746 363.668 330.216 362.198Z" fill="#344CB7" fill-opacity="0.27"/>
<path d="M887.086 521.529C887.999 520.617 887.999 519.138 887.086 518.227C886.174 517.315 884.695 517.315 883.783 518.227C882.871 519.138 882.871 520.617 883.783 521.529C884.695 522.44 886.174 522.44 887.086 521.529Z" fill="#344CB7" fill-opacity="0.27"/>
<path d="M226.401 187.898C228.987 185.313 228.987 181.122 226.401 178.537C223.815 175.952 219.623 175.952 217.037 178.537C214.451 181.122 214.451 185.313 217.037 187.898C219.623 190.483 223.815 190.483 226.401 187.898Z" fill="#344CB7" fill-opacity="0.27"/>
<path d="M261.68 223.162C264.266 220.577 264.266 216.386 261.68 213.801C259.094 211.216 254.901 211.216 252.315 213.801C249.729 216.386 249.729 220.577 252.315 223.162C254.901 225.747 259.094 225.747 261.68 223.162Z" fill="#344CB7" fill-opacity="0.27"/>
<path d="M296.156 257.624C298.299 255.482 298.299 252.009 296.156 249.866C294.013 247.724 290.538 247.724 288.395 249.866C286.251 252.009 286.251 255.482 288.395 257.624C290.538 259.767 294.013 259.767 296.156 257.624Z" fill="#344CB7" fill-opacity="0.27"/>
<path d="M330.617 292.071C332.308 290.38 332.308 287.639 330.617 285.948C328.925 284.257 326.183 284.257 324.491 285.948C322.799 287.639 322.799 290.38 324.491 292.071C326.183 293.762 328.925 293.762 330.617 292.071Z" fill="#344CB7" fill-opacity="0.27"/>
<path d="M365.093 326.533C366.341 325.285 366.341 323.261 365.093 322.013C363.844 320.765 361.819 320.765 360.571 322.013C359.322 323.261 359.322 325.285 360.571 326.533C361.819 327.782 363.844 327.782 365.093 326.533Z" fill="#344CB7" fill-opacity="0.27"/>
<path d="M361.18 398.953C362.207 397.926 362.207 396.261 361.18 395.234C360.153 394.207 358.487 394.207 357.46 395.234C356.432 396.261 356.432 397.926 357.46 398.953C358.487 399.98 360.153 399.98 361.18 398.953Z" fill="#344CB7" fill-opacity="0.27"/>
<path d="M375.518 455.238C376.873 453.884 376.873 451.688 375.518 450.334C374.163 448.979 371.966 448.979 370.611 450.334C369.256 451.688 369.256 453.884 370.611 455.238C371.966 456.593 374.163 456.593 375.518 455.238Z" fill="#344CB7" fill-opacity="0.27"/>
<path d="M224.782 115.751C226.473 114.06 226.473 111.319 224.782 109.628C223.09 107.937 220.348 107.937 218.656 109.628C216.965 111.319 216.965 114.06 218.656 115.751C220.348 117.442 223.09 117.442 224.782 115.751Z" fill="#344CB7" fill-opacity="0.27"/>
<path d="M260.669 151.624C262.697 149.597 262.697 146.31 260.669 144.283C258.641 142.255 255.353 142.255 253.325 144.283C251.297 146.31 251.297 149.597 253.325 151.624C255.353 153.651 258.641 153.651 260.669 151.624Z" fill="#344CB7" fill-opacity="0.27"/>
<path d="M295.947 186.888C297.976 184.861 297.976 181.574 295.947 179.547C293.919 177.519 290.631 177.519 288.603 179.547C286.575 181.574 286.575 184.861 288.603 186.888C290.631 188.915 293.919 188.915 295.947 186.888Z" fill="#344CB7" fill-opacity="0.27"/>
<path d="M330.617 221.543C332.308 219.852 332.308 217.111 330.617 215.42C328.925 213.729 326.183 213.729 324.491 215.42C322.799 217.111 322.799 219.852 324.491 221.543C326.183 223.234 328.925 223.234 330.617 221.543Z" fill="#344CB7" fill-opacity="0.27"/>
<path d="M365.285 256.198C366.64 254.843 366.64 252.647 365.285 251.293C363.93 249.938 361.733 249.938 360.378 251.293C359.023 252.647 359.023 254.843 360.378 256.198C361.733 257.552 363.93 257.552 365.285 256.198Z" fill="#344CB7" fill-opacity="0.27"/>
<path d="M399.97 290.869C400.998 289.842 400.998 288.177 399.97 287.15C398.943 286.123 397.277 286.123 396.25 287.15C395.223 288.177 395.223 289.842 396.25 290.869C397.277 291.896 398.943 291.896 399.97 290.869Z" fill="#344CB7" fill-opacity="0.27"/>
<path d="M314.343 401.838C315.14 401.041 315.14 399.749 314.343 398.953C313.545 398.156 312.253 398.156 311.456 398.953C310.659 399.749 310.659 401.041 311.456 401.838C312.253 402.635 313.545 402.635 314.343 401.838Z" fill="#344CB7" fill-opacity="0.27"/>
<path d="M223.579 44.0207C224.607 42.9938 224.607 41.3289 223.579 40.302C222.552 39.2751 220.886 39.2751 219.859 40.302C218.832 41.3289 218.832 42.9938 219.859 44.0207C220.886 45.0476 222.552 45.0476 223.579 44.0207Z" fill="#344CB7" fill-opacity="0.27"/>
<path d="M259.258 79.6855C260.507 78.4372 260.507 76.4135 259.258 75.1653C258.01 73.917 255.985 73.917 254.736 75.1653C253.487 76.4135 253.487 78.4372 254.736 79.6855C255.985 80.9337 258.01 80.9337 259.258 79.6855Z" fill="#344CB7" fill-opacity="0.27"/>
<path d="M294.937 115.35C296.407 113.881 296.407 111.498 294.937 110.029C293.467 108.559 291.084 108.559 289.613 110.029C288.143 111.498 288.143 113.881 289.613 115.35C291.084 116.82 293.467 116.82 294.937 115.35Z" fill="#344CB7" fill-opacity="0.27"/>
<path d="M330.216 150.614C331.686 149.145 331.686 146.762 330.216 145.293C328.746 143.823 326.362 143.823 324.892 145.293C323.422 146.762 323.422 149.145 324.892 150.614C326.362 152.084 328.746 152.084 330.216 150.614Z" fill="#344CB7" fill-opacity="0.27"/>
<path d="M365.093 185.477C366.341 184.229 366.341 182.205 365.093 180.957C363.844 179.709 361.819 179.709 360.571 180.957C359.322 182.205 359.322 184.229 360.571 185.477C361.819 186.726 363.844 186.726 365.093 185.477Z" fill="#344CB7" fill-opacity="0.27"/>
<path d="M399.97 220.341C400.998 219.314 400.998 217.649 399.97 216.622C398.943 215.595 397.277 215.595 396.25 216.622C395.223 217.649 395.223 219.314 396.25 220.341C397.277 221.368 398.943 221.368 399.97 220.341Z" fill="#344CB7" fill-opacity="0.27"/>
<path d="M434.832 255.188C435.629 254.391 435.629 253.099 434.832 252.303C434.035 251.506 432.742 251.506 431.945 252.303C431.148 253.099 431.148 254.391 431.945 255.188C432.742 255.985 434.035 255.985 434.832 255.188Z" fill="#344CB7" fill-opacity="0.27"/>
<path d="M293.719 43.604C294.516 42.8072 294.516 41.5155 293.719 40.7188C292.922 39.922 291.629 39.922 290.832 40.7187C290.035 41.5155 290.035 42.8072 290.832 43.604C291.629 44.4007 292.922 44.4007 293.719 43.604Z" fill="#344CB7" fill-opacity="0.27"/>
<path d="M329.205 79.0763C330.118 78.1645 330.118 76.6862 329.205 75.7744C328.293 74.8625 326.814 74.8625 325.902 75.7744C324.99 76.6862 324.99 78.1645 325.902 79.0763C326.814 79.9882 328.293 79.9882 329.205 79.0763Z" fill="#344CB7" fill-opacity="0.27"/>
<path d="M364.483 114.34C365.396 113.429 365.396 111.95 364.483 111.038C363.571 110.127 362.092 110.127 361.18 111.038C360.268 111.95 360.268 113.429 361.18 114.34C362.092 115.252 363.571 115.252 364.483 114.34Z" fill="#344CB7" fill-opacity="0.27"/>
<path d="M399.553 149.396C400.35 148.599 400.35 147.307 399.553 146.511C398.756 145.714 397.464 145.714 396.667 146.511C395.87 147.307 395.87 148.599 396.667 149.396C397.464 150.193 398.756 150.193 399.553 149.396Z" fill="#344CB7" fill-opacity="0.27"/>
<path d="M692.775 539.579C694.13 538.224 694.13 536.028 692.775 534.674C691.42 533.32 689.223 533.32 687.868 534.674C686.513 536.028 686.513 538.224 687.868 539.579C689.223 540.933 691.42 540.933 692.775 539.579Z" fill="#344CB7" fill-opacity="0.27"/>
<path d="M723.423 650.01C724.22 649.214 724.22 647.922 723.423 647.125C722.626 646.328 721.334 646.328 720.537 647.125C719.739 647.922 719.739 649.214 720.537 650.01C721.334 650.807 722.626 650.807 723.423 650.01Z" fill="#344CB7" fill-opacity="0.27"/>
<path d="M655.893 641.072C656.69 640.275 656.69 638.984 655.893 638.187C655.096 637.39 653.803 637.39 653.006 638.187C652.209 638.984 652.209 640.275 653.006 641.072C653.803 641.869 655.096 641.869 655.893 641.072Z" fill="#344CB7" fill-opacity="0.27"/>
<path d="M769.149 661.02C769.946 660.223 769.946 658.932 769.149 658.135C768.352 657.338 767.06 657.338 766.263 658.135C765.466 658.932 765.466 660.223 766.263 661.02C767.06 661.817 768.352 661.817 769.149 661.02Z" fill="#344CB7" fill-opacity="0.27"/>
<path d="M824.638 554.926C825.55 554.014 825.55 552.536 824.638 551.624C823.725 550.712 822.247 550.712 821.334 551.624C820.422 552.536 820.422 554.014 821.334 554.926C822.247 555.838 823.725 555.838 824.638 554.926Z" fill="#344CB7" fill-opacity="0.27"/>
<path d="M866.359 543.249C867.271 542.337 867.271 540.859 866.359 539.947C865.446 539.035 863.967 539.035 863.055 539.947C862.143 540.859 862.143 542.337 863.055 543.249C863.967 544.161 865.446 544.161 866.359 543.249Z" fill="#344CB7" fill-opacity="0.27"/>
<path d="M766.263 544.099C767.511 542.851 767.511 540.827 766.263 539.579C765.014 538.331 762.989 538.331 761.741 539.579C760.492 540.827 760.492 542.851 761.741 544.099C762.989 545.347 765.014 545.347 766.263 544.099Z" fill="#344CB7" fill-opacity="0.27"/>
<path d="M22.0599 74.5485C22.857 73.7517 22.857 72.46 22.0599 71.6632C21.2628 70.8665 19.9706 70.8665 19.1735 71.6632C18.3764 72.46 18.3764 73.7518 19.1735 74.5485C19.9706 75.3453 21.2628 75.3452 22.0599 74.5485Z" fill="#344CB7" fill-opacity="0.27"/>
<path d="M133.586 22.6196C134.613 21.5927 134.613 19.9277 133.586 18.9008C132.559 17.8739 130.893 17.8739 129.866 18.9008C128.838 19.9277 128.838 21.5927 129.866 22.6196C130.893 23.6465 132.559 23.6465 133.586 22.6196Z" fill="#344CB7" fill-opacity="0.27"/>
<path d="M171.354 179.547C173.497 177.404 173.497 173.931 171.354 171.789C169.211 169.646 165.736 169.646 163.593 171.789C161.449 173.931 161.449 177.404 163.593 179.547C165.736 181.689 169.211 181.689 171.354 179.547Z" fill="#344CB7" fill-opacity="0.27"/>
<path d="M126.194 150.614C127.886 148.923 127.886 146.182 126.194 144.491C124.503 142.8 121.76 142.8 120.069 144.491C118.377 146.182 118.377 148.923 120.069 150.614C121.76 152.305 124.503 152.305 126.194 150.614Z" fill="#344CB7" fill-opacity="0.27"/>
<path d="M166.429 17.6151C167.678 16.3669 167.678 14.3432 166.429 13.0949C165.181 11.8467 163.156 11.8467 161.907 13.0949C160.659 14.3432 160.659 16.3669 161.907 17.6151C163.156 18.8634 165.181 18.8634 166.429 17.6151Z" fill="#344CB7" fill-opacity="0.27"/>
<path d="M147.889 51.1136C148.686 50.3168 148.686 49.0251 147.889 48.2284C147.092 47.4316 145.8 47.4316 145.003 48.2284C144.206 49.0251 144.206 50.3168 145.003 51.1136C145.8 51.9103 147.092 51.9103 147.889 51.1136Z" fill="#344CB7" fill-opacity="0.27"/>
<path d="M168.916 118.705C170.386 117.236 170.386 114.853 168.916 113.383C167.446 111.914 165.063 111.914 163.592 113.383C162.122 114.853 162.122 117.236 163.592 118.705C165.063 120.175 167.446 120.175 168.916 118.705Z" fill="#344CB7" fill-opacity="0.27"/>
<path d="M126.194 87.6775C127.106 86.7657 127.106 85.2873 126.194 84.3755C125.282 83.4637 123.803 83.4637 122.891 84.3755C121.979 85.2873 121.979 86.7657 122.891 87.6775C123.803 88.5893 125.282 88.5893 126.194 87.6775Z" fill="#344CB7" fill-opacity="0.27"/>
<path d="M244.981 4.60357C245.893 3.69175 245.893 2.21342 244.981 1.3016C244.069 0.389782 242.59 0.389782 241.678 1.3016C240.766 2.21342 240.766 3.69175 241.678 4.60357C242.59 5.51539 244.069 5.51539 244.981 4.60357Z" fill="#344CB7" fill-opacity="0.27"/>
<path d="M78.0322 123.61C79.3872 122.256 79.3872 120.06 78.0322 118.705C76.6772 117.351 74.4803 117.351 73.1253 118.705C71.7703 120.06 71.7703 122.256 73.1253 123.61C74.4803 124.964 76.6772 124.964 78.0322 123.61Z" fill="#344CB7" fill-opacity="0.27"/>
<path d="M86.1422 30.1756C86.9393 29.3789 86.9393 28.0872 86.1422 27.2904C85.3451 26.4937 84.0529 26.4937 83.2558 27.2904C82.4588 28.0872 82.4588 29.3789 83.2558 30.1756C84.0529 30.9724 85.3451 30.9724 86.1422 30.1756Z" fill="#344CB7" fill-opacity="0.27"/>
<path d="M22.0599 74.5485C22.857 73.7517 22.857 72.46 22.0599 71.6632C21.2628 70.8665 19.9706 70.8665 19.1735 71.6632C18.3764 72.46 18.3764 73.7518 19.1735 74.5485C19.9706 75.3453 21.2628 75.3452 22.0599 74.5485Z" fill="#344CB7" fill-opacity="0.27"/>
<path d="M70.789 61.3207C71.586 60.524 71.586 59.2322 70.789 58.4355C69.9919 57.6387 68.6996 57.6387 67.9025 58.4355C67.1055 59.2322 67.1055 60.524 67.9025 61.3207C68.6996 62.1174 69.9919 62.1174 70.789 61.3207Z" fill="#344CB7" fill-opacity="0.27"/>
<path d="M184.27 64.6227C185.182 63.7109 185.182 62.2325 184.27 61.3207C183.358 60.4089 181.879 60.4089 180.966 61.3207C180.054 62.2325 180.054 63.7109 180.966 64.6227C181.879 65.5345 183.358 65.5345 184.27 64.6227Z" fill="#344CB7" fill-opacity="0.27"/>
<path d="M195.917 17.6151C196.83 16.7033 196.83 15.225 195.917 14.3132C195.005 13.4014 193.526 13.4014 192.614 14.3132C191.702 15.225 191.702 16.7033 192.614 17.6151C193.526 18.527 195.005 18.527 195.917 17.6151Z" fill="#344CB7" fill-opacity="0.27"/>
<path d="M112.693 61.3207C113.942 60.0725 113.942 58.0487 112.693 56.8005C111.444 55.5523 109.42 55.5523 108.171 56.8005C106.922 58.0487 106.922 60.0725 108.171 61.3207C109.42 62.5689 111.444 62.5689 112.693 61.3207Z" fill="#344CB7" fill-opacity="0.27"/>
<path d="M404.011 356.876C406.597 354.291 406.597 350.1 404.011 347.515C401.425 344.93 397.233 344.93 394.646 347.515C392.06 350.1 392.06 354.291 394.646 356.876C397.233 359.461 401.425 359.461 404.011 356.876Z" fill="#344CB7" fill-opacity="0.27"/>
<path d="M466.431 389.65C469.575 386.507 469.575 381.412 466.431 378.269C463.287 375.127 458.19 375.127 455.046 378.269C451.902 381.412 451.902 386.507 455.046 389.65C458.19 392.793 463.287 392.793 466.431 389.65Z" fill="#344CB7" fill-opacity="0.27"/>
<path d="M527.383 327.944C530.527 324.801 530.527 319.706 527.383 316.563C524.239 313.421 519.141 313.421 515.997 316.563C512.853 319.706 512.853 324.801 515.997 327.944C519.141 331.087 524.239 331.087 527.383 327.944Z" fill="#344CB7" fill-opacity="0.27"/>
<path d="M523.673 378.269C526.817 375.127 526.817 370.031 523.673 366.889C520.529 363.746 515.432 363.746 512.288 366.889C509.144 370.031 509.144 375.127 512.288 378.269C515.432 381.412 520.529 381.412 523.673 378.269Z" fill="#344CB7" fill-opacity="0.27"/>
<path d="M517.275 429.905C520.419 426.762 520.419 421.667 517.275 418.524C514.131 415.381 509.034 415.381 505.89 418.524C502.746 421.667 502.746 426.762 505.89 429.905C509.034 433.048 514.131 433.048 517.275 429.905Z" fill="#344CB7" fill-opacity="0.27"/>
<path d="M573.442 378.269C576.028 375.684 576.028 371.493 573.442 368.908C570.856 366.323 566.663 366.323 564.077 368.908C561.491 371.493 561.491 375.684 564.077 378.269C566.663 380.854 570.856 380.854 573.442 378.269Z" fill="#344CB7" fill-opacity="0.27"/>
<path d="M438.953 470.41C441.539 467.825 441.539 463.634 438.953 461.049C436.367 458.464 432.174 458.464 429.588 461.049C427.002 463.634 427.002 467.825 429.588 470.41C432.174 472.995 436.367 472.995 438.953 470.41Z" fill="#344CB7" fill-opacity="0.27"/>
<path d="M440.156 428.687C441.626 427.217 441.626 424.835 440.156 423.365C438.686 421.895 436.302 421.895 434.832 423.365C433.362 424.835 433.362 427.217 434.832 428.687C436.302 430.156 438.686 430.156 440.156 428.687Z" fill="#344CB7" fill-opacity="0.27"/>
<path d="M407.893 401.838C409.363 400.368 409.363 397.986 407.893 396.516C406.423 395.047 404.039 395.047 402.569 396.516C401.099 397.986 401.099 400.368 402.569 401.838C404.04 403.307 406.423 403.307 407.893 401.838Z" fill="#344CB7" fill-opacity="0.27"/>
<path d="M49.0952 34.1792C49.8923 33.3825 49.8923 32.0907 49.0952 31.294C48.2981 30.4973 47.0059 30.4973 46.2088 31.294C45.4117 32.0907 45.4117 33.3826 46.2088 34.1793C47.0059 34.976 48.2981 34.9759 49.0952 34.1792Z" fill="#344CB7" fill-opacity="0.27"/>
<path d="M49.0952 34.1792C49.8923 33.3825 49.8923 32.0907 49.0952 31.294C48.2981 30.4973 47.0059 30.4973 46.2088 31.294C45.4117 32.0907 45.4117 33.3826 46.2088 34.1793C47.0059 34.976 48.2981 34.9759 49.0952 34.1792Z" fill="#344CB7" fill-opacity="0.27"/>
<path d="M4.25469 37.0645C5.05176 36.2678 5.05176 34.976 4.25469 34.1793C3.45763 33.3826 2.16535 33.3826 1.36829 34.1793C0.571227 34.976 0.571227 36.2679 1.36829 37.0646C2.16535 37.8613 3.45763 37.8612 4.25469 37.0645Z" fill="#344CB7" fill-opacity="0.27"/>
<path d="M4.25469 37.0645C5.05176 36.2678 5.05176 34.976 4.25469 34.1793C3.45763 33.3826 2.16535 33.3826 1.36829 34.1793C0.571227 34.976 0.571227 36.2679 1.36829 37.0646C2.16535 37.8613 3.45763 37.8612 4.25469 37.0645Z" fill="#344CB7" fill-opacity="0.27"/>
<path d="M41.3029 113.033C42.0999 112.237 42.0999 110.945 41.3029 110.148C40.5058 109.351 39.2135 109.351 38.4165 110.148C37.6194 110.945 37.6194 112.237 38.4165 113.033C39.2135 113.83 40.5058 113.83 41.3029 113.033Z" fill="#344CB7" fill-opacity="0.27"/>
<path d="M41.3029 113.033C42.0999 112.237 42.0999 110.945 41.3029 110.148C40.5058 109.351 39.2135 109.351 38.4165 110.148C37.6194 110.945 37.6194 112.237 38.4165 113.033C39.2135 113.83 40.5058 113.83 41.3029 113.033Z" fill="#344CB7" fill-opacity="0.27"/>
<path d="M136.093 173.087C136.89 172.29 136.89 170.998 136.093 170.202C135.296 169.405 134.003 169.405 133.206 170.202C132.409 170.998 132.409 172.29 133.206 173.087C134.003 173.884 135.296 173.883 136.093 173.087Z" fill="#344CB7" fill-opacity="0.27"/>
<path d="M136.093 173.087C136.89 172.29 136.89 170.998 136.093 170.202C135.296 169.405 134.003 169.405 133.206 170.202C132.409 170.998 132.409 172.29 133.206 173.087C134.003 173.884 135.296 173.883 136.093 173.087Z" fill="#344CB7" fill-opacity="0.27"/>
</svg>
