<svg width="1517" height="605" viewBox="0 0 1517 605" fill="none" xmlns="http://www.w3.org/2000/svg">
<path d="M12.1564 226.463C14.2074 224.412 14.2074 221.086 12.1564 219.035C10.1053 216.984 6.77991 216.984 4.72886 219.035C2.6778 221.086 2.6778 224.412 4.72886 226.463C6.77991 228.514 10.1053 228.514 12.1564 226.463Z" fill="#344CB7" fill-opacity="0.43"/>
<path d="M65.8537 280.16C67.972 278.042 67.972 274.607 65.8537 272.489C63.7354 270.371 60.3009 270.371 58.1826 272.489C56.0643 274.607 56.0643 278.042 58.1826 280.16C60.3009 282.278 63.7354 282.279 65.8537 280.16Z" fill="#344CB7" fill-opacity="0.43"/>
<path d="M119.551 333.857C121.737 331.672 121.737 328.128 119.551 325.943C117.365 323.757 113.822 323.757 111.636 325.943C109.451 328.128 109.451 331.672 111.636 333.857C113.822 336.043 117.365 336.043 119.551 333.857Z" fill="#344CB7" fill-opacity="0.43"/>
<path d="M173.005 387.311C175.123 385.193 175.123 381.758 173.005 379.64C170.887 377.522 167.452 377.522 165.334 379.64C163.215 381.758 163.215 385.193 165.334 387.311C167.452 389.43 170.886 389.429 173.005 387.311Z" fill="#344CB7" fill-opacity="0.43"/>
<path d="M226.459 440.765C228.51 438.714 228.51 435.388 226.459 433.337C224.408 431.286 221.082 431.286 219.031 433.337C216.98 435.388 216.98 438.714 219.031 440.765C221.082 442.816 224.408 442.816 226.459 440.765Z" fill="#344CB7" fill-opacity="0.43"/>
<path d="M279.912 494.219C281.896 492.235 281.896 489.018 279.912 487.035C277.928 485.051 274.712 485.051 272.728 487.035C270.745 489.018 270.744 492.235 272.728 494.219C274.712 496.202 277.929 496.203 279.912 494.219Z" fill="#344CB7" fill-opacity="0.43"/>
<path d="M13.1913 120.347C15.814 117.724 15.814 113.472 13.1913 110.849C10.5687 108.227 6.31653 108.227 3.69387 110.849C1.07121 113.472 1.0712 117.724 3.69385 120.347C6.31651 122.969 10.5687 122.969 13.1913 120.347Z" fill="#344CB7" fill-opacity="0.43"/>
<path d="M67.0104 174.166C69.7676 171.409 69.7676 166.938 67.0104 164.181C64.2533 161.424 59.7831 161.424 57.0259 164.181C54.2687 166.938 54.2687 171.409 57.0259 174.166C59.7831 176.923 64.2533 176.923 67.0104 174.166Z" fill="#344CB7" fill-opacity="0.43"/>
<path d="M120.83 227.985C123.721 225.093 123.721 220.405 120.83 217.513C117.938 214.622 113.25 214.622 110.358 217.513C107.466 220.405 107.466 225.093 110.358 227.985C113.25 230.876 117.938 230.877 120.83 227.985Z" fill="#344CB7" fill-opacity="0.43"/>
<path d="M174.649 281.804C177.675 278.778 177.675 273.871 174.649 270.845C171.622 267.819 166.716 267.819 163.69 270.845C160.664 273.871 160.664 278.778 163.69 281.804C166.716 284.83 171.622 284.83 174.649 281.804Z" fill="#344CB7" fill-opacity="0.43"/>
<path d="M227.981 335.136C230.872 332.244 230.872 327.556 227.981 324.664C225.089 321.773 220.401 321.773 217.509 324.664C214.617 327.556 214.617 332.244 217.509 335.136C220.401 338.028 225.089 338.028 227.981 335.136Z" fill="#344CB7" fill-opacity="0.43"/>
<path d="M281.313 388.468C284.07 385.711 284.07 381.241 281.313 378.483C278.555 375.726 274.085 375.726 271.328 378.483C268.571 381.241 268.571 385.711 271.328 388.468C274.085 391.225 278.555 391.225 281.313 388.468Z" fill="#344CB7" fill-opacity="0.43"/>
<path d="M334.645 441.8C337.267 439.177 337.267 434.925 334.645 432.302C332.022 429.68 327.77 429.68 325.147 432.302C322.524 434.925 322.524 439.177 325.147 441.8C327.77 444.423 332.022 444.423 334.645 441.8Z" fill="#344CB7" fill-opacity="0.43"/>
<path d="M388.038 495.193C390.559 492.671 390.559 488.582 388.038 486.061C385.516 483.539 381.427 483.539 378.905 486.061C376.384 488.582 376.384 492.671 378.905 495.193C381.427 497.715 385.516 497.715 388.038 495.193Z" fill="#344CB7" fill-opacity="0.43"/>
<path d="M441.37 548.525C443.757 546.138 443.757 542.267 441.37 539.88C438.982 537.492 435.112 537.492 432.724 539.88C430.337 542.267 430.337 546.138 432.724 548.525C435.112 550.912 438.982 550.912 441.37 548.525Z" fill="#344CB7" fill-opacity="0.43"/>
<path d="M14.0437 14.048C17.1371 10.9546 17.1371 5.93911 14.0437 2.84572C10.9503 -0.247667 5.9349 -0.247667 2.84151 2.84572C-0.251878 5.93911 -0.251848 10.9546 2.84154 14.048C5.93493 17.1414 10.9503 17.1414 14.0437 14.048Z" fill="#344CB7" fill-opacity="0.43"/>
<path d="M67.9845 67.9887C71.2797 64.6935 71.2797 59.3511 67.9845 56.0559C64.6894 52.7608 59.3469 52.7608 56.0518 56.0559C52.7567 59.3511 52.7566 64.6935 56.0518 67.9887C59.3469 71.2838 64.6894 71.2838 67.9845 67.9887Z" fill="#344CB7" fill-opacity="0.43"/>
<path d="M121.865 121.869C125.328 118.405 125.328 112.79 121.865 109.327C118.401 105.864 112.786 105.864 109.323 109.327C105.86 112.79 105.86 118.405 109.323 121.869C112.786 125.332 118.401 125.332 121.865 121.869Z" fill="#344CB7" fill-opacity="0.43"/>
<path d="M175.805 175.81C179.47 172.145 179.47 166.202 175.805 162.537C172.14 158.872 166.198 158.872 162.533 162.537C158.868 166.202 158.868 172.145 162.533 175.81C166.198 179.475 172.14 179.475 175.805 175.81Z" fill="#344CB7" fill-opacity="0.43"/>
<path d="M229.746 229.75C233.613 225.884 233.613 219.614 229.746 215.748C225.879 211.881 219.61 211.881 215.743 215.748C211.877 219.614 211.877 225.884 215.743 229.75C219.61 233.617 225.879 233.617 229.746 229.75Z" fill="#344CB7" fill-opacity="0.43"/>
<path d="M284.888 272.489C288.553 268.824 288.553 262.882 284.888 259.217C281.223 255.552 275.281 255.552 271.616 259.217C267.951 262.882 267.951 268.824 271.616 272.489C275.281 276.154 281.223 276.154 284.888 272.489Z" fill="#344CB7" fill-opacity="0.43"/>
<path d="M336.167 336.171C339.63 332.708 339.63 327.093 336.167 323.629C332.703 320.166 327.088 320.166 323.625 323.629C320.162 327.093 320.162 332.708 323.625 336.171C327.088 339.634 332.703 339.634 336.167 336.171Z" fill="#344CB7" fill-opacity="0.43"/>
<path d="M389.438 389.442C392.733 386.147 392.733 380.804 389.438 377.509C386.143 374.214 380.8 374.214 377.505 377.509C374.21 380.804 374.21 386.147 377.505 389.442C380.8 392.737 386.143 392.737 389.438 389.442Z" fill="#344CB7" fill-opacity="0.43"/>
<path d="M442.648 442.652C445.741 439.559 445.741 434.543 442.648 431.45C439.555 428.357 434.539 428.357 431.446 431.45C428.352 434.543 428.352 439.559 431.446 442.652C434.539 445.746 439.555 445.746 442.648 442.652Z" fill="#344CB7" fill-opacity="0.43"/>
<path d="M495.858 495.863C498.75 492.971 498.75 488.283 495.858 485.391C492.967 482.499 488.278 482.499 485.387 485.391C482.495 488.283 482.495 492.971 485.387 495.863C488.278 498.754 492.967 498.754 495.858 495.863Z" fill="#344CB7" fill-opacity="0.43"/>
<path d="M549.069 549.073C551.759 546.383 551.759 542.022 549.069 539.332C546.379 536.642 542.017 536.642 539.328 539.332C536.638 542.022 536.638 546.383 539.328 549.073C542.017 551.763 546.379 551.763 549.069 549.073Z" fill="#344CB7" fill-opacity="0.43"/>
<path d="M602.34 602.344C604.862 599.822 604.862 595.734 602.34 593.212C599.818 590.69 595.729 590.69 593.208 593.212C590.686 595.734 590.686 599.822 593.208 602.344C595.729 604.866 599.818 604.866 602.34 602.344Z" fill="#344CB7" fill-opacity="0.43"/>
<path d="M444.17 337.023C448.104 333.089 448.104 326.711 444.17 322.777C440.236 318.843 433.858 318.843 429.924 322.777C425.99 326.711 425.99 333.089 429.924 337.023C433.858 340.957 440.236 340.957 444.17 337.023Z" fill="#344CB7" fill-opacity="0.43"/>
<path d="M497.259 390.112C500.924 386.447 500.924 380.505 497.259 376.84C493.594 373.175 487.651 373.175 483.986 376.84C480.321 380.505 480.321 386.447 483.986 390.112C487.651 393.777 493.594 393.777 497.259 390.112Z" fill="#344CB7" fill-opacity="0.43"/>
<path d="M550.347 443.2C553.743 439.804 553.743 434.298 550.347 430.902C546.951 427.506 541.445 427.506 538.049 430.902C534.653 434.298 534.653 439.804 538.049 443.2C541.445 446.596 546.951 446.596 550.347 443.2Z" fill="#344CB7" fill-opacity="0.43"/>
<path d="M603.497 496.35C606.657 493.189 606.657 488.065 603.496 484.904C600.336 481.743 595.211 481.743 592.051 484.904C588.89 488.065 588.89 493.189 592.051 496.35C595.211 499.51 600.336 499.51 603.497 496.35Z" fill="#344CB7" fill-opacity="0.43"/>
<path d="M656.585 549.438C659.477 546.546 659.477 541.858 656.585 538.967C653.693 536.075 649.005 536.075 646.113 538.967C643.222 541.858 643.222 546.546 646.113 549.438C649.005 552.33 653.693 552.33 656.585 549.438Z" fill="#344CB7" fill-opacity="0.43"/>
<path d="M709.673 602.526C712.296 599.904 712.296 595.652 709.673 593.029C707.051 590.406 702.799 590.406 700.176 593.029C697.553 595.652 697.553 599.904 700.176 602.526C702.799 605.149 707.051 605.149 709.673 602.526Z" fill="#344CB7" fill-opacity="0.43"/>
<path d="M551.869 337.571C556.106 333.335 556.106 326.466 551.869 322.229C547.632 317.992 540.764 317.993 536.527 322.229C532.29 326.466 532.29 333.335 536.527 337.571C540.764 341.808 547.633 341.808 551.869 337.571Z" fill="#344CB7" fill-opacity="0.43"/>
<path d="M604.897 390.599C608.831 386.665 608.831 380.287 604.897 376.353C600.963 372.419 594.584 372.419 590.651 376.353C586.717 380.287 586.717 386.665 590.651 390.599C594.584 394.533 600.963 394.533 604.897 390.599Z" fill="#344CB7" fill-opacity="0.43"/>
<path d="M657.863 443.566C661.461 439.968 661.461 434.135 657.864 430.537C654.266 426.939 648.433 426.939 644.835 430.537C641.237 434.135 641.237 439.968 644.835 443.566C648.433 447.163 654.266 447.163 657.863 443.566Z" fill="#344CB7" fill-opacity="0.43"/>
<path d="M710.891 496.593C714.186 493.298 714.186 487.955 710.891 484.66C707.596 481.365 702.253 481.365 698.958 484.66C695.663 487.955 695.663 493.298 698.958 496.593C702.254 499.888 707.596 499.888 710.891 496.593Z" fill="#344CB7" fill-opacity="0.43"/>
<path d="M763.858 549.56C766.817 546.601 766.817 541.803 763.858 538.845C760.899 535.886 756.102 535.886 753.143 538.845C750.184 541.804 750.184 546.601 753.143 549.56C756.102 552.519 760.899 552.519 763.858 549.56Z" fill="#344CB7" fill-opacity="0.43"/>
<path d="M816.825 602.526C819.447 599.904 819.447 595.652 816.825 593.029C814.202 590.406 809.95 590.406 807.327 593.029C804.704 595.652 804.704 599.904 807.327 602.526C809.95 605.149 814.202 605.149 816.825 602.526Z" fill="#344CB7" fill-opacity="0.43"/>
<path d="M659.386 337.937C663.824 333.498 663.824 326.302 659.385 321.864C654.947 317.425 647.751 317.425 643.313 321.864C638.874 326.302 638.875 333.498 643.313 337.936C647.751 342.375 654.947 342.375 659.386 337.937Z" fill="#344CB7" fill-opacity="0.43"/>
<path d="M712.291 390.842C716.36 386.774 716.36 380.178 712.291 376.109C708.223 372.041 701.627 372.041 697.558 376.109C693.49 380.178 693.49 386.774 697.558 390.842C701.627 394.911 708.223 394.911 712.291 390.842Z" fill="#344CB7" fill-opacity="0.43"/>
<path d="M765.136 443.687C768.801 440.022 768.801 434.08 765.136 430.415C761.471 426.75 755.529 426.75 751.864 430.415C748.199 434.08 748.199 440.022 751.864 443.687C755.529 447.352 761.471 447.352 765.136 443.687Z" fill="#344CB7" fill-opacity="0.43"/>
<path d="M818.042 496.593C821.337 493.298 821.337 487.955 818.042 484.66C814.747 481.365 809.405 481.365 806.109 484.66C802.814 487.955 802.814 493.298 806.109 496.593C809.405 499.888 814.747 499.888 818.042 496.593Z" fill="#344CB7" fill-opacity="0.43"/>
<path d="M870.887 549.438C873.779 546.546 873.779 541.858 870.887 538.966C867.995 536.075 863.307 536.075 860.416 538.966C857.524 541.858 857.524 546.546 860.416 549.438C863.307 552.33 867.995 552.33 870.887 549.438Z" fill="#344CB7" fill-opacity="0.43"/>
<path d="M923.793 602.344C926.315 599.822 926.315 595.733 923.793 593.212C921.271 590.69 917.183 590.69 914.661 593.212C912.139 595.733 912.139 599.822 914.661 602.344C917.183 604.866 921.271 604.866 923.793 602.344Z" fill="#344CB7" fill-opacity="0.43"/>
<path d="M766.658 338.058C771.164 333.553 771.164 326.248 766.658 321.742C762.153 317.236 754.848 317.237 750.342 321.742C745.837 326.248 745.837 333.553 750.342 338.058C754.848 342.564 762.153 342.564 766.658 338.058Z" fill="#344CB7" fill-opacity="0.43"/>
<path d="M819.442 390.842C823.511 386.774 823.511 380.178 819.443 376.109C815.374 372.041 808.778 372.041 804.709 376.109C800.641 380.178 800.641 386.774 804.709 390.842C808.778 394.911 815.374 394.911 819.442 390.842Z" fill="#344CB7" fill-opacity="0.43"/>
<path d="M872.166 443.566C875.763 439.968 875.763 434.135 872.166 430.537C868.568 426.939 862.735 426.939 859.137 430.537C855.539 434.135 855.539 439.968 859.137 443.565C862.735 447.163 868.568 447.163 872.166 443.566Z" fill="#344CB7" fill-opacity="0.43"/>
<path d="M924.95 496.35C928.11 493.189 928.11 488.065 924.95 484.904C921.789 481.743 916.665 481.743 913.504 484.904C910.343 488.065 910.343 493.189 913.504 496.35C916.665 499.51 921.789 499.51 924.95 496.35Z" fill="#344CB7" fill-opacity="0.43"/>
<path d="M977.673 549.073C980.363 546.383 980.363 542.022 977.673 539.332C974.983 536.642 970.622 536.642 967.932 539.332C965.242 542.022 965.242 546.383 967.932 549.073C970.622 551.763 974.983 551.763 977.673 549.073Z" fill="#344CB7" fill-opacity="0.43"/>
<path d="M873.688 337.936C878.126 333.498 878.126 326.302 873.688 321.864C869.249 317.425 862.053 317.425 857.615 321.864C853.177 326.302 853.177 333.498 857.615 337.937C862.053 342.375 869.249 342.375 873.688 337.936Z" fill="#344CB7" fill-opacity="0.43"/>
<path d="M926.35 390.599C930.284 386.665 930.284 380.286 926.35 376.352C922.416 372.418 916.038 372.418 912.104 376.352C908.17 380.286 908.17 386.665 912.104 390.599C916.038 394.533 922.416 394.533 926.35 390.599Z" fill="#344CB7" fill-opacity="0.43"/>
<path d="M978.952 443.2C982.348 439.804 982.348 434.298 978.952 430.902C975.556 427.506 970.049 427.506 966.653 430.902C963.257 434.298 963.257 439.804 966.653 443.2C970.049 446.596 975.556 446.596 978.952 443.2Z" fill="#344CB7" fill-opacity="0.43"/>
<path d="M1031.61 495.863C1034.51 492.971 1034.51 488.283 1031.61 485.391C1028.72 482.499 1024.03 482.499 1021.14 485.391C1018.25 488.283 1018.25 492.971 1021.14 495.863C1024.03 498.754 1028.72 498.754 1031.61 495.863Z" fill="#344CB7" fill-opacity="0.43"/>
<path d="M1084.28 548.525C1086.66 546.138 1086.66 542.267 1084.28 539.88C1081.89 537.492 1078.02 537.492 1075.63 539.88C1073.24 542.267 1073.24 546.138 1075.63 548.525C1078.02 550.912 1081.89 550.912 1084.28 548.525Z" fill="#344CB7" fill-opacity="0.43"/>
<path d="M980.474 337.571C984.71 333.335 984.71 326.466 980.473 322.229C976.237 317.992 969.368 317.992 965.131 322.229C960.895 326.466 960.895 333.334 965.131 337.571C969.368 341.808 976.237 341.808 980.474 337.571Z" fill="#344CB7" fill-opacity="0.43"/>
<path d="M1033.01 390.112C1036.68 386.447 1036.68 380.505 1033.01 376.84C1029.35 373.175 1023.41 373.175 1019.74 376.84C1016.08 380.505 1016.08 386.447 1019.74 390.112C1023.41 393.777 1029.35 393.777 1033.01 390.112Z" fill="#344CB7" fill-opacity="0.43"/>
<path d="M1085.55 442.652C1088.65 439.559 1088.65 434.543 1085.55 431.45C1082.46 428.357 1077.45 428.357 1074.35 431.45C1071.26 434.543 1071.26 439.559 1074.35 442.652C1077.45 445.746 1082.46 445.746 1085.55 442.652Z" fill="#344CB7" fill-opacity="0.43"/>
<path d="M1138.1 495.193C1140.62 492.671 1140.62 488.582 1138.1 486.061C1135.57 483.539 1131.48 483.539 1128.96 486.061C1126.44 488.582 1126.44 492.671 1128.96 495.193C1131.48 497.715 1135.57 497.715 1138.1 495.193Z" fill="#344CB7" fill-opacity="0.43"/>
<path d="M1087.08 337.023C1091.01 333.089 1091.01 326.711 1087.08 322.777C1083.14 318.843 1076.76 318.843 1072.83 322.777C1068.9 326.711 1068.9 333.089 1072.83 337.023C1076.76 340.957 1083.14 340.957 1087.08 337.023Z" fill="#344CB7" fill-opacity="0.43"/>
<path d="M1139.5 389.442C1142.79 386.147 1142.79 380.804 1139.5 377.509C1136.2 374.214 1130.86 374.214 1127.56 377.509C1124.27 380.804 1124.27 386.147 1127.56 389.442C1130.86 392.737 1136.2 392.737 1139.5 389.442Z" fill="#344CB7" fill-opacity="0.43"/>
<path d="M1191.85 441.8C1194.48 439.177 1194.48 434.925 1191.85 432.302C1189.23 429.68 1184.98 429.68 1182.36 432.302C1179.73 434.925 1179.73 439.177 1182.36 441.8C1184.98 444.423 1189.23 444.423 1191.85 441.8Z" fill="#344CB7" fill-opacity="0.43"/>
<path d="M1244.27 494.219C1246.26 492.235 1246.26 489.018 1244.27 487.035C1242.29 485.051 1239.07 485.051 1237.09 487.035C1235.1 489.018 1235.1 492.235 1237.09 494.219C1239.07 496.203 1242.29 496.203 1244.27 494.219Z" fill="#344CB7" fill-opacity="0.43"/>
<path d="M1193.38 336.171C1196.84 332.708 1196.84 327.093 1193.38 323.629C1189.91 320.166 1184.3 320.166 1180.83 323.629C1177.37 327.093 1177.37 332.708 1180.83 336.171C1184.3 339.634 1189.91 339.634 1193.38 336.171Z" fill="#344CB7" fill-opacity="0.43"/>
<path d="M1245.67 388.468C1248.43 385.711 1248.43 381.241 1245.67 378.483C1242.92 375.726 1238.45 375.726 1235.69 378.483C1232.93 381.241 1232.93 385.711 1235.69 388.468C1238.45 391.225 1242.92 391.225 1245.67 388.468Z" fill="#344CB7" fill-opacity="0.43"/>
<path d="M1297.97 440.765C1300.02 438.714 1300.02 435.388 1297.97 433.337C1295.92 431.286 1292.59 431.286 1290.54 433.337C1288.49 435.388 1288.49 438.714 1290.54 440.765C1292.59 442.816 1295.92 442.816 1297.97 440.765Z" fill="#344CB7" fill-opacity="0.43"/>
<path d="M1247.32 282.961C1250.98 279.296 1250.98 273.354 1247.32 269.689C1243.65 266.024 1237.71 266.024 1234.04 269.689C1230.38 273.354 1230.38 279.296 1234.04 282.961C1237.71 286.626 1243.65 286.626 1247.32 282.961Z" fill="#344CB7" fill-opacity="0.43"/>
<path d="M1299.49 335.136C1302.38 332.244 1302.38 327.556 1299.49 324.664C1296.6 321.773 1291.91 321.773 1289.02 324.664C1286.13 327.556 1286.13 332.244 1289.02 335.136C1291.91 338.028 1296.6 338.028 1299.49 335.136Z" fill="#344CB7" fill-opacity="0.43"/>
<path d="M1351.67 387.311C1353.79 385.193 1353.79 381.758 1351.67 379.64C1349.55 377.522 1346.11 377.522 1344 379.64C1341.88 381.758 1341.88 385.193 1344 387.311C1346.11 389.43 1349.55 389.429 1351.67 387.311Z" fill="#344CB7" fill-opacity="0.43"/>
<path d="M1301.26 229.75C1305.12 225.884 1305.12 219.614 1301.26 215.748C1297.39 211.881 1291.12 211.881 1287.25 215.748C1283.39 219.614 1283.39 225.884 1287.25 229.75C1291.12 233.617 1297.39 233.617 1301.26 229.75Z" fill="#344CB7" fill-opacity="0.43"/>
<path d="M1353.31 281.804C1356.34 278.778 1356.34 273.871 1353.31 270.845C1350.28 267.819 1345.38 267.819 1342.35 270.845C1339.33 273.871 1339.33 278.778 1342.35 281.804C1345.38 284.83 1350.28 284.83 1353.31 281.804Z" fill="#344CB7" fill-opacity="0.43"/>
<path d="M1405.36 333.857C1407.55 331.672 1407.55 328.128 1405.36 325.943C1403.18 323.757 1399.64 323.757 1397.45 325.943C1395.26 328.128 1395.26 331.672 1397.45 333.857C1399.64 336.043 1403.18 336.043 1405.36 333.857Z" fill="#344CB7" fill-opacity="0.43"/>
<path d="M1354.47 175.809C1358.13 172.144 1358.13 166.202 1354.47 162.537C1350.8 158.872 1344.86 158.872 1341.2 162.537C1337.53 166.202 1337.53 172.145 1341.2 175.81C1344.86 179.475 1350.8 179.474 1354.47 175.809Z" fill="#344CB7" fill-opacity="0.43"/>
<path d="M1406.64 227.985C1409.53 225.093 1409.53 220.405 1406.64 217.513C1403.75 214.622 1399.06 214.622 1396.17 217.513C1393.28 220.405 1393.28 225.093 1396.17 227.985C1399.06 230.877 1403.75 230.877 1406.64 227.985Z" fill="#344CB7" fill-opacity="0.43"/>
<path d="M1458.82 280.16C1460.94 278.042 1460.94 274.607 1458.82 272.489C1456.7 270.371 1453.27 270.371 1451.15 272.489C1449.03 274.607 1449.03 278.042 1451.15 280.16C1453.27 282.279 1456.7 282.278 1458.82 280.16Z" fill="#344CB7" fill-opacity="0.43"/>
<path d="M1407.68 121.869C1411.14 118.405 1411.14 112.79 1407.68 109.327C1404.21 105.864 1398.6 105.864 1395.14 109.327C1391.67 112.79 1391.67 118.405 1395.14 121.869C1398.6 125.332 1404.21 125.332 1407.68 121.869Z" fill="#344CB7" fill-opacity="0.43"/>
<path d="M1459.97 174.166C1462.73 171.409 1462.73 166.938 1459.97 164.181C1457.22 161.424 1452.75 161.424 1449.99 164.181C1447.23 166.938 1447.23 171.409 1449.99 174.166C1452.75 176.923 1457.22 176.923 1459.97 174.166Z" fill="#344CB7" fill-opacity="0.43"/>
<path d="M1512.27 226.463C1514.32 224.412 1514.32 221.086 1512.27 219.035C1510.22 216.984 1506.9 216.984 1504.84 219.035C1502.79 221.086 1502.79 224.412 1504.84 226.463C1506.9 228.514 1510.22 228.514 1512.27 226.463Z" fill="#344CB7" fill-opacity="0.43"/>
<path d="M1460.95 67.9887C1464.24 64.6935 1464.24 59.3511 1460.95 56.0559C1457.65 52.7608 1452.31 52.761 1449.02 56.0562C1445.72 59.3513 1445.72 64.6935 1449.02 67.9887C1452.31 71.2838 1457.65 71.2838 1460.95 67.9887Z" fill="#344CB7" fill-opacity="0.43"/>
<path d="M1513.31 120.347C1515.93 117.724 1515.93 113.472 1513.31 110.849C1510.68 108.227 1506.43 108.227 1503.81 110.849C1501.19 113.472 1501.19 117.724 1503.81 120.347C1506.43 122.969 1510.68 122.969 1513.31 120.347Z" fill="#344CB7" fill-opacity="0.43"/>
<path d="M1514.16 14.048C1517.25 10.9546 1517.25 5.93911 1514.16 2.84572C1511.07 -0.247667 1506.05 -0.247667 1502.96 2.84572C1499.86 5.93911 1499.86 10.9546 1502.96 14.048C1506.05 17.1414 1511.07 17.1414 1514.16 14.048Z" fill="#344CB7" fill-opacity="0.43"/>
<path d="M602.34 296.815C604.862 294.293 604.862 290.205 602.34 287.683C599.818 285.161 595.73 285.161 593.208 287.683C590.686 290.205 590.686 294.293 593.208 296.815C595.73 299.337 599.818 299.337 602.34 296.815Z" fill="#344CB7" fill-opacity="0.43"/>
<path d="M709.674 296.997C712.296 294.375 712.296 290.123 709.674 287.5C707.051 284.877 702.799 284.877 700.176 287.5C697.553 290.123 697.553 294.375 700.176 296.997C702.799 299.62 707.051 299.62 709.674 296.997Z" fill="#344CB7" fill-opacity="0.43"/>
<path d="M816.825 296.997C819.447 294.375 819.447 290.123 816.825 287.5C814.202 284.877 809.95 284.877 807.327 287.5C804.705 290.123 804.705 294.375 807.327 296.997C809.95 299.62 814.202 299.62 816.825 296.997Z" fill="#344CB7" fill-opacity="0.43"/>
<path d="M923.793 296.815C926.315 294.293 926.315 290.204 923.793 287.683C921.271 285.161 917.183 285.161 914.661 287.683C912.139 290.204 912.139 294.293 914.661 296.815C917.183 299.337 921.271 299.337 923.793 296.815Z" fill="#344CB7" fill-opacity="0.43"/>
<path d="M495.497 296.997C498.12 294.375 498.12 290.123 495.497 287.5C492.875 284.877 488.623 284.877 486 287.5C483.377 290.123 483.377 294.375 486 296.997C488.623 299.62 492.875 299.62 495.497 296.997Z" fill="#344CB7" fill-opacity="0.43"/>
<path d="M393.632 296.815C396.154 294.293 396.154 290.205 393.632 287.683C391.11 285.161 387.022 285.161 384.5 287.683C381.978 290.205 381.978 294.293 384.5 296.815C387.022 299.337 391.11 299.337 393.632 296.815Z" fill="#344CB7" fill-opacity="0.43"/>
<path d="M323.648 296.632C326.17 294.11 326.17 290.022 323.648 287.5C321.127 284.978 317.038 284.978 314.516 287.5C311.994 290.022 311.994 294.11 314.516 296.632C317.038 299.154 321.127 299.154 323.648 296.632Z" fill="#344CB7" fill-opacity="0.43"/>
<path d="M1032.5 296.632C1035.02 294.11 1035.02 290.022 1032.5 287.5C1029.98 284.978 1025.89 284.978 1023.37 287.5C1020.85 290.022 1020.85 294.11 1023.37 296.632C1025.89 299.154 1029.98 299.154 1032.5 296.632Z" fill="#344CB7" fill-opacity="0.43"/>
<path d="M1032.5 296.632C1035.02 294.11 1035.02 290.022 1032.5 287.5C1029.98 284.978 1025.89 284.978 1023.37 287.5C1020.85 290.022 1020.85 294.11 1023.37 296.632C1025.89 299.154 1029.98 299.154 1032.5 296.632Z" fill="#344CB7" fill-opacity="0.43"/>
<path d="M1139.5 296.632C1142.02 294.11 1142.02 290.022 1139.5 287.5C1136.98 284.978 1132.89 284.978 1130.37 287.5C1127.85 290.022 1127.85 294.11 1130.37 296.632C1132.89 299.154 1136.98 299.154 1139.5 296.632Z" fill="#344CB7" fill-opacity="0.43"/>
<path d="M1139.5 296.632C1142.02 294.11 1142.02 290.022 1139.5 287.5C1136.98 284.978 1132.89 284.978 1130.37 287.5C1127.85 290.022 1127.85 294.11 1130.37 296.632C1132.89 299.154 1136.98 299.154 1139.5 296.632Z" fill="#344CB7" fill-opacity="0.43"/>
<path d="M1194.5 272.489C1198.16 268.824 1198.16 262.882 1194.5 259.217C1190.84 255.552 1184.89 255.552 1181.23 259.217C1177.56 262.882 1177.56 268.824 1181.23 272.489C1184.89 276.154 1190.84 276.154 1194.5 272.489Z" fill="#344CB7" fill-opacity="0.43"/>
</svg>
