<svg width="1519" height="667" viewBox="0 0 1519 667" fill="none" xmlns="http://www.w3.org/2000/svg">
<path d="M13.1562 603.969C15.2072 601.918 15.2072 598.593 13.1562 596.542C11.1051 594.49 7.7797 594.49 5.72865 596.542C3.6776 598.593 3.6776 601.918 5.72865 603.969C7.7797 606.02 11.1051 606.02 13.1562 603.969Z" fill="#344CB7" fill-opacity="0.43"/>
<path d="M66.8535 657.667C68.9718 655.548 68.9718 652.114 66.8535 649.995C64.7352 647.877 61.3007 647.877 59.1824 649.995C57.0641 652.114 57.0641 655.548 59.1824 657.666C61.3007 659.785 64.7352 659.785 66.8535 657.667Z" fill="#344CB7" fill-opacity="0.43"/>
<path d="M14.1911 497.853C16.8138 495.23 16.8138 490.978 14.1911 488.356C11.5685 485.733 7.31632 485.733 4.69366 488.356C2.07101 490.978 2.07099 495.23 4.69365 497.853C7.3163 500.476 11.5685 500.476 14.1911 497.853Z" fill="#344CB7" fill-opacity="0.43"/>
<path d="M68.0102 551.672C70.7674 548.915 70.7674 544.445 68.0102 541.688C65.2531 538.93 60.7828 538.93 58.0257 541.688C55.2685 544.445 55.2685 548.915 58.0257 551.672C60.7828 554.429 65.2531 554.429 68.0102 551.672Z" fill="#344CB7" fill-opacity="0.43"/>
<path d="M121.829 605.491C124.721 602.6 124.721 597.911 121.829 595.02C118.938 592.128 114.249 592.128 111.358 595.02C108.466 597.911 108.466 602.599 111.358 605.491C114.249 608.383 118.938 608.383 121.829 605.491Z" fill="#344CB7" fill-opacity="0.43"/>
<path d="M175.648 659.31C178.675 656.284 178.674 651.378 175.648 648.352C172.622 645.325 167.716 645.325 164.69 648.352C161.664 651.378 161.664 656.284 164.69 659.31C167.716 662.336 172.622 662.336 175.648 659.31Z" fill="#344CB7" fill-opacity="0.43"/>
<path d="M15.0435 391.554C18.1369 388.461 18.1369 383.445 15.0435 380.352C11.9501 377.259 6.9347 377.259 3.84131 380.352C0.747916 383.445 0.747947 388.461 3.84134 391.554C6.93473 394.648 11.9501 394.648 15.0435 391.554Z" fill="#344CB7" fill-opacity="0.43"/>
<path d="M68.9843 445.495C72.2795 442.2 72.2794 436.857 68.9843 433.562C65.6892 430.267 60.3467 430.267 57.0516 433.562C53.7565 436.857 53.7564 442.2 57.0516 445.495C60.3467 448.79 65.6892 448.79 68.9843 445.495Z" fill="#344CB7" fill-opacity="0.43"/>
<path d="M122.864 499.375C126.328 495.912 126.328 490.297 122.864 486.834C119.401 483.37 113.786 483.37 110.323 486.834C106.86 490.297 106.859 495.912 110.323 499.375C113.786 502.838 119.401 502.838 122.864 499.375Z" fill="#344CB7" fill-opacity="0.43"/>
<path d="M176.805 553.316C180.47 549.651 180.47 543.709 176.805 540.044C173.14 536.379 167.198 536.379 163.533 540.044C159.868 543.709 159.868 549.651 163.533 553.316C167.198 556.981 173.14 556.981 176.805 553.316Z" fill="#344CB7" fill-opacity="0.43"/>
<path d="M230.746 607.257C234.613 603.39 234.613 597.121 230.746 593.254C226.879 589.387 220.61 589.387 216.743 593.254C212.877 597.121 212.877 603.39 216.743 607.257C220.61 611.123 226.879 611.123 230.746 607.257Z" fill="#344CB7" fill-opacity="0.43"/>
<path d="M283.956 660.467C287.621 656.802 287.621 650.86 283.956 647.195C280.291 643.53 274.349 643.53 270.684 647.195C267.019 650.86 267.019 656.802 270.684 660.467C274.349 664.132 280.291 664.132 283.956 660.467Z" fill="#344CB7" fill-opacity="0.43"/>
<path d="M15.5914 284.951C18.9874 281.555 18.9874 276.049 15.5914 272.653C12.1954 269.257 6.68938 269.257 3.29338 272.653C-0.102627 276.049 -0.102596 281.555 3.29341 284.951C6.68942 288.347 12.1954 288.347 15.5914 284.951Z" fill="#344CB7" fill-opacity="0.43"/>
<path d="M69.654 339.014C73.319 335.349 73.319 329.407 69.654 325.742C65.989 322.077 60.0469 322.077 56.3819 325.742C52.7169 329.407 52.7169 335.349 56.3819 339.014C60.0469 342.679 65.989 342.679 69.654 339.014Z" fill="#344CB7" fill-opacity="0.43"/>
<path d="M123.717 393.076C127.651 389.142 127.651 382.764 123.717 378.83C119.783 374.896 113.404 374.896 109.47 378.83C105.536 382.764 105.536 389.142 109.47 393.076C113.404 397.01 119.783 397.01 123.717 393.076Z" fill="#344CB7" fill-opacity="0.43"/>
<path d="M177.718 447.078C181.888 442.909 181.888 436.149 177.718 431.98C173.549 427.81 166.789 427.81 162.62 431.98C158.45 436.149 158.45 442.909 162.62 447.078C166.789 451.247 173.549 451.247 177.718 447.078Z" fill="#344CB7" fill-opacity="0.43"/>
<path d="M231.781 501.141C236.219 496.702 236.219 489.506 231.781 485.068C227.343 480.63 220.147 480.63 215.708 485.068C211.27 489.506 211.27 496.702 215.708 501.141C220.147 505.579 227.343 505.579 231.781 501.141Z" fill="#344CB7" fill-opacity="0.43"/>
<path d="M285.844 555.203C290.551 550.496 290.551 542.864 285.844 538.156C281.136 533.449 273.504 533.449 268.797 538.156C264.089 542.864 264.089 550.496 268.797 555.203C273.504 559.91 281.136 559.91 285.844 555.203Z" fill="#344CB7" fill-opacity="0.43"/>
<path d="M338.932 608.292C343.37 603.853 343.37 596.657 338.932 592.219C334.494 587.781 327.298 587.781 322.859 592.219C318.421 596.657 318.421 603.853 322.859 608.292C327.298 612.73 334.494 612.73 338.932 608.292Z" fill="#344CB7" fill-opacity="0.43"/>
<path d="M392.02 661.38C396.19 657.211 396.19 650.451 392.02 646.282C387.851 642.112 381.091 642.112 376.922 646.282C372.753 650.451 372.753 657.211 376.922 661.38C381.091 665.55 387.851 665.549 392.02 661.38Z" fill="#344CB7" fill-opacity="0.43"/>
<path d="M15.9567 178.165C19.5545 174.568 19.5545 168.734 15.9567 165.137C12.359 161.539 6.52586 161.539 2.92811 165.137C-0.669634 168.734 -0.669634 174.568 2.92811 178.165C6.52586 181.763 12.359 181.763 15.9567 178.165Z" fill="#344CB7" fill-opacity="0.43"/>
<path d="M70.1411 232.35C74.075 228.416 74.0751 222.037 70.1411 218.103C66.2071 214.169 59.8288 214.169 55.8948 218.103C51.9609 222.037 51.9609 228.416 55.8948 232.35C59.8288 236.284 66.2071 236.284 70.1411 232.35Z" fill="#344CB7" fill-opacity="0.43"/>
<path d="M124.265 286.473C128.501 282.237 128.501 275.368 124.265 271.131C120.028 266.895 113.159 266.895 108.922 271.131C104.686 275.368 104.686 282.237 108.922 286.473C113.159 290.71 120.028 290.71 124.265 286.473Z" fill="#344CB7" fill-opacity="0.43"/>
<path d="M178.449 340.658C183.022 336.085 183.022 328.671 178.449 324.098C173.876 319.525 166.462 319.525 161.889 324.098C157.316 328.671 157.316 336.085 161.889 340.658C166.462 345.23 173.876 345.23 178.449 340.658Z" fill="#344CB7" fill-opacity="0.43"/>
<path d="M232.633 394.842C237.542 389.933 237.542 381.974 232.633 377.064C227.724 372.155 219.765 372.155 214.856 377.064C209.947 381.974 209.947 389.933 214.856 394.842C219.765 399.751 227.724 399.751 232.633 394.842Z" fill="#344CB7" fill-opacity="0.43"/>
<path d="M286.757 448.965C291.968 443.754 291.968 435.304 286.757 430.092C281.545 424.881 273.095 424.881 267.884 430.092C262.672 435.304 262.672 443.754 267.884 448.965C273.095 454.177 281.545 454.177 286.757 448.965Z" fill="#344CB7" fill-opacity="0.43"/>
<path d="M340.941 503.15C346.489 497.602 346.489 488.607 340.941 483.059C335.393 477.511 326.398 477.511 320.85 483.059C315.302 488.607 315.302 497.602 320.85 503.15C326.398 508.698 335.393 508.698 340.941 503.15Z" fill="#344CB7" fill-opacity="0.43"/>
<path d="M393.908 556.116C399.119 550.905 399.119 542.455 393.908 537.243C388.696 532.032 380.246 532.032 375.035 537.243C369.823 542.455 369.823 550.905 375.035 556.116C380.246 561.328 388.696 561.328 393.908 556.116Z" fill="#344CB7" fill-opacity="0.43"/>
<path d="M446.935 609.144C451.844 604.235 451.844 596.276 446.935 591.367C442.026 586.457 434.067 586.458 429.158 591.367C424.249 596.276 424.249 604.235 429.158 609.144C434.067 614.053 442.026 614.053 446.935 609.144Z" fill="#344CB7" fill-opacity="0.43"/>
<path d="M499.902 662.111C504.475 657.538 504.475 650.124 499.902 645.551C495.329 640.978 487.915 640.978 483.342 645.551C478.77 650.124 478.77 657.538 483.342 662.111C487.915 666.684 495.329 666.684 499.902 662.111Z" fill="#344CB7" fill-opacity="0.43"/>
<path d="M16.0785 71.1359C19.7435 67.471 19.7435 61.5289 16.0785 57.8639C12.4135 54.1989 6.47136 54.1989 2.80636 57.8639C-0.858632 61.5289 -0.858632 67.471 2.80636 71.1359C6.47136 74.8009 12.4135 74.8009 16.0785 71.1359Z" fill="#344CB7" fill-opacity="0.43"/>
<path d="M70.3846 125.442C74.4531 121.374 74.4531 114.777 70.3846 110.709C66.3161 106.64 59.7198 106.64 55.6513 110.709C51.5829 114.777 51.5828 121.374 55.6513 125.442C59.7198 129.511 66.3161 129.511 70.3846 125.442Z" fill="#344CB7" fill-opacity="0.43"/>
<path d="M124.63 179.687C129.068 175.249 129.068 168.053 124.63 163.615C120.192 159.176 112.996 159.176 108.557 163.615C104.119 168.053 104.119 175.249 108.557 179.687C112.996 184.126 120.192 184.126 124.63 179.687Z" fill="#344CB7" fill-opacity="0.43"/>
<path d="M178.936 233.993C183.778 229.152 183.778 221.301 178.936 216.46C174.094 211.618 166.244 211.618 161.402 216.46C156.56 221.301 156.56 229.152 161.402 233.993C166.244 238.835 174.094 238.835 178.936 233.993Z" fill="#344CB7" fill-opacity="0.43"/>
<path d="M233.181 288.239C238.393 283.027 238.393 274.577 233.181 269.366C227.969 264.154 219.52 264.154 214.308 269.366C209.096 274.577 209.096 283.027 214.308 288.239C219.52 293.45 227.97 293.45 233.181 288.239Z" fill="#344CB7" fill-opacity="0.43"/>
<path d="M287.487 342.545C293.103 336.93 293.103 327.826 287.487 322.21C281.872 316.595 272.768 316.595 267.153 322.21C261.538 327.826 261.538 336.93 267.153 342.545C272.768 348.16 281.872 348.16 287.487 342.545Z" fill="#344CB7" fill-opacity="0.43"/>
<path d="M341.733 396.79C347.718 390.805 347.718 381.101 341.733 375.116C335.748 369.131 326.044 369.131 320.059 375.116C314.074 381.101 314.074 390.805 320.059 396.79C326.044 402.775 335.748 402.775 341.733 396.79Z" fill="#344CB7" fill-opacity="0.43"/>
<path d="M396.039 451.096C402.427 444.708 402.427 434.35 396.039 427.961C389.65 421.573 379.292 421.573 372.904 427.961C366.515 434.35 366.515 444.708 372.904 451.096C379.292 457.485 389.65 457.485 396.039 451.096Z" fill="#344CB7" fill-opacity="0.43"/>
<path d="M448.884 503.941C454.869 497.956 454.869 488.253 448.884 482.267C442.899 476.282 433.195 476.282 427.21 482.267C421.225 488.253 421.225 497.956 427.21 503.941C433.195 509.926 442.899 509.926 448.884 503.941Z" fill="#344CB7" fill-opacity="0.43"/>
<path d="M501.79 556.847C507.405 551.232 507.405 542.128 501.789 536.513C496.174 530.898 487.07 530.898 481.455 536.513C475.84 542.128 475.84 551.232 481.455 556.847C487.07 562.462 496.174 562.462 501.79 556.847Z" fill="#344CB7" fill-opacity="0.43"/>
<path d="M554.634 609.692C559.846 604.48 559.846 596.03 554.634 590.819C549.423 585.607 540.973 585.607 535.761 590.819C530.55 596.03 530.55 604.48 535.761 609.692C540.973 614.904 549.423 614.904 554.634 609.692Z" fill="#344CB7" fill-opacity="0.43"/>
<path d="M607.54 662.598C612.382 657.756 612.382 649.906 607.54 645.064C602.698 640.222 594.848 640.222 590.006 645.064C585.165 649.906 585.165 657.756 590.006 662.598C594.848 667.44 602.698 667.44 607.54 662.598Z" fill="#344CB7" fill-opacity="0.43"/>
<path d="M70.3846 18.291C74.4531 14.2225 74.4531 7.62619 70.3846 3.55771C66.3161 -0.510773 59.7198 -0.510773 55.6513 3.55771C51.5828 7.62619 51.5829 14.2225 55.6513 18.291C59.7198 22.3595 66.3161 22.3595 70.3846 18.291Z" fill="#344CB7" fill-opacity="0.43"/>
<path d="M124.752 72.658C129.257 68.1524 129.257 60.8474 124.752 56.3418C120.246 51.8362 112.941 51.8362 108.435 56.3418C103.93 60.8474 103.93 68.1524 108.435 72.658C112.941 77.1636 120.246 77.1636 124.752 72.658Z" fill="#344CB7" fill-opacity="0.43"/>
<path d="M179.18 127.086C184.156 122.11 184.156 114.041 179.179 109.065C174.203 104.089 166.135 104.089 161.159 109.065C156.182 114.041 156.182 122.11 161.159 127.086C166.135 132.062 174.203 132.062 179.18 127.086Z" fill="#344CB7" fill-opacity="0.43"/>
<path d="M233.547 181.453C238.96 176.039 238.96 167.263 233.547 161.849C228.133 156.436 219.356 156.436 213.943 161.849C208.529 167.263 208.529 176.039 213.943 181.453C219.356 186.866 228.133 186.866 233.547 181.453Z" fill="#344CB7" fill-opacity="0.43"/>
<path d="M503.859 451.766C510.618 445.007 510.618 434.05 503.859 427.292C497.101 420.533 486.144 420.533 479.385 427.292C472.627 434.05 472.627 445.008 479.385 451.766C486.144 458.524 497.101 458.524 503.859 451.766Z" fill="#344CB7" fill-opacity="0.43"/>
<path d="M556.643 504.55C562.965 498.229 562.965 487.98 556.643 481.658C550.322 475.337 540.073 475.337 533.752 481.659C527.431 487.98 527.431 498.229 533.752 504.55C540.073 510.871 550.322 510.871 556.643 504.55Z" fill="#344CB7" fill-opacity="0.43"/>
<path d="M609.367 557.273C615.217 551.423 615.217 541.937 609.367 536.086C603.516 530.236 594.031 530.236 588.18 536.086C582.33 541.937 582.329 551.423 588.18 557.273C594.031 563.124 603.516 563.124 609.367 557.273Z" fill="#344CB7" fill-opacity="0.43"/>
<path d="M662.151 610.057C667.564 604.644 667.564 595.867 662.151 590.453C656.737 585.04 647.96 585.04 642.547 590.453C637.134 595.867 637.134 604.644 642.547 610.057C647.96 615.471 656.737 615.471 662.151 610.057Z" fill="#344CB7" fill-opacity="0.43"/>
<path d="M714.935 662.841C719.911 657.865 719.911 649.797 714.935 644.82C709.959 639.844 701.89 639.844 696.914 644.82C691.938 649.797 691.938 657.865 696.914 662.841C701.89 667.818 709.959 667.818 714.935 662.841Z" fill="#344CB7" fill-opacity="0.43"/>
<path d="M664.16 504.915C670.683 498.392 670.683 487.816 664.16 481.293C657.637 474.77 647.061 474.77 640.538 481.293C634.015 487.816 634.015 498.392 640.538 504.915C647.061 511.438 657.637 511.438 664.16 504.915Z" fill="#344CB7" fill-opacity="0.43"/>
<path d="M716.761 557.517C722.746 551.532 722.746 541.828 716.761 535.843C710.776 529.858 701.073 529.858 695.088 535.843C689.103 541.828 689.103 551.532 695.088 557.517C701.073 563.502 710.776 563.502 716.761 557.517Z" fill="#344CB7" fill-opacity="0.43"/>
<path d="M769.424 610.179C774.904 604.698 774.904 595.812 769.424 590.332C763.943 584.851 755.057 584.851 749.576 590.332C744.096 595.812 744.096 604.698 749.576 610.179C755.057 615.66 763.943 615.66 769.424 610.179Z" fill="#344CB7" fill-opacity="0.43"/>
<path d="M822.086 662.841C827.062 657.865 827.062 649.797 822.086 644.82C817.11 639.844 809.042 639.844 804.065 644.821C799.089 649.797 799.089 657.865 804.065 662.841C809.041 667.818 817.11 667.818 822.086 662.841Z" fill="#344CB7" fill-opacity="0.43"/>
<path d="M771.433 505.037C778.023 498.447 778.023 487.762 771.433 481.172C764.842 474.581 754.158 474.581 747.567 481.172C740.977 487.762 740.977 498.447 747.567 505.037C754.157 511.627 764.843 511.627 771.433 505.037Z" fill="#344CB7" fill-opacity="0.43"/>
<path d="M823.912 557.517C829.897 551.532 829.897 541.828 823.912 535.843C817.927 529.858 808.224 529.858 802.239 535.843C796.254 541.828 796.254 551.532 802.239 557.517C808.224 563.502 817.927 563.502 823.912 557.517Z" fill="#344CB7" fill-opacity="0.43"/>
<path d="M876.453 610.057C881.866 604.644 881.866 595.867 876.453 590.453C871.04 585.04 862.263 585.04 856.849 590.453C851.436 595.867 851.436 604.644 856.849 610.057C862.263 615.471 871.04 615.471 876.453 610.057Z" fill="#344CB7" fill-opacity="0.43"/>
<path d="M928.994 662.598C933.835 657.756 933.835 649.906 928.994 645.064C924.152 640.222 916.302 640.222 911.46 645.064C906.618 649.906 906.618 657.756 911.46 662.598C916.302 667.44 924.152 667.439 928.994 662.598Z" fill="#344CB7" fill-opacity="0.43"/>
<path d="M878.462 504.915C884.985 498.392 884.985 487.816 878.462 481.293C871.939 474.77 861.363 474.77 854.84 481.293C848.317 487.816 848.317 498.392 854.84 504.915C861.363 511.438 871.939 511.438 878.462 504.915Z" fill="#344CB7" fill-opacity="0.43"/>
<path d="M930.82 557.273C936.67 551.423 936.67 541.937 930.82 536.086C924.969 530.236 915.484 530.236 909.633 536.086C903.783 541.937 903.783 551.423 909.633 557.273C915.484 563.124 924.969 563.124 930.82 557.273Z" fill="#344CB7" fill-opacity="0.43"/>
<path d="M983.239 609.692C988.45 604.48 988.451 596.03 983.239 590.819C978.027 585.607 969.577 585.607 964.366 590.819C959.154 596.03 959.154 604.48 964.366 609.692C969.577 614.904 978.027 614.904 983.239 609.692Z" fill="#344CB7" fill-opacity="0.43"/>
<path d="M1035.66 662.111C1040.23 657.538 1040.23 650.124 1035.66 645.551C1031.08 640.978 1023.67 640.978 1019.1 645.551C1014.53 650.124 1014.53 657.538 1019.1 662.111C1023.67 666.684 1031.08 666.684 1035.66 662.111Z" fill="#344CB7" fill-opacity="0.43"/>
<path d="M985.248 504.55C991.569 498.229 991.569 487.98 985.248 481.659C978.927 475.337 968.678 475.337 962.356 481.658C956.035 487.98 956.035 498.229 962.356 504.55C968.678 510.871 978.927 510.871 985.248 504.55Z" fill="#344CB7" fill-opacity="0.43"/>
<path d="M1037.54 556.847C1043.16 551.232 1043.16 542.128 1037.54 536.513C1031.93 530.898 1022.83 530.897 1017.21 536.513C1011.6 542.128 1011.6 551.232 1017.21 556.847C1022.83 562.462 1031.93 562.462 1037.54 556.847Z" fill="#344CB7" fill-opacity="0.43"/>
<path d="M1089.84 609.144C1094.75 604.235 1094.75 596.276 1089.84 591.367C1084.93 586.457 1076.97 586.458 1072.06 591.367C1067.16 596.276 1067.16 604.235 1072.06 609.144C1076.97 614.053 1084.93 614.053 1089.84 609.144Z" fill="#344CB7" fill-opacity="0.43"/>
<path d="M1142.08 661.38C1146.25 657.211 1146.25 650.451 1142.08 646.282C1137.91 642.112 1131.15 642.112 1126.98 646.282C1122.81 650.451 1122.81 657.211 1126.98 661.38C1131.15 665.549 1137.91 665.55 1142.08 661.38Z" fill="#344CB7" fill-opacity="0.43"/>
<path d="M1039.61 451.766C1046.37 445.008 1046.37 434.05 1039.61 427.292C1032.86 420.533 1021.9 420.533 1015.14 427.292C1008.38 434.05 1008.38 445.008 1015.14 451.766C1021.9 458.524 1032.86 458.524 1039.61 451.766Z" fill="#344CB7" fill-opacity="0.43"/>
<path d="M1091.79 503.941C1097.78 497.956 1097.78 488.253 1091.79 482.267C1085.81 476.282 1076.1 476.282 1070.12 482.267C1064.13 488.253 1064.13 497.956 1070.12 503.941C1076.1 509.926 1085.81 509.926 1091.79 503.941Z" fill="#344CB7" fill-opacity="0.43"/>
<path d="M1143.97 556.116C1149.18 550.905 1149.18 542.455 1143.97 537.243C1138.75 532.031 1130.3 532.032 1125.09 537.243C1119.88 542.455 1119.88 550.905 1125.09 556.116C1130.3 561.328 1138.75 561.328 1143.97 556.116Z" fill="#344CB7" fill-opacity="0.43"/>
<path d="M1196.14 608.292C1200.58 603.853 1200.58 596.657 1196.14 592.219C1191.7 587.781 1184.51 587.781 1180.07 592.219C1175.63 596.657 1175.63 603.853 1180.07 608.292C1184.51 612.73 1191.7 612.73 1196.14 608.292Z" fill="#344CB7" fill-opacity="0.43"/>
<path d="M1248.32 660.467C1251.98 656.802 1251.98 650.86 1248.32 647.195C1244.65 643.53 1238.71 643.53 1235.04 647.195C1231.38 650.86 1231.38 656.802 1235.04 660.467C1238.71 664.132 1244.65 664.132 1248.32 660.467Z" fill="#344CB7" fill-opacity="0.43"/>
<path d="M1146.1 451.096C1152.48 444.708 1152.48 434.35 1146.1 427.961C1139.71 421.573 1129.35 421.573 1122.96 427.961C1116.57 434.35 1116.57 444.708 1122.96 451.096C1129.35 457.485 1139.71 457.485 1146.1 451.096Z" fill="#344CB7" fill-opacity="0.43"/>
<path d="M1198.15 503.15C1203.7 497.602 1203.7 488.607 1198.15 483.059C1192.6 477.511 1183.61 477.511 1178.06 483.059C1172.51 488.607 1172.51 497.602 1178.06 503.15C1183.61 508.698 1192.6 508.698 1198.15 503.15Z" fill="#344CB7" fill-opacity="0.43"/>
<path d="M1250.2 555.203C1254.91 550.496 1254.91 542.864 1250.2 538.156C1245.5 533.449 1237.86 533.449 1233.16 538.156C1228.45 542.864 1228.45 550.496 1233.16 555.203C1237.86 559.91 1245.5 559.911 1250.2 555.203Z" fill="#344CB7" fill-opacity="0.43"/>
<path d="M1302.26 607.257C1306.12 603.39 1306.12 597.121 1302.26 593.254C1298.39 589.387 1292.12 589.387 1288.25 593.254C1284.39 597.121 1284.39 603.39 1288.25 607.257C1292.12 611.123 1298.39 611.123 1302.26 607.257Z" fill="#344CB7" fill-opacity="0.43"/>
<path d="M1354.31 659.31C1357.34 656.284 1357.34 651.378 1354.31 648.352C1351.28 645.325 1346.38 645.325 1343.35 648.352C1340.33 651.378 1340.33 656.284 1343.35 659.31C1346.38 662.336 1351.28 662.336 1354.31 659.31Z" fill="#344CB7" fill-opacity="0.43"/>
<path d="M1198.94 396.79C1204.93 390.805 1204.93 381.101 1198.94 375.116C1192.96 369.131 1183.25 369.131 1177.27 375.116C1171.28 381.101 1171.28 390.805 1177.27 396.79C1183.25 402.775 1192.96 402.775 1198.94 396.79Z" fill="#344CB7" fill-opacity="0.43"/>
<path d="M1251.12 448.965C1256.33 443.754 1256.33 435.304 1251.12 430.092C1245.9 424.881 1237.46 424.881 1232.24 430.092C1227.03 435.304 1227.03 443.754 1232.24 448.965C1237.45 454.177 1245.9 454.177 1251.12 448.965Z" fill="#344CB7" fill-opacity="0.43"/>
<path d="M1303.29 501.141C1307.73 496.702 1307.73 489.506 1303.29 485.068C1298.85 480.63 1291.66 480.63 1287.22 485.068C1282.78 489.506 1282.78 496.702 1287.22 501.141C1291.66 505.579 1298.85 505.579 1303.29 501.141Z" fill="#344CB7" fill-opacity="0.43"/>
<path d="M1355.47 553.316C1359.13 549.651 1359.13 543.709 1355.47 540.044C1351.8 536.379 1345.86 536.379 1342.2 540.044C1338.53 543.709 1338.53 549.651 1342.19 553.316C1345.86 556.981 1351.8 556.981 1355.47 553.316Z" fill="#344CB7" fill-opacity="0.43"/>
<path d="M1407.64 605.491C1410.53 602.6 1410.53 597.911 1407.64 595.02C1404.75 592.128 1400.06 592.128 1397.17 595.02C1394.28 597.911 1394.28 602.6 1397.17 605.491C1400.06 608.383 1404.75 608.383 1407.64 605.491Z" fill="#344CB7" fill-opacity="0.43"/>
<path d="M1459.82 657.666C1461.94 655.548 1461.94 652.114 1459.82 649.995C1457.7 647.877 1454.26 647.877 1452.15 649.995C1450.03 652.114 1450.03 655.548 1452.15 657.667C1454.26 659.785 1457.7 659.785 1459.82 657.666Z" fill="#344CB7" fill-opacity="0.43"/>
<path d="M1251.85 342.545C1257.46 336.93 1257.46 327.826 1251.85 322.21C1246.23 316.595 1237.13 316.595 1231.51 322.21C1225.9 327.826 1225.9 336.93 1231.51 342.545C1237.13 348.16 1246.23 348.16 1251.85 342.545Z" fill="#344CB7" fill-opacity="0.43"/>
<path d="M1304.14 394.842C1309.05 389.933 1309.05 381.974 1304.14 377.064C1299.23 372.155 1291.28 372.155 1286.37 377.064C1281.46 381.974 1281.46 389.933 1286.37 394.842C1291.28 399.751 1299.23 399.751 1304.14 394.842Z" fill="#344CB7" fill-opacity="0.43"/>
<path d="M1356.38 447.078C1360.55 442.909 1360.55 436.149 1356.38 431.98C1352.21 427.81 1345.45 427.81 1341.28 431.98C1337.11 436.149 1337.11 442.909 1341.28 447.078C1345.45 451.247 1352.21 451.247 1356.38 447.078Z" fill="#344CB7" fill-opacity="0.43"/>
<path d="M1408.68 499.375C1412.14 495.912 1412.14 490.297 1408.68 486.833C1405.21 483.37 1399.6 483.37 1396.14 486.834C1392.67 490.297 1392.67 495.912 1396.14 499.375C1399.6 502.838 1405.21 502.838 1408.68 499.375Z" fill="#344CB7" fill-opacity="0.43"/>
<path d="M1460.97 551.672C1463.73 548.915 1463.73 544.445 1460.97 541.688C1458.22 538.93 1453.75 538.93 1450.99 541.688C1448.23 544.445 1448.23 548.915 1450.99 551.672C1453.75 554.429 1458.22 554.429 1460.97 551.672Z" fill="#344CB7" fill-opacity="0.43"/>
<path d="M1513.27 603.969C1515.32 601.918 1515.32 598.593 1513.27 596.542C1511.22 594.49 1507.89 594.491 1505.84 596.542C1503.79 598.593 1503.79 601.918 1505.84 603.969C1507.89 606.02 1511.22 606.02 1513.27 603.969Z" fill="#344CB7" fill-opacity="0.43"/>
<path d="M1304.69 288.239C1309.9 283.027 1309.9 274.577 1304.69 269.366C1299.48 264.154 1291.03 264.154 1285.82 269.366C1280.61 274.577 1280.61 283.027 1285.82 288.239C1291.03 293.45 1299.48 293.45 1304.69 288.239Z" fill="#344CB7" fill-opacity="0.43"/>
<path d="M1357.11 340.658C1361.68 336.085 1361.68 328.671 1357.11 324.098C1352.54 319.525 1345.12 319.525 1340.55 324.098C1335.98 328.671 1335.98 336.085 1340.55 340.658C1345.12 345.23 1352.54 345.23 1357.11 340.658Z" fill="#344CB7" fill-opacity="0.43"/>
<path d="M1409.53 393.076C1413.46 389.142 1413.46 382.764 1409.53 378.83C1405.6 374.896 1399.22 374.896 1395.28 378.83C1391.35 382.764 1391.35 389.142 1395.28 393.076C1399.22 397.01 1405.6 397.01 1409.53 393.076Z" fill="#344CB7" fill-opacity="0.43"/>
<path d="M1461.95 445.495C1465.24 442.2 1465.24 436.857 1461.95 433.562C1458.65 430.267 1453.31 430.267 1450.02 433.563C1446.72 436.858 1446.72 442.2 1450.02 445.495C1453.31 448.79 1458.65 448.79 1461.95 445.495Z" fill="#344CB7" fill-opacity="0.43"/>
<path d="M1514.31 497.853C1516.93 495.23 1516.93 490.978 1514.31 488.356C1511.68 485.733 1507.43 485.733 1504.81 488.356C1502.19 490.978 1502.19 495.23 1504.81 497.853C1507.43 500.476 1511.68 500.476 1514.31 497.853Z" fill="#344CB7" fill-opacity="0.43"/>
<path d="M1305.06 181.453C1310.47 176.039 1310.47 167.263 1305.06 161.849C1299.64 156.436 1290.87 156.436 1285.45 161.849C1280.04 167.263 1280.04 176.039 1285.45 181.453C1290.87 186.866 1299.64 186.866 1305.06 181.453Z" fill="#344CB7" fill-opacity="0.43"/>
<path d="M1357.6 233.993C1362.44 229.152 1362.44 221.301 1357.6 216.46C1352.76 211.618 1344.91 211.618 1340.06 216.46C1335.22 221.301 1335.22 229.152 1340.06 233.993C1344.91 238.835 1352.76 238.835 1357.6 233.993Z" fill="#344CB7" fill-opacity="0.43"/>
<path d="M1410.08 286.473C1414.31 282.237 1414.31 275.368 1410.08 271.131C1405.84 266.894 1398.97 266.895 1394.74 271.131C1390.5 275.368 1390.5 282.236 1394.74 286.473C1398.97 290.71 1405.84 290.71 1410.08 286.473Z" fill="#344CB7" fill-opacity="0.43"/>
<path d="M1462.62 339.014C1466.28 335.349 1466.28 329.407 1462.62 325.742C1458.95 322.077 1453.01 322.077 1449.35 325.742C1445.68 329.407 1445.68 335.349 1449.35 339.014C1453.01 342.679 1458.95 342.679 1462.62 339.014Z" fill="#344CB7" fill-opacity="0.43"/>
<path d="M1515.16 391.554C1518.25 388.461 1518.25 383.445 1515.16 380.352C1512.07 377.259 1507.05 377.259 1503.96 380.352C1500.86 383.445 1500.86 388.461 1503.96 391.554C1507.05 394.648 1512.07 394.648 1515.16 391.554Z" fill="#344CB7" fill-opacity="0.43"/>
<path d="M1357.84 127.086C1362.82 122.11 1362.82 114.041 1357.84 109.065C1352.87 104.089 1344.8 104.089 1339.82 109.065C1334.84 114.041 1334.84 122.11 1339.82 127.086C1344.8 132.062 1352.87 132.062 1357.84 127.086Z" fill="#344CB7" fill-opacity="0.43"/>
<path d="M1410.44 179.687C1414.88 175.249 1414.88 168.053 1410.44 163.615C1406 159.176 1398.81 159.176 1394.37 163.615C1389.93 168.053 1389.93 175.249 1394.37 179.687C1398.81 184.126 1406 184.126 1410.44 179.687Z" fill="#344CB7" fill-opacity="0.43"/>
<path d="M1463.11 232.35C1467.04 228.416 1467.04 222.037 1463.11 218.103C1459.17 214.169 1452.79 214.169 1448.86 218.103C1444.93 222.037 1444.93 228.416 1448.86 232.35C1452.79 236.284 1459.17 236.284 1463.11 232.35Z" fill="#344CB7" fill-opacity="0.43"/>
<path d="M1515.71 284.951C1519.1 281.555 1519.1 276.049 1515.71 272.653C1512.31 269.257 1506.8 269.257 1503.41 272.653C1500.01 276.049 1500.01 281.555 1503.41 284.951C1506.8 288.347 1512.31 288.347 1515.71 284.951Z" fill="#344CB7" fill-opacity="0.43"/>
<path d="M1410.56 72.658C1415.07 68.1524 1415.07 60.8474 1410.56 56.3418C1406.06 51.8362 1398.75 51.8362 1394.25 56.3418C1389.74 60.8474 1389.74 68.1524 1394.25 72.658C1398.75 77.1636 1406.06 77.1636 1410.56 72.658Z" fill="#344CB7" fill-opacity="0.43"/>
<path d="M1463.35 125.442C1467.42 121.374 1467.42 114.777 1463.35 110.709C1459.28 106.64 1452.68 106.64 1448.62 110.709C1444.55 114.777 1444.55 121.374 1448.62 125.442C1452.68 129.511 1459.28 129.511 1463.35 125.442Z" fill="#344CB7" fill-opacity="0.43"/>
<path d="M1516.07 178.165C1519.67 174.568 1519.67 168.734 1516.07 165.137C1512.47 161.539 1506.64 161.539 1503.04 165.137C1499.45 168.734 1499.45 174.568 1503.04 178.165C1506.64 181.763 1512.47 181.763 1516.07 178.165Z" fill="#344CB7" fill-opacity="0.43"/>
<path d="M1463.35 18.2909C1467.42 14.2224 1467.42 7.62625 1463.35 3.55777C1459.28 -0.510712 1452.68 -0.510834 1448.62 3.55765C1444.55 7.62613 1444.55 14.2226 1448.62 18.291C1452.68 22.3595 1459.28 22.3594 1463.35 18.2909Z" fill="#344CB7" fill-opacity="0.43"/>
<path d="M1516.19 71.1359C1519.86 67.471 1519.86 61.5289 1516.19 57.8639C1512.53 54.1989 1506.59 54.1988 1502.92 57.8638C1499.26 61.5288 1499.26 67.471 1502.92 71.136C1506.59 74.801 1512.53 74.8009 1516.19 71.1359Z" fill="#344CB7" fill-opacity="0.43"/>
<path d="M1088.08 395.141C1090.46 392.753 1090.46 388.883 1088.08 386.496C1085.69 384.108 1081.82 384.108 1079.43 386.495C1077.04 388.883 1077.04 392.753 1079.43 395.141C1081.82 397.528 1085.69 397.528 1088.08 395.141Z" fill="#344CB7" fill-opacity="0.43"/>
<path d="M942.862 445.251C945.249 442.864 945.249 438.994 942.862 436.606C940.474 434.219 936.604 434.219 934.217 436.606C931.829 438.993 931.829 442.864 934.217 445.251C936.604 447.639 940.474 447.639 942.862 445.251Z" fill="#344CB7" fill-opacity="0.43"/>
<path d="M832.349 448.295C834.736 445.908 834.736 442.038 832.349 439.65C829.962 437.263 826.091 437.263 823.704 439.65C821.317 442.037 821.317 445.908 823.704 448.295C826.091 450.683 829.962 450.683 832.349 448.295Z" fill="#344CB7" fill-opacity="0.43"/>
<path d="M712.621 443.364C715.009 440.977 715.009 437.106 712.621 434.719C710.234 432.332 706.364 432.332 703.976 434.719C701.589 437.106 701.589 440.977 703.976 443.364C706.364 445.751 710.234 445.751 712.621 443.364Z" fill="#344CB7" fill-opacity="0.43"/>
<path d="M614.542 448.965C616.929 446.578 616.929 442.708 614.542 440.32C612.154 437.933 608.284 437.933 605.896 440.32C603.509 442.707 603.509 446.578 605.896 448.965C608.284 451.353 612.154 451.353 614.542 448.965Z" fill="#344CB7" fill-opacity="0.43"/>
<path d="M456.128 392.097C458.516 389.709 458.516 385.839 456.128 383.452C453.741 381.064 449.871 381.064 447.483 383.451C445.096 385.839 445.096 389.709 447.483 392.097C449.871 394.484 453.741 394.484 456.128 392.097Z" fill="#344CB7" fill-opacity="0.43"/>
<path d="M404.684 362.751C407.071 360.364 407.071 356.494 404.684 354.106C402.296 351.719 398.426 351.719 396.039 354.106C393.651 356.493 393.651 360.364 396.039 362.751C398.426 365.139 402.296 365.139 404.684 362.751Z" fill="#344CB7" fill-opacity="0.43"/>
<path d="M295.585 243.065C299.25 239.4 299.249 233.458 295.585 229.793C291.92 226.128 285.977 226.128 282.312 229.793C278.647 233.458 278.647 239.4 282.312 243.065C285.977 246.73 291.92 246.73 295.585 243.065Z" fill="#344CB7" fill-opacity="0.43"/>
<path d="M348.917 301.511C352.582 297.846 352.581 291.904 348.916 288.239C345.251 284.574 339.309 284.574 335.644 288.239C331.979 291.904 331.979 297.846 335.644 301.511C339.309 305.176 345.252 305.176 348.917 301.511Z" fill="#344CB7" fill-opacity="0.43"/>
<path d="M1249.5 243.065C1253.16 239.4 1253.16 233.458 1249.5 229.793C1245.84 226.128 1239.89 226.128 1236.23 229.793C1232.56 233.458 1232.56 239.4 1236.23 243.065C1239.89 246.73 1245.84 246.73 1249.5 243.065Z" fill="#344CB7" fill-opacity="0.43"/>
<path d="M1182 301.511C1185.66 297.846 1185.66 291.904 1182 288.239C1178.34 284.574 1172.39 284.574 1168.73 288.239C1165.06 291.904 1165.06 297.846 1168.73 301.511C1172.39 305.176 1178.34 305.176 1182 301.511Z" fill="#344CB7" fill-opacity="0.43"/>
<path d="M1139.65 362.751C1142.03 360.364 1142.03 356.494 1139.65 354.106C1137.26 351.719 1133.39 351.719 1131 354.106C1128.61 356.493 1128.61 360.364 1131 362.751C1133.39 365.139 1137.26 365.139 1139.65 362.751Z" fill="#344CB7" fill-opacity="0.43"/>
</svg>
