<svg width="1541" height="117" viewBox="0 0 1541 117" fill="none" xmlns="http://www.w3.org/2000/svg">
<path d="M1540.53 116.5H0.715328V108L4.8215 103.5L16.5534 98.5L36.4977 91L55.2687 87L78.7326 81.5L96.9171 75L120.381 65.5L145.018 50.5L177.867 29.5L200.745 16.5L218.929 9L240.046 2.5L254.125 0H275.829H291.667L312.198 2.5L363.818 11L447.115 29.5L548.009 45L601.976 50H651.837L698.178 48.5L743.346 45L803.765 38.5L841.894 35.5L901.727 34L941.615 32H987.956L1015.53 36.5L1055.41 50.5L1095.89 60L1132.85 67.5H1187.99L1257.2 64.5L1290.64 60L1328.18 56H1369.83L1409.13 60L1455.47 77L1500.05 100.5L1540.53 116.5Z" fill="#FFC0D9"/>
</svg>
