<svg width="2008" height="112" viewBox="0 0 2008 112" fill="none" xmlns="http://www.w3.org/2000/svg">
<path fill-rule="evenodd" clip-rule="evenodd" d="M0 101.768L30 95.4341C61 88.8888 122 76.2206 183 61.441C243 46.6614 304 29.5592 365 40.3272C426 50.8841 487 88.8888 548 103.88C608 118.659 669 110.214 730 101.768C791 93.1116 852 84.6661 913 86.7775C974 88.8888 1034 101.768 1095 108.102C1156 114.436 1217 114.436 1278 97.5455C1339 80.4433 1400 46.6614 1460 42.4386C1521 38.2159 1582 63.5523 1643 82.5547C1704 101.768 1765 114.436 1825 108.102C1886 101.768 1947 76.2206 1978 63.5523L2008 50.8841V0H1978C1947 0 1886 0 1825 0C1765 0 1704 0 1643 0C1582 0 1521 0 1460 0C1400 0 1339 0 1278 0C1217 0 1156 0 1095 0C1034 0 974 0 913 0C852 0 791 0 730 0C669 0 608 0 548 0C487 0 426 0 365 0C304 0 243 0 183 0C122 0 61 0 30 0H0V101.768Z" fill="#FFC0D9"/>
</svg>
