<svg width="2008" height="112" viewBox="0 0 2008 112" fill="none" xmlns="http://www.w3.org/2000/svg">
<path fill-rule="evenodd" clip-rule="evenodd" d="M2008 10.2318L1978 16.5659C1947 23.1112 1886 35.7794 1825 50.559C1765 65.3386 1714.5 67.268 1653.5 56.5C1592.5 45.9431 1521 23.1112 1460 8.12043C1400 -6.65919 1339 1.78631 1278 10.2318C1217 18.8884 1156 27.3339 1095 25.2226C1034 23.1112 974 10.2318 913 3.89768C852 -2.43644 791 -2.43644 730 14.4545C669 31.5567 608 65.3386 548 69.5614C487 73.7841 426 48.4477 365 29.4453C304 10.2318 243 -2.43644 183 3.89768C122 10.2318 61 35.7794 30 48.4477L0 61.1159V112H30C61 112 122 112 183 112C243 112 304 112 365 112C426 112 487 112 548 112C608 112 669 112 730 112C791 112 852 112 913 112C974 112 1034 112 1095 112C1156 112 1217 112 1278 112C1339 112 1400 112 1460 112C1521 112 1582 112 1643 112C1704 112 1765 112 1825 112C1886 112 1947 112 1978 112H2008V10.2318Z" fill="#FFC0D9"/>
</svg>
