<svg width="1313" height="117" viewBox="0 0 1313 117" fill="none" xmlns="http://www.w3.org/2000/svg">
<path d="M0.5 0.5L1313 0.5V9L1309.5 13.5L1299.5 18.5L1282.5 26L1266.5 30L1246.5 35.5L1231 42L1211 51.5L1190 66.5L1162 87.5L1142.5 100.5L1127 108L1109 114.5L1097 117H1078.5H1065L1047.5 114.5L1003.5 106L932.5 87.5L846.5 72L800.5 67H758L718.5 68.5L680 72L628.5 78.5L596 81.5L545 83L511 85H471.5L448 80.5L414 66.5L379.5 57L348 49.5H301L242 52.5L213.5 57L181.5 61H146L112.5 57L73 40L35 16.5L0.5 0.5Z" fill="#FFC0D9"/>
</svg>
